  0
SECTION
  2
HEADER
  9
$ACADVER
  1
AC1015
  9
$ACADMAINTVER
 70
     6
  9
$DWGCODEPAGE
  3
ANSI_1252
  9
$INSBASE
 10
0.0
 20
0.0
 30
0.0
  9
$EXTMIN
 10
-13.61708
 20
-6.46102
 30
0.0
  9
$EXTMAX
 10
5.50641
 20
17.67604
 30
0.0
  9
$LIMMIN
 10
0.0
 20
0.0
  9
$LIMMAX
 10
12.0
 20
9.0
  9
$ORTHOMODE
 70
     0
  9
$REGENMODE
 70
     1
  9
$FILLMODE
 70
     1
  9
$QTEXTMODE
 70
     0
  9
$MIRRTEXT
 70
     1
  9
$LTSCALE
 40
1.0
  9
$ATTMODE
 70
     1
  9
$TEXTSIZE
 40
0.2
  9
$TRACEWID
 40
0.05
  9
$TEXTSTYLE
  7
Standard
  9
$CLAYER
  8
0
  9
$CELTYPE
  6
ByLayer
  9
$CECOLOR
 62
   256
  9
$CELTSCALE
 40
1.0
  9
$DISPSILH
 70
     0
  9
$DIMSCALE
 40
1.0
  9
$DIMASZ
 40
0.18
  9
$DIMEXO
 40
0.0625
  9
$DIMDLI
 40
0.38
  9
$DIMRND
 40
0.0
  9
$DIMDLE
 40
0.0
  9
$DIMEXE
 40
0.18
  9
$DIMTP
 40
0.0
  9
$DIMTM
 40
0.0
  9
$DIMTXT
 40
0.18
  9
$DIMCEN
 40
0.09
  9
$DIMTSZ
 40
0.0
  9
$DIMTOL
 70
     0
  9
$DIMLIM
 70
     0
  9
$DIMTIH
 70
     1
  9
$DIMTOH
 70
     1
  9
$DIMSE1
 70
     0
  9
$DIMSE2
 70
     0
  9
$DIMTAD
 70
     0
  9
$DIMZIN
 70
     0
  9
$DIMBLK
  1

  9
$DIMASO
 70
     1
  9
$DIMSHO
 70
     1
  9
$DIMPOST
  1

  9
$DIMAPOST
  1

  9
$DIMALT
 70
     0
  9
$DIMALTD
 70
     2
  9
$DIMALTF
 40
25.4
  9
$DIMLFAC
 40
1.0
  9
$DIMTOFL
 70
     0
  9
$DIMTVP
 40
0.0
  9
$DIMTIX
 70
     0
  9
$DIMSOXD
 70
     0
  9
$DIMSAH
 70
     0
  9
$DIMBLK1
  1

  9
$DIMBLK2
  1

  9
$DIMSTYLE
  2
Standard
  9
$DIMCLRD
 70
     0
  9
$DIMCLRE
 70
     0
  9
$DIMCLRT
 70
     0
  9
$DIMTFAC
 40
1.0
  9
$DIMGAP
 40
0.09
  9
$DIMJUST
 70
     0
  9
$DIMSD1
 70
     0
  9
$DIMSD2
 70
     0
  9
$DIMTOLJ
 70
     1
  9
$DIMTZIN
 70
     0
  9
$DIMALTZ
 70
     0
  9
$DIMALTTZ
 70
     0
  9
$DIMUPT
 70
     0
  9
$DIMDEC
 70
     4
  9
$DIMTDEC
 70
     4
  9
$DIMALTU
 70
     2
  9
$DIMALTTD
 70
     2
  9
$DIMTXSTY
  7
Standard
  9
$DIMAUNIT
 70
     0
  9
$DIMADEC
 70
     0
  9
$DIMALTRND
 40
0.0
  9
$DIMAZIN
 70
     0
  9
$DIMDSEP
 70
    46
  9
$DIMATFIT
 70
     3
  9
$DIMFRAC
 70
     0
  9
$DIMLDRBLK
  1

  9
$DIMLUNIT
 70
     2
  9
$DIMLWD
 70
    -2
  9
$DIMLWE
 70
    -2
  9
$DIMTMOVE
 70
     0
  9
$LUNITS
 70
     2
  9
$LUPREC
 70
     4
  9
$SKETCHINC
 40
0.1
  9
$FILLETRAD
 40
0.5
  9
$AUNITS
 70
     0
  9
$AUPREC
 70
     0
  9
$MENU
  1
.
  9
$ELEVATION
 40
0.0
  9
$PELEVATION
 40
0.0
  9
$THICKNESS
 40
0.0
  9
$LIMCHECK
 70
     0
  9
$CHAMFERA
 40
0.5
  9
$CHAMFERB
 40
0.5
  9
$CHAMFERC
 40
1.0
  9
$CHAMFERD
 40
0.0
  9
$SKPOLY
 70
     0
  9
$TDCREATE
 40
2458031.544092801
  9
$TDUCREATE
 40
2458031.314926134
  9
$TDUPDATE
 40
2458031.544092801
  9
$TDUUPDATE
 40
2458031.314926134
  9
$TDINDWG
 40
0.0000000116
  9
$TDUSRTIMER
 40
0.0000000116
  9
$USRTIMER
 70
     1
  9
$ANGBASE
 50
0.0
  9
$ANGDIR
 70
     0
  9
$PDMODE
 70
     0
  9
$PDSIZE
 40
0.0
  9
$PLINEWID
 40
0.0
  9
$SPLFRAME
 70
     0
  9
$SPLINETYPE
 70
     6
  9
$SPLINESEGS
 70
     8
  9
$HANDSEED
  5
BD
  9
$SURFTAB1
 70
     6
  9
$SURFTAB2
 70
     6
  9
$SURFTYPE
 70
     6
  9
$SURFU
 70
     6
  9
$SURFV
 70
     6
  9
$UCSBASE
  2

  9
$UCSNAME
  2

  9
$UCSORG
 10
0.0
 20
0.0
 30
0.0
  9
$UCSXDIR
 10
1.0
 20
0.0
 30
0.0
  9
$UCSYDIR
 10
0.0
 20
1.0
 30
0.0
  9
$UCSORTHOREF
  2

  9
$UCSORTHOVIEW
 70
     0
  9
$UCSORGTOP
 10
0.0
 20
0.0
 30
0.0
  9
$UCSORGBOTTOM
 10
0.0
 20
0.0
 30
0.0
  9
$UCSORGLEFT
 10
0.0
 20
0.0
 30
0.0
  9
$UCSORGRIGHT
 10
0.0
 20
0.0
 30
0.0
  9
$UCSORGFRONT
 10
0.0
 20
0.0
 30
0.0
  9
$UCSORGBACK
 10
0.0
 20
0.0
 30
0.0
  9
$PUCSBASE
  2

  9
$PUCSNAME
  2

  9
$PUCSORG
 10
0.0
 20
0.0
 30
0.0
  9
$PUCSXDIR
 10
1.0
 20
0.0
 30
0.0
  9
$PUCSYDIR
 10
0.0
 20
1.0
 30
0.0
  9
$PUCSORTHOREF
  2

  9
$PUCSORTHOVIEW
 70
     0
  9
$PUCSORGTOP
 10
0.0
 20
0.0
 30
0.0
  9
$PUCSORGBOTTOM
 10
0.0
 20
0.0
 30
0.0
  9
$PUCSORGLEFT
 10
0.0
 20
0.0
 30
0.0
  9
$PUCSORGRIGHT
 10
0.0
 20
0.0
 30
0.0
  9
$PUCSORGFRONT
 10
0.0
 20
0.0
 30
0.0
  9
$PUCSORGBACK
 10
0.0
 20
0.0
 30
0.0
  9
$USERI1
 70
     0
  9
$USERI2
 70
     0
  9
$USERI3
 70
     0
  9
$USERI4
 70
     0
  9
$USERI5
 70
     0
  9
$USERR1
 40
0.0
  9
$USERR2
 40
0.0
  9
$USERR3
 40
0.0
  9
$USERR4
 40
0.0
  9
$USERR5
 40
0.0
  9
$WORLDVIEW
 70
     1
  9
$SHADEDGE
 70
     3
  9
$SHADEDIF
 70
    70
  9
$TILEMODE
 70
     1
  9
$MAXACTVP
 70
    64
  9
$PINSBASE
 10
0.0
 20
0.0
 30
0.0
  9
$PLIMCHECK
 70
     0
  9
$PEXTMIN
 10
1.000000000000000E+20
 20
1.000000000000000E+20
 30
1.000000000000000E+20
  9
$PEXTMAX
 10
-1.000000000000000E+20
 20
-1.000000000000000E+20
 30
-1.000000000000000E+20
  9
$PLIMMIN
 10
0.0
 20
0.0
  9
$PLIMMAX
 10
12.0
 20
9.0
  9
$UNITMODE
 70
     0
  9
$VISRETAIN
 70
     1
  9
$PLINEGEN
 70
     0
  9
$PSLTSCALE
 70
     1
  9
$TREEDEPTH
 70
  3020
  9
$CMLSTYLE
  2
Standard
  9
$CMLJUST
 70
     0
  9
$CMLSCALE
 40
1.0
  9
$PROXYGRAPHICS
 70
     1
  9
$MEASUREMENT
 70
     0
  9
$CELWEIGHT
370
    -1
  9
$ENDCAPS
280
     0
  9
$JOINSTYLE
280
     0
  9
$LWDISPLAY
290
     0
  9
$INSUNITS
 70
     5
  9
$HYPERLINKBASE
  1

  9
$STYLESHEET
  1

  9
$XEDIT
290
     1
  9
$CEPSNTYPE
380
     0
  9
$PSTYLEMODE
290
     1
  9
$FINGERPRINTGUID
  2
{D8B3174F-8257-4D07-AA2A-1883AF61E987}
  9
$VERSIONGUID
  2
{FAEB1C32-E019-11D5-929B-00C0DF256EC4}
  9
$EXTNAMES
290
     1
  9
$PSVPSCALE
 40
0.0
  9
$OLESTARTUP
290
     0
  0
ENDSEC
  0
SECTION
  2
CLASSES
  0
CLASS
  1
ACDBDICTIONARYWDFLT
  2
AcDbDictionaryWithDefault
  3
ObjectDBX Classes
 90
        0
280
     0
281
     0
  0
CLASS
  1
VISUALSTYLE
  2
AcDbVisualStyle
  3
ObjectDBX Classes
 90
     4095
280
     0
281
     0
  0
CLASS
  1
MATERIAL
  2
AcDbMaterial
  3
ObjectDBX Classes
 90
     1153
280
     0
281
     0
  0
CLASS
  1
DICTIONARYVAR
  2
AcDbDictionaryVar
  3
ObjectDBX Classes
 90
        0
280
     0
281
     0
  0
CLASS
  1
ACDBPLACEHOLDER
  2
AcDbPlaceHolder
  3
ObjectDBX Classes
 90
        0
280
     0
281
     0
  0
CLASS
  1
LAYOUT
  2
AcDbLayout
  3
ObjectDBX Classes
 90
        0
280
     0
281
     0
  0
ENDSEC
  0
SECTION
  2
TABLES
  0
TABLE
  2
VPORT
  5
8
330
0
100
AcDbSymbolTable
 70
     1
  0
VPORT
  5
29
330
8
100
AcDbSymbolTableRecord
100
AcDbViewportTableRecord
  2
*Active
 70
     0
 10
0.0
 20
0.0
 11
1.0
 21
1.0
 12
10.42990654205607
 22
4.5
 13
0.0
 23
0.0
 14
0.5
 24
0.5
 15
0.5
 25
0.5
 16
0.0
 26
0.0
 36
1.0
 17
0.0
 27
0.0
 37
0.0
 40
9.0
 41
1.972972972850329
 42
50.0
 43
0.0
 44
0.0
 50
0.0
 51
0.0
 71
     0
 72
   100
 73
     1
 74
     3
 75
     0
 76
     0
 77
     0
 78
     0
281
     0
 65
     1
110
0.0
120
0.0
130
0.0
111
1.0
121
0.0
131
0.0
112
0.0
122
1.0
132
0.0
 79
     0
146
0.0
  0
ENDTAB
  0
TABLE
  2
LTYPE
  5
5
330
0
100
AcDbSymbolTable
 70
     1
  0
LTYPE
  5
14
330
5
100
AcDbSymbolTableRecord
100
AcDbLinetypeTableRecord
  2
ByBlock
 70
     0
  3

 72
    65
 73
     0
 40
0.0
  0
LTYPE
  5
15
330
5
100
AcDbSymbolTableRecord
100
AcDbLinetypeTableRecord
  2
ByLayer
 70
     0
  3

 72
    65
 73
     0
 40
0.0
  0
LTYPE
  5
16
330
5
100
AcDbSymbolTableRecord
100
AcDbLinetypeTableRecord
  2
Continuous
 70
     0
  3
Solid line
 72
    65
 73
     0
 40
0.0
  0
ENDTAB
  0
TABLE
  2
LAYER
  5
2
330
0
100
AcDbSymbolTable
 70
     2
  0
LAYER
  5
10
330
2
100
AcDbSymbolTableRecord
100
AcDbLayerTableRecord
  2
0
 70
     0
 62
     7
  6
Continuous
370
    -3
390
F
  0
LAYER
  5
40
330
2
100
AcDbSymbolTableRecord
100
AcDbLayerTableRecord
  2
Layer 1
 70
     0
 62
     7
  6
Continuous
370
    -3
390
F
  0
ENDTAB
  0
TABLE
  2
STYLE
  5
3
330
0
100
AcDbSymbolTable
 70
     1
  0
STYLE
  5
11
330
3
100
AcDbSymbolTableRecord
100
AcDbTextStyleTableRecord
  2
Standard
 70
     0
 40
0.0
 41
1.0
 50
0.0
 71
     0
 42
0.2
  3
txt
  4

  0
ENDTAB
  0
TABLE
  2
VIEW
  5
6
330
0
100
AcDbSymbolTable
 70
     0
  0
ENDTAB
  0
TABLE
  2
UCS
  5
7
330
0
100
AcDbSymbolTable
 70
     0
  0
ENDTAB
  0
TABLE
  2
APPID
  5
9
330
0
100
AcDbSymbolTable
 70
     2
  0
APPID
  5
12
330
9
100
AcDbSymbolTableRecord
100
AcDbRegAppTableRecord
  2
ACAD
 70
     0
  0
APPID
  5
3F
330
9
100
AcDbSymbolTableRecord
100
AcDbRegAppTableRecord
  2
ODA
 70
     0
  0
ENDTAB
  0
TABLE
  2
DIMSTYLE
  5
A
330
0
100
AcDbSymbolTable
 70
     1
100
AcDbDimStyleTable
  0
DIMSTYLE
105
27
330
A
100
AcDbSymbolTableRecord
100
AcDbDimStyleTableRecord
  2
Standard
 70
     0
178
     0
340
11
  0
ENDTAB
  0
TABLE
  2
BLOCK_RECORD
  5
1
330
0
100
AcDbSymbolTable
 70
     1
  0
BLOCK_RECORD
  5
1F
330
1
100
AcDbSymbolTableRecord
100
AcDbBlockTableRecord
  2
*Model_Space
340
22
  0
BLOCK_RECORD
  5
1B
330
1
100
AcDbSymbolTableRecord
100
AcDbBlockTableRecord
  2
*Paper_Space
340
1E
  0
BLOCK_RECORD
  5
23
330
1
100
AcDbSymbolTableRecord
100
AcDbBlockTableRecord
  2
*Paper_Space0
340
26
  0
ENDTAB
  0
ENDSEC
  0
SECTION
  2
BLOCKS
  0
BLOCK
  5
20
330
1F
100
AcDbEntity
  8
0
100
AcDbBlockBegin
  2
*Model_Space
 70
     0
 10
0.0
 20
0.0
 30
0.0
  3
*Model_Space
  1

  0
ENDBLK
  5
21
330
1F
100
AcDbEntity
  8
0
100
AcDbBlockEnd
  0
BLOCK
  5
1C
330
1B
100
AcDbEntity
 67
     1
  8
0
100
AcDbBlockBegin
  2
*Paper_Space
 70
     0
 10
0.0
 20
0.0
 30
0.0
  3
*Paper_Space
  1

  0
ENDBLK
  5
1D
330
1B
100
AcDbEntity
 67
     1
  8
0
100
AcDbBlockEnd
  0
BLOCK
  5
24
330
23
100
AcDbEntity
  8
0
100
AcDbBlockBegin
  2
*Paper_Space0
 70
     0
 10
0.0
 20
0.0
 30
0.0
  3
*Paper_Space0
  1

  0
ENDBLK
  5
25
330
23
100
AcDbEntity
  8
0
100
AcDbBlockEnd
  0
ENDSEC
  0
SECTION
  2
ENTITIES
  0
SPLINE
  5
41
330
1F
100
AcDbEntity
  8
Layer 1
 62
   177
100
AcDbSpline
210
0.0
220
0.0
230
1.0
 70
    11
 71
     3
 72
    20
 73
    16
 74
     0
 42
0.0000000001
 43
0.0000000001
 12
1.0
 22
0.0
 32
0.0
 13
1.0
 23
0.0
 33
0.0
 40
0.0
 40
0.0
 40
0.0
 40
0.0
 40
0.2
 40
0.2
 40
0.2
 40
0.2
 40
0.4
 40
0.4
 40
0.4
 40
0.4
 40
0.6
 40
0.6
 40
0.6
 40
0.6
 40
1.0
 40
1.0
 40
1.0
 40
1.0
 10
-13.61327
 20
-6.45721
 30
0.0
 10
-13.61327
 20
-6.45721
 30
0.0
 10
-13.61327
 20
17.67223
 30
0.0
 10
-13.61327
 20
17.67223
 30
0.0
 10
-13.61327
 20
17.67223
 30
0.0
 10
-13.61327
 20
17.67223
 30
0.0
 10
-4.64054
 20
17.67223
 30
0.0
 10
-4.64054
 20
17.67223
 30
0.0
 10
-4.64054
 20
17.67223
 30
0.0
 10
-4.64054
 20
17.67223
 30
0.0
 10
-4.64051
 20
-6.45721
 30
0.0
 10
-4.64051
 20
-6.45721
 30
0.0
 10
-4.64051
 20
-6.45721
 30
0.0
 10
-4.64051
 20
-6.45721
 30
0.0
 10
-13.61327
 20
-6.45721
 30
0.0
 10
-13.61327
 20
-6.45721
 30
0.0
  0
SPLINE
  5
42
330
1F
100
AcDbEntity
  8
Layer 1
 62
   177
100
AcDbSpline
210
0.0
220
0.0
230
1.0
 70
    11
 71
     3
 72
    40
 73
    36
 74
     0
 42
0.0000000001
 43
0.0000000001
 12
1.0
 22
0.0
 32
0.0
 13
1.0
 23
0.0
 33
0.0
 40
0.0
 40
0.0
 40
0.0
 40
0.0
 40
0.1
 40
0.1
 40
0.1
 40
0.1
 40
0.2
 40
0.2
 40
0.2
 40
0.2
 40
0.3
 40
0.3
 40
0.3
 40
0.3
 40
0.4
 40
0.4
 40
0.4
 40
0.4
 40
0.5
 40
0.5
 40
0.5
 40
0.5
 40
0.6
 40
0.6
 40
0.6
 40
0.6
 40
0.7
 40
0.7
 40
0.7
 40
0.7
 40
0.8
 40
0.8
 40
0.8
 40
0.8
 40
1.0
 40
1.0
 40
1.0
 40
1.0
 10
-7.91414
 20
-1.9088
 30
0.0
 10
-7.91414
 20
-1.9088
 30
0.0
 10
-7.91414
 20
-0.63775
 30
0.0
 10
-7.91414
 20
-0.63775
 30
0.0
 10
-7.91414
 20
-0.63775
 30
0.0
 10
-7.91414
 20
-0.63775
 30
0.0
 10
-9.12689
 20
-0.63775
 30
0.0
 10
-9.12689
 20
-0.63775
 30
0.0
 10
-9.12689
 20
-0.63775
 30
0.0
 10
-9.12689
 20
-0.63775
 30
0.0
 10
-10.33964
 20
-0.63775
 30
0.0
 10
-10.33964
 20
-0.63775
 30
0.0
 10
-10.33964
 20
-0.63775
 30
0.0
 10
-10.33964
 20
-0.63775
 30
0.0
 10
-10.33964
 20
-1.9088
 30
0.0
 10
-10.33964
 20
-1.9088
 30
0.0
 10
-10.33964
 20
-1.9088
 30
0.0
 10
-10.33964
 20
-1.9088
 30
0.0
 10
-10.33964
 20
-3.17975
 30
0.0
 10
-10.33964
 20
-3.17975
 30
0.0
 10
-10.33964
 20
-3.17975
 30
0.0
 10
-10.33964
 20
-3.17975
 30
0.0
 10
-9.12689
 20
-3.17975
 30
0.0
 10
-9.12689
 20
-3.17975
 30
0.0
 10
-9.12689
 20
-3.17975
 30
0.0
 10
-9.12689
 20
-3.17975
 30
0.0
 10
-7.91414
 20
-3.17975
 30
0.0
 10
-7.91414
 20
-3.17975
 30
0.0
 10
-7.91414
 20
-3.17975
 30
0.0
 10
-7.91414
 20
-3.17975
 30
0.0
 10
-7.91414
 20
-1.9088
 30
0.0
 10
-7.91414
 20
-1.9088
 30
0.0
 10
-7.91414
 20
-1.9088
 30
0.0
 10
-7.91414
 20
-1.9088
 30
0.0
 10
-7.91414
 20
-1.9088
 30
0.0
 10
-7.91414
 20
-1.9088
 30
0.0
  0
SPLINE
  5
43
330
1F
100
AcDbEntity
  8
Layer 1
 62
   177
100
AcDbSpline
210
0.0
220
0.0
230
1.0
 70
    11
 71
     3
 72
    68
 73
    64
 74
     0
 42
0.0000000001
 43
0.0000000001
 12
1.0
 22
0.0
 32
0.0
 13
1.0
 23
0.0
 33
0.0
 40
0.0
 40
0.0
 40
0.0
 40
0.0
 40
0.0588235294117647
 40
0.0588235294117647
 40
0.0588235294117647
 40
0.0588235294117647
 40
0.1176470588235294
 40
0.1176470588235294
 40
0.1176470588235294
 40
0.1176470588235294
 40
0.1764705882352941
 40
0.1764705882352941
 40
0.1764705882352941
 40
0.1764705882352941
 40
0.2352941176470588
 40
0.2352941176470588
 40
0.2352941176470588
 40
0.2352941176470588
 40
0.2941176470588235
 40
0.2941176470588235
 40
0.2941176470588235
 40
0.2941176470588235
 40
0.3529411764705883
 40
0.3529411764705883
 40
0.3529411764705883
 40
0.3529411764705883
 40
0.4117647058823529
 40
0.4117647058823529
 40
0.4117647058823529
 40
0.4117647058823529
 40
0.4705882352941176
 40
0.4705882352941176
 40
0.4705882352941176
 40
0.4705882352941176
 40
0.5294117647058824
 40
0.5294117647058824
 40
0.5294117647058824
 40
0.5294117647058824
 40
0.5882352941176471
 40
0.5882352941176471
 40
0.5882352941176471
 40
0.5882352941176471
 40
0.6470588235294118
 40
0.6470588235294118
 40
0.6470588235294118
 40
0.6470588235294118
 40
0.7058823529411765
 40
0.7058823529411765
 40
0.7058823529411765
 40
0.7058823529411765
 40
0.7647058823529411
 40
0.7647058823529411
 40
0.7647058823529411
 40
0.7647058823529411
 40
0.8235294117647058
 40
0.8235294117647058
 40
0.8235294117647058
 40
0.8235294117647058
 40
0.8823529411764706
 40
0.8823529411764706
 40
0.8823529411764706
 40
0.8823529411764706
 40
1.0
 40
1.0
 40
1.0
 40
1.0
 10
-9.12689
 20
4.54279
 30
0.0
 10
-9.12689
 20
4.54279
 30
0.0
 10
-9.12466
 20
4.54279
 30
0.0
 10
-9.12466
 20
4.54279
 30
0.0
 10
-9.12466
 20
4.54279
 30
0.0
 10
-9.12466
 20
4.54279
 30
0.0
 10
-9.12246
 20
4.54279
 30
0.0
 10
-9.12246
 20
4.54279
 30
0.0
 10
-9.12246
 20
4.54279
 30
0.0
 10
-9.05865
 20
4.54312
 30
0.0
 10
-8.9954
 20
4.55398
 30
0.0
 10
-8.93518
 20
4.57493
 30
0.0
 10
-8.93518
 20
4.57493
 30
0.0
 10
-8.87509
 20
4.59593
 30
0.0
 10
-8.81827
 20
4.6253
 30
0.0
 10
-8.76643
 20
4.66214
 30
0.0
 10
-8.76643
 20
4.66214
 30
0.0
 10
-8.76643
 20
4.66214
 30
0.0
 10
-7.42373
 20
2.2639
 30
0.0
 10
-7.42373
 20
2.2639
 30
0.0
 10
-7.42373
 20
2.2639
 30
0.0
 10
-7.42373
 20
2.2639
 30
0.0
 10
-8.50783
 20
-0.27032
 30
0.0
 10
-8.50783
 20
-0.27032
 30
0.0
 10
-8.50783
 20
-0.27032
 30
0.0
 10
-8.50783
 20
-0.27032
 30
0.0
 10
-8.53445
 20
-0.33273
 30
0.0
 10
-8.53445
 20
-0.33273
 30
0.0
 10
-8.53445
 20
-0.33273
 30
0.0
 10
-8.53445
 20
-0.33273
 30
0.0
 10
-9.12689
 20
-0.33273
 30
0.0
 10
-9.12689
 20
-0.33273
 30
0.0
 10
-9.12689
 20
-0.33273
 30
0.0
 10
-9.12689
 20
-0.33273
 30
0.0
 10
-9.7193
 20
-0.33273
 30
0.0
 10
-9.7193
 20
-0.33273
 30
0.0
 10
-9.7193
 20
-0.33273
 30
0.0
 10
-9.7193
 20
-0.33273
 30
0.0
 10
-9.74595
 20
-0.27032
 30
0.0
 10
-9.74595
 20
-0.27032
 30
0.0
 10
-9.74595
 20
-0.27032
 30
0.0
 10
-9.74595
 20
-0.27032
 30
0.0
 10
-10.83005
 20
2.2639
 30
0.0
 10
-10.83005
 20
2.2639
 30
0.0
 10
-10.83005
 20
2.2639
 30
0.0
 10
-10.83005
 20
2.2639
 30
0.0
 10
-9.48735
 20
4.66218
 30
0.0
 10
-9.48735
 20
4.66218
 30
0.0
 10
-9.48735
 20
4.66218
 30
0.0
 10
-9.43549
 20
4.62532
 30
0.0
 10
-9.37869
 20
4.59593
 30
0.0
 10
-9.3186
 20
4.57493
 30
0.0
 10
-9.3186
 20
4.57493
 30
0.0
 10
-9.25838
 20
4.55399
 30
0.0
 10
-9.19513
 20
4.54312
 30
0.0
 10
-9.13132
 20
4.54279
 30
0.0
 10
-9.13132
 20
4.54279
 30
0.0
 10
-9.13132
 20
4.54279
 30
0.0
 10
-9.12912
 20
4.54279
 30
0.0
 10
-9.12912
 20
4.54279
 30
0.0
 10
-9.12912
 20
4.54279
 30
0.0
 10
-9.12912
 20
4.54279
 30
0.0
 10
-9.12689
 20
4.54279
 30
0.0
 10
-9.12689
 20
4.54279
 30
0.0
  0
SPLINE
  5
44
330
1F
100
AcDbEntity
  8
Layer 1
 62
   177
100
AcDbSpline
210
0.0
220
0.0
230
1.0
 70
    11
 71
     3
 72
    24
 73
    20
 74
     0
 42
0.0000000001
 43
0.0000000001
 12
1.0
 22
0.0
 32
0.0
 13
1.0
 23
0.0
 33
0.0
 40
0.0
 40
0.0
 40
0.0
 40
0.0
 40
0.1666666666666667
 40
0.1666666666666667
 40
0.1666666666666667
 40
0.1666666666666667
 40
0.3333333333333333
 40
0.3333333333333333
 40
0.3333333333333333
 40
0.3333333333333333
 40
0.5
 40
0.5
 40
0.5
 40
0.5
 40
0.6666666666666666
 40
0.6666666666666666
 40
0.6666666666666666
 40
0.6666666666666666
 40
1.0
 40
1.0
 40
1.0
 40
1.0
 10
-10.0383
 20
-0.33273
 30
0.0
 10
-10.0383
 20
-0.33273
 30
0.0
 10
-10.63073
 20
-0.33273
 30
0.0
 10
-10.63073
 20
-0.33273
 30
0.0
 10
-10.63073
 20
-0.33273
 30
0.0
 10
-10.63073
 20
-0.33273
 30
0.0
 10
-10.63073
 20
-1.75621
 30
0.0
 10
-10.63073
 20
-1.75621
 30
0.0
 10
-10.63073
 20
-1.75621
 30
0.0
 10
-10.63073
 20
-1.75621
 30
0.0
 10
-13.08075
 20
-1.75621
 30
0.0
 10
-13.08075
 20
-1.75621
 30
0.0
 10
-13.08075
 20
-1.75621
 30
0.0
 10
-13.08075
 20
-1.75621
 30
0.0
 10
-11.01085
 20
1.94093
 30
0.0
 10
-11.01085
 20
1.94093
 30
0.0
 10
-11.01085
 20
1.94093
 30
0.0
 10
-11.01085
 20
1.94093
 30
0.0
 10
-10.0383
 20
-0.33273
 30
0.0
 10
-10.0383
 20
-0.33273
 30
0.0
  0
SPLINE
  5
45
330
1F
100
AcDbEntity
  8
Layer 1
 62
   177
100
AcDbSpline
210
0.0
220
0.0
230
1.0
 70
    11
 71
     3
 72
    36
 73
    32
 74
     0
 42
0.0000000001
 43
0.0000000001
 12
1.0
 22
0.0
 32
0.0
 13
1.0
 23
0.0
 33
0.0
 40
0.0
 40
0.0
 40
0.0
 40
0.0
 40
0.1111111111111111
 40
0.1111111111111111
 40
0.1111111111111111
 40
0.1111111111111111
 40
0.2222222222222222
 40
0.2222222222222222
 40
0.2222222222222222
 40
0.2222222222222222
 40
0.3333333333333333
 40
0.3333333333333333
 40
0.3333333333333333
 40
0.3333333333333333
 40
0.4444444444444444
 40
0.4444444444444444
 40
0.4444444444444444
 40
0.4444444444444444
 40
0.5555555555555556
 40
0.5555555555555556
 40
0.5555555555555556
 40
0.5555555555555556
 40
0.6666666666666666
 40
0.6666666666666666
 40
0.6666666666666666
 40
0.6666666666666666
 40
0.7777777777777778
 40
0.7777777777777778
 40
0.7777777777777778
 40
0.7777777777777778
 40
1.0
 40
1.0
 40
1.0
 40
1.0
 10
-9.12689
 20
14.39483
 30
0.0
 10
-9.12689
 20
14.39483
 30
0.0
 10
-10.33964
 20
14.39483
 30
0.0
 10
-10.33964
 20
14.39483
 30
0.0
 10
-10.33964
 20
14.39483
 30
0.0
 10
-10.33964
 20
14.39483
 30
0.0
 10
-10.33964
 20
13.12386
 30
0.0
 10
-10.33964
 20
13.12386
 30
0.0
 10
-10.33964
 20
13.12386
 30
0.0
 10
-10.33964
 20
13.12386
 30
0.0
 10
-10.33964
 20
11.85283
 30
0.0
 10
-10.33964
 20
11.85283
 30
0.0
 10
-10.33964
 20
11.85283
 30
0.0
 10
-10.33964
 20
11.85283
 30
0.0
 10
-9.12689
 20
11.85283
 30
0.0
 10
-9.12689
 20
11.85283
 30
0.0
 10
-9.12689
 20
11.85283
 30
0.0
 10
-9.12689
 20
11.85283
 30
0.0
 10
-7.91414
 20
11.85283
 30
0.0
 10
-7.91414
 20
11.85283
 30
0.0
 10
-7.91414
 20
11.85283
 30
0.0
 10
-7.91414
 20
11.85283
 30
0.0
 10
-7.91414
 20
13.12386
 30
0.0
 10
-7.91414
 20
13.12386
 30
0.0
 10
-7.91414
 20
13.12386
 30
0.0
 10
-7.91414
 20
13.12386
 30
0.0
 10
-7.91414
 20
14.39483
 30
0.0
 10
-7.91414
 20
14.39483
 30
0.0
 10
-7.91414
 20
14.39483
 30
0.0
 10
-7.91414
 20
14.39483
 30
0.0
 10
-9.12689
 20
14.39483
 30
0.0
 10
-9.12689
 20
14.39483
 30
0.0
  0
SPLINE
  5
46
330
1F
100
AcDbEntity
  8
Layer 1
 62
   177
100
AcDbSpline
210
0.0
220
0.0
230
1.0
 70
    11
 71
     3
 72
    68
 73
    64
 74
     0
 42
0.0000000001
 43
0.0000000001
 12
1.0
 22
0.0
 32
0.0
 13
1.0
 23
0.0
 33
0.0
 40
0.0
 40
0.0
 40
0.0
 40
0.0
 40
0.0588235294117647
 40
0.0588235294117647
 40
0.0588235294117647
 40
0.0588235294117647
 40
0.1176470588235294
 40
0.1176470588235294
 40
0.1176470588235294
 40
0.1176470588235294
 40
0.1764705882352941
 40
0.1764705882352941
 40
0.1764705882352941
 40
0.1764705882352941
 40
0.2352941176470588
 40
0.2352941176470588
 40
0.2352941176470588
 40
0.2352941176470588
 40
0.2941176470588235
 40
0.2941176470588235
 40
0.2941176470588235
 40
0.2941176470588235
 40
0.3529411764705883
 40
0.3529411764705883
 40
0.3529411764705883
 40
0.3529411764705883
 40
0.4117647058823529
 40
0.4117647058823529
 40
0.4117647058823529
 40
0.4117647058823529
 40
0.4705882352941176
 40
0.4705882352941176
 40
0.4705882352941176
 40
0.4705882352941176
 40
0.5294117647058824
 40
0.5294117647058824
 40
0.5294117647058824
 40
0.5294117647058824
 40
0.5882352941176471
 40
0.5882352941176471
 40
0.5882352941176471
 40
0.5882352941176471
 40
0.6470588235294118
 40
0.6470588235294118
 40
0.6470588235294118
 40
0.6470588235294118
 40
0.7058823529411765
 40
0.7058823529411765
 40
0.7058823529411765
 40
0.7058823529411765
 40
0.7647058823529411
 40
0.7647058823529411
 40
0.7647058823529411
 40
0.7647058823529411
 40
0.8235294117647058
 40
0.8235294117647058
 40
0.8235294117647058
 40
0.8235294117647058
 40
0.8823529411764706
 40
0.8823529411764706
 40
0.8823529411764706
 40
0.8823529411764706
 40
1.0
 40
1.0
 40
1.0
 40
1.0
 10
-9.12689
 20
6.67221
 30
0.0
 10
-9.12689
 20
6.67221
 30
0.0
 10
-9.12466
 20
6.67221
 30
0.0
 10
-9.12466
 20
6.67221
 30
0.0
 10
-9.12466
 20
6.67221
 30
0.0
 10
-9.12466
 20
6.67221
 30
0.0
 10
-9.12246
 20
6.67221
 30
0.0
 10
-9.12246
 20
6.67221
 30
0.0
 10
-9.12246
 20
6.67221
 30
0.0
 10
-9.05865
 20
6.67197
 30
0.0
 10
-8.9954
 20
6.66107
 30
0.0
 10
-8.93518
 20
6.6401
 30
0.0
 10
-8.93518
 20
6.6401
 30
0.0
 10
-8.87509
 20
6.61911
 30
0.0
 10
-8.81827
 20
6.58974
 30
0.0
 10
-8.76643
 20
6.55288
 30
0.0
 10
-8.76643
 20
6.55288
 30
0.0
 10
-8.76643
 20
6.55288
 30
0.0
 10
-7.42373
 20
8.95112
 30
0.0
 10
-7.42373
 20
8.95112
 30
0.0
 10
-7.42373
 20
8.95112
 30
0.0
 10
-7.42373
 20
8.95112
 30
0.0
 10
-8.50783
 20
11.48543
 30
0.0
 10
-8.50783
 20
11.48543
 30
0.0
 10
-8.50783
 20
11.48543
 30
0.0
 10
-8.50783
 20
11.48543
 30
0.0
 10
-8.53445
 20
11.54779
 30
0.0
 10
-8.53445
 20
11.54779
 30
0.0
 10
-8.53445
 20
11.54779
 30
0.0
 10
-8.53445
 20
11.54779
 30
0.0
 10
-9.12689
 20
11.54779
 30
0.0
 10
-9.12689
 20
11.54779
 30
0.0
 10
-9.12689
 20
11.54779
 30
0.0
 10
-9.12689
 20
11.54779
 30
0.0
 10
-9.7193
 20
11.54779
 30
0.0
 10
-9.7193
 20
11.54779
 30
0.0
 10
-9.7193
 20
11.54779
 30
0.0
 10
-9.7193
 20
11.54779
 30
0.0
 10
-9.74595
 20
11.48543
 30
0.0
 10
-9.74595
 20
11.48543
 30
0.0
 10
-9.74595
 20
11.48543
 30
0.0
 10
-9.74595
 20
11.48543
 30
0.0
 10
-10.83005
 20
8.95112
 30
0.0
 10
-10.83005
 20
8.95112
 30
0.0
 10
-10.83005
 20
8.95112
 30
0.0
 10
-10.83005
 20
8.95112
 30
0.0
 10
-9.48735
 20
6.55288
 30
0.0
 10
-9.48735
 20
6.55288
 30
0.0
 10
-9.48735
 20
6.55288
 30
0.0
 10
-9.43549
 20
6.58974
 30
0.0
 10
-9.37869
 20
6.61911
 30
0.0
 10
-9.3186
 20
6.6401
 30
0.0
 10
-9.3186
 20
6.6401
 30
0.0
 10
-9.25838
 20
6.66107
 30
0.0
 10
-9.19513
 20
6.67197
 30
0.0
 10
-9.13132
 20
6.67221
 30
0.0
 10
-9.13132
 20
6.67221
 30
0.0
 10
-9.13132
 20
6.67221
 30
0.0
 10
-9.12912
 20
6.67221
 30
0.0
 10
-9.12912
 20
6.67221
 30
0.0
 10
-9.12912
 20
6.67221
 30
0.0
 10
-9.12912
 20
6.67221
 30
0.0
 10
-9.12689
 20
6.67221
 30
0.0
 10
-9.12689
 20
6.67221
 30
0.0
  0
SPLINE
  5
47
330
1F
100
AcDbEntity
  8
Layer 1
 62
   177
100
AcDbSpline
210
0.0
220
0.0
230
1.0
 70
    11
 71
     3
 72
    24
 73
    20
 74
     0
 42
0.0000000001
 43
0.0000000001
 12
1.0
 22
0.0
 32
0.0
 13
1.0
 23
0.0
 33
0.0
 40
0.0
 40
0.0
 40
0.0
 40
0.0
 40
0.1666666666666667
 40
0.1666666666666667
 40
0.1666666666666667
 40
0.1666666666666667
 40
0.3333333333333333
 40
0.3333333333333333
 40
0.3333333333333333
 40
0.3333333333333333
 40
0.5
 40
0.5
 40
0.5
 40
0.5
 40
0.6666666666666666
 40
0.6666666666666666
 40
0.6666666666666666
 40
0.6666666666666666
 40
1.0
 40
1.0
 40
1.0
 40
1.0
 10
-10.0383
 20
11.54779
 30
0.0
 10
-10.0383
 20
11.54779
 30
0.0
 10
-10.63073
 20
11.54779
 30
0.0
 10
-10.63073
 20
11.54779
 30
0.0
 10
-10.63073
 20
11.54779
 30
0.0
 10
-10.63073
 20
11.54779
 30
0.0
 10
-10.63073
 20
12.97133
 30
0.0
 10
-10.63073
 20
12.97133
 30
0.0
 10
-10.63073
 20
12.97133
 30
0.0
 10
-10.63073
 20
12.97133
 30
0.0
 10
-13.08075
 20
12.97129
 30
0.0
 10
-13.08075
 20
12.97129
 30
0.0
 10
-13.08075
 20
12.97129
 30
0.0
 10
-13.08075
 20
12.97129
 30
0.0
 10
-11.01085
 20
9.27413
 30
0.0
 10
-11.01085
 20
9.27413
 30
0.0
 10
-11.01085
 20
9.27413
 30
0.0
 10
-11.01085
 20
9.27413
 30
0.0
 10
-10.0383
 20
11.54779
 30
0.0
 10
-10.0383
 20
11.54779
 30
0.0
  0
SPLINE
  5
48
330
1F
100
AcDbEntity
  8
Layer 1
 62
   177
100
AcDbSpline
210
0.0
220
0.0
230
1.0
 70
    11
 71
     3
 72
    56
 73
    52
 74
     0
 42
0.0000000001
 43
0.0000000001
 12
1.0
 22
0.0
 32
0.0
 13
1.0
 23
0.0
 33
0.0
 40
0.0
 40
0.0
 40
0.0
 40
0.0
 40
0.0714285714285714
 40
0.0714285714285714
 40
0.0714285714285714
 40
0.0714285714285714
 40
0.1428571428571428
 40
0.1428571428571428
 40
0.1428571428571428
 40
0.1428571428571428
 40
0.2142857142857143
 40
0.2142857142857143
 40
0.2142857142857143
 40
0.2142857142857143
 40
0.2857142857142857
 40
0.2857142857142857
 40
0.2857142857142857
 40
0.2857142857142857
 40
0.3571428571428572
 40
0.3571428571428572
 40
0.3571428571428572
 40
0.3571428571428572
 40
0.4285714285714285
 40
0.4285714285714285
 40
0.4285714285714285
 40
0.4285714285714285
 40
0.5
 40
0.5
 40
0.5
 40
0.5
 40
0.5714285714285714
 40
0.5714285714285714
 40
0.5714285714285714
 40
0.5714285714285714
 40
0.6428571428571429
 40
0.6428571428571429
 40
0.6428571428571429
 40
0.6428571428571429
 40
0.7142857142857143
 40
0.7142857142857143
 40
0.7142857142857143
 40
0.7142857142857143
 40
0.7857142857142857
 40
0.7857142857142857
 40
0.7857142857142857
 40
0.7857142857142857
 40
0.8571428571428571
 40
0.8571428571428571
 40
0.8571428571428571
 40
0.8571428571428571
 40
1.0
 40
1.0
 40
1.0
 40
1.0
 10
-8.55347
 20
4.88457
 30
0.0
 10
-8.55347
 20
4.88457
 30
0.0
 10
-7.27756
 20
2.60564
 30
0.0
 10
-7.27756
 20
2.60564
 30
0.0
 10
-7.27756
 20
2.60564
 30
0.0
 10
-7.27756
 20
2.60564
 30
0.0
 10
-6.64098
 20
4.09391
 30
0.0
 10
-6.64098
 20
4.09391
 30
0.0
 10
-6.64098
 20
4.09391
 30
0.0
 10
-6.64098
 20
4.09391
 30
0.0
 10
-6.50817
 20
4.38902
 30
0.0
 10
-6.50817
 20
4.38902
 30
0.0
 10
-6.50817
 20
4.38902
 30
0.0
 10
-6.50817
 20
4.38902
 30
0.0
 10
-6.50817
 20
5.60754
 30
0.0
 10
-6.50817
 20
5.60754
 30
0.0
 10
-6.50817
 20
5.60754
 30
0.0
 10
-6.50817
 20
5.60754
 30
0.0
 10
-6.50817
 20
6.82604
 30
0.0
 10
-6.50817
 20
6.82604
 30
0.0
 10
-6.50817
 20
6.82604
 30
0.0
 10
-6.50817
 20
6.82604
 30
0.0
 10
-6.64098
 20
7.12119
 30
0.0
 10
-6.64098
 20
7.12119
 30
0.0
 10
-6.64098
 20
7.12119
 30
0.0
 10
-6.64098
 20
7.12119
 30
0.0
 10
-7.27756
 20
8.60945
 30
0.0
 10
-7.27756
 20
8.60945
 30
0.0
 10
-7.27756
 20
8.60945
 30
0.0
 10
-7.27756
 20
8.60945
 30
0.0
 10
-8.55347
 20
6.3304
 30
0.0
 10
-8.55347
 20
6.3304
 30
0.0
 10
-8.55347
 20
6.3304
 30
0.0
 10
-8.48205
 20
6.22472
 30
0.0
 10
-8.42891
 20
6.10772
 30
0.0
 10
-8.39625
 20
5.98445
 30
0.0
 10
-8.39625
 20
5.98445
 30
0.0
 10
-8.36364
 20
5.86146
 30
0.0
 10
-8.3473
 20
5.73474
 30
0.0
 10
-8.34748
 20
5.60754
 30
0.0
 10
-8.34748
 20
5.60754
 30
0.0
 10
-8.34728
 20
5.48033
 30
0.0
 10
-8.36365
 20
5.35358
 30
0.0
 10
-8.39625
 20
5.23062
 30
0.0
 10
-8.39625
 20
5.23062
 30
0.0
 10
-8.42891
 20
5.10729
 30
0.0
 10
-8.48205
 20
4.99031
 30
0.0
 10
-8.55347
 20
4.88457
 30
0.0
 10
-8.55347
 20
4.88457
 30
0.0
 10
-8.55347
 20
4.88457
 30
0.0
 10
-8.55347
 20
4.88457
 30
0.0
 10
-8.55347
 20
4.88457
 30
0.0
  0
SPLINE
  5
49
330
1F
100
AcDbEntity
  8
Layer 1
 62
   177
100
AcDbSpline
210
0.0
220
0.0
230
1.0
 70
    11
 71
     3
 72
    28
 73
    24
 74
     0
 42
0.0000000001
 43
0.0000000001
 12
1.0
 22
0.0
 32
0.0
 13
1.0
 23
0.0
 33
0.0
 40
0.0
 40
0.0
 40
0.0
 40
0.0
 40
0.1428571428571428
 40
0.1428571428571428
 40
0.1428571428571428
 40
0.1428571428571428
 40
0.2857142857142857
 40
0.2857142857142857
 40
0.2857142857142857
 40
0.2857142857142857
 40
0.4285714285714285
 40
0.4285714285714285
 40
0.4285714285714285
 40
0.4285714285714285
 40
0.5714285714285714
 40
0.5714285714285714
 40
0.5714285714285714
 40
0.5714285714285714
 40
0.7142857142857143
 40
0.7142857142857143
 40
0.7142857142857143
 40
0.7142857142857143
 40
1.0
 40
1.0
 40
1.0
 40
1.0
 10
-5.00428
 20
-1.45479
 30
0.0
 10
-5.00428
 20
-1.45479
 30
0.0
 10
-5.00428
 20
4.03153
 30
0.0
 10
-5.00428
 20
4.03153
 30
0.0
 10
-5.00428
 20
4.03153
 30
0.0
 10
-5.00428
 20
4.03153
 30
0.0
 10
-6.34865
 20
4.03153
 30
0.0
 10
-6.34865
 20
4.03153
 30
0.0
 10
-6.34865
 20
4.03153
 30
0.0
 10
-6.34865
 20
4.03153
 30
0.0
 10
-6.37532
 20
3.96913
 30
0.0
 10
-6.37532
 20
3.96913
 30
0.0
 10
-6.37532
 20
3.96913
 30
0.0
 10
-6.37532
 20
3.96913
 30
0.0
 10
-7.09674
 20
2.28267
 30
0.0
 10
-7.09674
 20
2.28267
 30
0.0
 10
-7.09674
 20
2.28267
 30
0.0
 10
-7.09674
 20
2.28267
 30
0.0
 10
-5.00428
 20
-1.45486
 30
0.0
 10
-5.00428
 20
-1.45486
 30
0.0
 10
-5.00428
 20
-1.45486
 30
0.0
 10
-5.00428
 20
-1.45486
 30
0.0
 10
-5.00428
 20
-1.45479
 30
0.0
 10
-5.00428
 20
-1.45479
 30
0.0
  0
SPLINE
  5
4A
330
1F
100
AcDbEntity
  8
Layer 1
 62
   177
100
AcDbSpline
210
0.0
220
0.0
230
1.0
 70
    11
 71
     3
 72
    24
 73
    20
 74
     0
 42
0.0000000001
 43
0.0000000001
 12
1.0
 22
0.0
 32
0.0
 13
1.0
 23
0.0
 33
0.0
 40
0.0
 40
0.0
 40
0.0
 40
0.0
 40
0.1666666666666667
 40
0.1666666666666667
 40
0.1666666666666667
 40
0.1666666666666667
 40
0.3333333333333333
 40
0.3333333333333333
 40
0.3333333333333333
 40
0.3333333333333333
 40
0.5
 40
0.5
 40
0.5
 40
0.5
 40
0.6666666666666666
 40
0.6666666666666666
 40
0.6666666666666666
 40
0.6666666666666666
 40
1.0
 40
1.0
 40
1.0
 40
1.0
 10
-8.21548
 20
-0.33273
 30
0.0
 10
-8.21548
 20
-0.33273
 30
0.0
 10
-7.62305
 20
-0.33273
 30
0.0
 10
-7.62305
 20
-0.33273
 30
0.0
 10
-7.62305
 20
-0.33273
 30
0.0
 10
-7.62305
 20
-0.33273
 30
0.0
 10
-7.62305
 20
-1.75621
 30
0.0
 10
-7.62305
 20
-1.75621
 30
0.0
 10
-7.62305
 20
-1.75621
 30
0.0
 10
-7.62305
 20
-1.75621
 30
0.0
 10
-5.17303
 20
-1.75621
 30
0.0
 10
-5.17303
 20
-1.75621
 30
0.0
 10
-5.17303
 20
-1.75621
 30
0.0
 10
-5.17303
 20
-1.75621
 30
0.0
 10
-7.2429
 20
1.94093
 30
0.0
 10
-7.2429
 20
1.94093
 30
0.0
 10
-7.2429
 20
1.94093
 30
0.0
 10
-7.2429
 20
1.94093
 30
0.0
 10
-8.21548
 20
-0.33273
 30
0.0
 10
-8.21548
 20
-0.33273
 30
0.0
  0
SPLINE
  5
4B
330
1F
100
AcDbEntity
  8
Layer 1
 62
   177
100
AcDbSpline
210
0.0
220
0.0
230
1.0
 70
    11
 71
     3
 72
    28
 73
    24
 74
     0
 42
0.0000000001
 43
0.0000000001
 12
1.0
 22
0.0
 32
0.0
 13
1.0
 23
0.0
 33
0.0
 40
0.0
 40
0.0
 40
0.0
 40
0.0
 40
0.1428571428571428
 40
0.1428571428571428
 40
0.1428571428571428
 40
0.1428571428571428
 40
0.2857142857142857
 40
0.2857142857142857
 40
0.2857142857142857
 40
0.2857142857142857
 40
0.4285714285714285
 40
0.4285714285714285
 40
0.4285714285714285
 40
0.4285714285714285
 40
0.5714285714285714
 40
0.5714285714285714
 40
0.5714285714285714
 40
0.5714285714285714
 40
0.7142857142857143
 40
0.7142857142857143
 40
0.7142857142857143
 40
0.7142857142857143
 40
1.0
 40
1.0
 40
1.0
 40
1.0
 10
-5.00433
 20
4.33654
 30
0.0
 10
-5.00433
 20
4.33654
 30
0.0
 10
-5.00433
 20
6.8785
 30
0.0
 10
-5.00433
 20
6.8785
 30
0.0
 10
-5.00433
 20
6.8785
 30
0.0
 10
-5.00433
 20
6.8785
 30
0.0
 10
-6.21708
 20
6.8785
 30
0.0
 10
-6.21708
 20
6.8785
 30
0.0
 10
-6.21708
 20
6.8785
 30
0.0
 10
-6.21708
 20
6.8785
 30
0.0
 10
-6.21707
 20
5.60754
 30
0.0
 10
-6.21707
 20
5.60754
 30
0.0
 10
-6.21707
 20
5.60754
 30
0.0
 10
-6.21707
 20
5.60754
 30
0.0
 10
-6.21707
 20
4.33654
 30
0.0
 10
-6.21707
 20
4.33654
 30
0.0
 10
-6.21707
 20
4.33654
 30
0.0
 10
-6.21707
 20
4.33654
 30
0.0
 10
-5.00428
 20
4.33654
 30
0.0
 10
-5.00428
 20
4.33654
 30
0.0
 10
-5.00428
 20
4.33654
 30
0.0
 10
-5.00428
 20
4.33654
 30
0.0
 10
-5.00433
 20
4.33654
 30
0.0
 10
-5.00433
 20
4.33654
 30
0.0
  0
SPLINE
  5
4C
330
1F
100
AcDbEntity
  8
Layer 1
 62
   177
100
AcDbSpline
210
0.0
220
0.0
230
1.0
 70
    11
 71
     3
 72
    28
 73
    24
 74
     0
 42
0.0000000001
 43
0.0000000001
 12
1.0
 22
0.0
 32
0.0
 13
1.0
 23
0.0
 33
0.0
 40
0.0
 40
0.0
 40
0.0
 40
0.0
 40
0.1428571428571428
 40
0.1428571428571428
 40
0.1428571428571428
 40
0.1428571428571428
 40
0.2857142857142857
 40
0.2857142857142857
 40
0.2857142857142857
 40
0.2857142857142857
 40
0.4285714285714285
 40
0.4285714285714285
 40
0.4285714285714285
 40
0.4285714285714285
 40
0.5714285714285714
 40
0.5714285714285714
 40
0.5714285714285714
 40
0.5714285714285714
 40
0.7142857142857143
 40
0.7142857142857143
 40
0.7142857142857143
 40
0.7142857142857143
 40
1.0
 40
1.0
 40
1.0
 40
1.0
 10
-5.00433
 20
12.66992
 30
0.0
 10
-5.00433
 20
12.66992
 30
0.0
 10
-5.00433
 20
7.18355
 30
0.0
 10
-5.00433
 20
7.18355
 30
0.0
 10
-5.00433
 20
7.18355
 30
0.0
 10
-5.00433
 20
7.18355
 30
0.0
 10
-6.34865
 20
7.18355
 30
0.0
 10
-6.34865
 20
7.18355
 30
0.0
 10
-6.34865
 20
7.18355
 30
0.0
 10
-6.34865
 20
7.18355
 30
0.0
 10
-6.37532
 20
7.24594
 30
0.0
 10
-6.37532
 20
7.24594
 30
0.0
 10
-6.37532
 20
7.24594
 30
0.0
 10
-6.37532
 20
7.24594
 30
0.0
 10
-7.09674
 20
8.93242
 30
0.0
 10
-7.09674
 20
8.93242
 30
0.0
 10
-7.09674
 20
8.93242
 30
0.0
 10
-7.09674
 20
8.93242
 30
0.0
 10
-5.00433
 20
12.66992
 30
0.0
 10
-5.00433
 20
12.66992
 30
0.0
 10
-5.00433
 20
12.66992
 30
0.0
 10
-5.00433
 20
12.66992
 30
0.0
 10
-5.00433
 20
12.66992
 30
0.0
 10
-5.00433
 20
12.66992
 30
0.0
  0
SPLINE
  5
4D
330
1F
100
AcDbEntity
  8
Layer 1
 62
   177
100
AcDbSpline
210
0.0
220
0.0
230
1.0
 70
    11
 71
     3
 72
    24
 73
    20
 74
     0
 42
0.0000000001
 43
0.0000000001
 12
1.0
 22
0.0
 32
0.0
 13
1.0
 23
0.0
 33
0.0
 40
0.0
 40
0.0
 40
0.0
 40
0.0
 40
0.1666666666666667
 40
0.1666666666666667
 40
0.1666666666666667
 40
0.1666666666666667
 40
0.3333333333333333
 40
0.3333333333333333
 40
0.3333333333333333
 40
0.3333333333333333
 40
0.5
 40
0.5
 40
0.5
 40
0.5
 40
0.6666666666666666
 40
0.6666666666666666
 40
0.6666666666666666
 40
0.6666666666666666
 40
1.0
 40
1.0
 40
1.0
 40
1.0
 10
-8.21548
 20
11.54779
 30
0.0
 10
-8.21548
 20
11.54779
 30
0.0
 10
-7.62305
 20
11.54779
 30
0.0
 10
-7.62305
 20
11.54779
 30
0.0
 10
-7.62305
 20
11.54779
 30
0.0
 10
-7.62305
 20
11.54779
 30
0.0
 10
-7.62305
 20
12.97133
 30
0.0
 10
-7.62305
 20
12.97133
 30
0.0
 10
-7.62305
 20
12.97133
 30
0.0
 10
-7.62305
 20
12.97133
 30
0.0
 10
-5.17303
 20
12.97133
 30
0.0
 10
-5.17303
 20
12.97133
 30
0.0
 10
-5.17303
 20
12.97133
 30
0.0
 10
-5.17303
 20
12.97133
 30
0.0
 10
-7.24293
 20
9.27413
 30
0.0
 10
-7.24293
 20
9.27413
 30
0.0
 10
-7.24293
 20
9.27413
 30
0.0
 10
-7.24293
 20
9.27413
 30
0.0
 10
-8.21548
 20
11.54779
 30
0.0
 10
-8.21548
 20
11.54779
 30
0.0
  0
SPLINE
  5
4E
330
1F
100
AcDbEntity
  8
Layer 1
 62
   177
100
AcDbSpline
210
0.0
220
0.0
230
1.0
 70
    11
 71
     3
 72
    24
 73
    20
 74
     0
 42
0.0000000001
 43
0.0000000001
 12
1.0
 22
0.0
 32
0.0
 13
1.0
 23
0.0
 33
0.0
 40
0.0
 40
0.0
 40
0.0
 40
0.0
 40
0.1666666666666667
 40
0.1666666666666667
 40
0.1666666666666667
 40
0.1666666666666667
 40
0.3333333333333333
 40
0.3333333333333333
 40
0.3333333333333333
 40
0.3333333333333333
 40
0.5
 40
0.5
 40
0.5
 40
0.5
 40
0.6666666666666666
 40
0.6666666666666666
 40
0.6666666666666666
 40
0.6666666666666666
 40
1.0
 40
1.0
 40
1.0
 40
1.0
 10
-10.0383
 20
-3.48476
 30
0.0
 10
-10.0383
 20
-3.48476
 30
0.0
 10
-10.63073
 20
-3.48476
 30
0.0
 10
-10.63073
 20
-3.48476
 30
0.0
 10
-10.63073
 20
-3.48476
 30
0.0
 10
-10.63073
 20
-3.48476
 30
0.0
 10
-10.63073
 20
-2.06124
 30
0.0
 10
-10.63073
 20
-2.06124
 30
0.0
 10
-10.63073
 20
-2.06124
 30
0.0
 10
-10.63073
 20
-2.06124
 30
0.0
 10
-13.08075
 20
-2.06124
 30
0.0
 10
-13.08075
 20
-2.06124
 30
0.0
 10
-13.08075
 20
-2.06124
 30
0.0
 10
-13.08075
 20
-2.06124
 30
0.0
 10
-11.01085
 20
-5.75852
 30
0.0
 10
-11.01085
 20
-5.75852
 30
0.0
 10
-11.01085
 20
-5.75852
 30
0.0
 10
-11.01085
 20
-5.75852
 30
0.0
 10
-10.0383
 20
-3.48476
 30
0.0
 10
-10.0383
 20
-3.48476
 30
0.0
  0
SPLINE
  5
4F
330
1F
100
AcDbEntity
  8
Layer 1
 62
   177
100
AcDbSpline
210
0.0
220
0.0
230
1.0
 70
    11
 71
     3
 72
    24
 73
    20
 74
     0
 42
0.0000000001
 43
0.0000000001
 12
1.0
 22
0.0
 32
0.0
 13
1.0
 23
0.0
 33
0.0
 40
0.0
 40
0.0
 40
0.0
 40
0.0
 40
0.1666666666666667
 40
0.1666666666666667
 40
0.1666666666666667
 40
0.1666666666666667
 40
0.3333333333333333
 40
0.3333333333333333
 40
0.3333333333333333
 40
0.3333333333333333
 40
0.5
 40
0.5
 40
0.5
 40
0.5
 40
0.6666666666666666
 40
0.6666666666666666
 40
0.6666666666666666
 40
0.6666666666666666
 40
1.0
 40
1.0
 40
1.0
 40
1.0
 10
-8.21548
 20
-3.48476
 30
0.0
 10
-8.21548
 20
-3.48476
 30
0.0
 10
-7.62305
 20
-3.48476
 30
0.0
 10
-7.62305
 20
-3.48476
 30
0.0
 10
-7.62305
 20
-3.48476
 30
0.0
 10
-7.62305
 20
-3.48476
 30
0.0
 10
-7.62305
 20
-2.06124
 30
0.0
 10
-7.62305
 20
-2.06124
 30
0.0
 10
-7.62305
 20
-2.06124
 30
0.0
 10
-7.62305
 20
-2.06124
 30
0.0
 10
-5.17303
 20
-2.06124
 30
0.0
 10
-5.17303
 20
-2.06124
 30
0.0
 10
-5.17303
 20
-2.06124
 30
0.0
 10
-5.17303
 20
-2.06124
 30
0.0
 10
-7.2429
 20
-5.75852
 30
0.0
 10
-7.2429
 20
-5.75852
 30
0.0
 10
-7.2429
 20
-5.75852
 30
0.0
 10
-7.2429
 20
-5.75852
 30
0.0
 10
-8.21548
 20
-3.48476
 30
0.0
 10
-8.21548
 20
-3.48476
 30
0.0
  0
SPLINE
  5
50
330
1F
100
AcDbEntity
  8
Layer 1
 62
   177
100
AcDbSpline
210
0.0
220
0.0
230
1.0
 70
    11
 71
     3
 72
    24
 73
    20
 74
     0
 42
0.0000000001
 43
0.0000000001
 12
1.0
 22
0.0
 32
0.0
 13
1.0
 23
0.0
 33
0.0
 40
0.0
 40
0.0
 40
0.0
 40
0.0
 40
0.1666666666666667
 40
0.1666666666666667
 40
0.1666666666666667
 40
0.1666666666666667
 40
0.3333333333333333
 40
0.3333333333333333
 40
0.3333333333333333
 40
0.3333333333333333
 40
0.5
 40
0.5
 40
0.5
 40
0.5
 40
0.6666666666666666
 40
0.6666666666666666
 40
0.6666666666666666
 40
0.6666666666666666
 40
1.0
 40
1.0
 40
1.0
 40
1.0
 10
-10.0383
 20
14.69988
 30
0.0
 10
-10.0383
 20
14.69988
 30
0.0
 10
-10.63073
 20
14.69988
 30
0.0
 10
-10.63073
 20
14.69988
 30
0.0
 10
-10.63073
 20
14.69988
 30
0.0
 10
-10.63073
 20
14.69988
 30
0.0
 10
-10.63073
 20
13.27634
 30
0.0
 10
-10.63073
 20
13.27634
 30
0.0
 10
-10.63073
 20
13.27634
 30
0.0
 10
-10.63073
 20
13.27634
 30
0.0
 10
-13.08075
 20
13.27634
 30
0.0
 10
-13.08075
 20
13.27634
 30
0.0
 10
-13.08075
 20
13.27634
 30
0.0
 10
-13.08075
 20
13.27634
 30
0.0
 10
-11.01085
 20
16.97359
 30
0.0
 10
-11.01085
 20
16.97359
 30
0.0
 10
-11.01085
 20
16.97359
 30
0.0
 10
-11.01085
 20
16.97359
 30
0.0
 10
-10.0383
 20
14.69988
 30
0.0
 10
-10.0383
 20
14.69988
 30
0.0
  0
SPLINE
  5
51
330
1F
100
AcDbEntity
  8
Layer 1
 62
   177
100
AcDbSpline
210
0.0
220
0.0
230
1.0
 70
    11
 71
     3
 72
    24
 73
    20
 74
     0
 42
0.0000000001
 43
0.0000000001
 12
1.0
 22
0.0
 32
0.0
 13
1.0
 23
0.0
 33
0.0
 40
0.0
 40
0.0
 40
0.0
 40
0.0
 40
0.1666666666666667
 40
0.1666666666666667
 40
0.1666666666666667
 40
0.1666666666666667
 40
0.3333333333333333
 40
0.3333333333333333
 40
0.3333333333333333
 40
0.3333333333333333
 40
0.5
 40
0.5
 40
0.5
 40
0.5
 40
0.6666666666666666
 40
0.6666666666666666
 40
0.6666666666666666
 40
0.6666666666666666
 40
1.0
 40
1.0
 40
1.0
 40
1.0
 10
-8.21548
 20
14.69988
 30
0.0
 10
-8.21548
 20
14.69988
 30
0.0
 10
-7.62305
 20
14.69988
 30
0.0
 10
-7.62305
 20
14.69988
 30
0.0
 10
-7.62305
 20
14.69988
 30
0.0
 10
-7.62305
 20
14.69988
 30
0.0
 10
-7.62305
 20
13.27634
 30
0.0
 10
-7.62305
 20
13.27634
 30
0.0
 10
-7.62305
 20
13.27634
 30
0.0
 10
-7.62305
 20
13.27634
 30
0.0
 10
-5.17303
 20
13.27634
 30
0.0
 10
-5.17303
 20
13.27634
 30
0.0
 10
-5.17303
 20
13.27634
 30
0.0
 10
-5.17303
 20
13.27634
 30
0.0
 10
-7.2429
 20
16.97359
 30
0.0
 10
-7.2429
 20
16.97359
 30
0.0
 10
-7.2429
 20
16.97359
 30
0.0
 10
-7.2429
 20
16.97359
 30
0.0
 10
-8.21548
 20
14.69988
 30
0.0
 10
-8.21548
 20
14.69988
 30
0.0
  0
SPLINE
  5
52
330
1F
100
AcDbEntity
  8
Layer 1
 62
   177
100
AcDbSpline
210
0.0
220
0.0
230
1.0
 70
    11
 71
     3
 72
    32
 73
    28
 74
     0
 42
0.0000000001
 43
0.0000000001
 12
1.0
 22
0.0
 32
0.0
 13
1.0
 23
0.0
 33
0.0
 40
0.0
 40
0.0
 40
0.0
 40
0.0
 40
0.125
 40
0.125
 40
0.125
 40
0.125
 40
0.25
 40
0.25
 40
0.25
 40
0.25
 40
0.375
 40
0.375
 40
0.375
 40
0.375
 40
0.5
 40
0.5
 40
0.5
 40
0.5
 40
0.625
 40
0.625
 40
0.625
 40
0.625
 40
0.75
 40
0.75
 40
0.75
 40
0.75
 40
1.0
 40
1.0
 40
1.0
 40
1.0
 10
-10.82767
 20
-6.07589
 30
0.0
 10
-10.82767
 20
-6.07589
 30
0.0
 10
-9.74595
 20
-3.54718
 30
0.0
 10
-9.74595
 20
-3.54718
 30
0.0
 10
-9.74595
 20
-3.54718
 30
0.0
 10
-9.74595
 20
-3.54718
 30
0.0
 10
-9.71924
 20
-3.48476
 30
0.0
 10
-9.71924
 20
-3.48476
 30
0.0
 10
-9.71924
 20
-3.48476
 30
0.0
 10
-9.71924
 20
-3.48476
 30
0.0
 10
-9.12689
 20
-3.48476
 30
0.0
 10
-9.12689
 20
-3.48476
 30
0.0
 10
-9.12689
 20
-3.48476
 30
0.0
 10
-9.12689
 20
-3.48476
 30
0.0
 10
-8.53445
 20
-3.48476
 30
0.0
 10
-8.53445
 20
-3.48476
 30
0.0
 10
-8.53445
 20
-3.48476
 30
0.0
 10
-8.53445
 20
-3.48476
 30
0.0
 10
-8.50783
 20
-3.54718
 30
0.0
 10
-8.50783
 20
-3.54718
 30
0.0
 10
-8.50783
 20
-3.54718
 30
0.0
 10
-8.50783
 20
-3.54718
 30
0.0
 10
-7.42611
 20
-6.07589
 30
0.0
 10
-7.42611
 20
-6.07589
 30
0.0
 10
-7.42611
 20
-6.07589
 30
0.0
 10
-7.42611
 20
-6.07589
 30
0.0
 10
-10.82767
 20
-6.07589
 30
0.0
 10
-10.82767
 20
-6.07589
 30
0.0
  0
SPLINE
  5
53
330
1F
100
AcDbEntity
  8
Layer 1
 62
   177
100
AcDbSpline
210
0.0
220
0.0
230
1.0
 70
    11
 71
     3
 72
    20
 73
    16
 74
     0
 42
0.0000000001
 43
0.0000000001
 12
1.0
 22
0.0
 32
0.0
 13
1.0
 23
0.0
 33
0.0
 40
0.0
 40
0.0
 40
0.0
 40
0.0
 40
0.2
 40
0.2
 40
0.2
 40
0.2
 40
0.4
 40
0.4
 40
0.4
 40
0.4
 40
0.6
 40
0.6
 40
0.6
 40
0.6
 40
1.0
 40
1.0
 40
1.0
 40
1.0
 10
-5.00428
 20
-2.36269
 30
0.0
 10
-5.00428
 20
-2.36269
 30
0.0
 10
-5.00428
 20
-6.07589
 30
0.0
 10
-5.00428
 20
-6.07589
 30
0.0
 10
-5.00428
 20
-6.07589
 30
0.0
 10
-5.00428
 20
-6.07589
 30
0.0
 10
-7.08315
 20
-6.07589
 30
0.0
 10
-7.08315
 20
-6.07589
 30
0.0
 10
-7.08315
 20
-6.07589
 30
0.0
 10
-7.08315
 20
-6.07589
 30
0.0
 10
-5.00428
 20
-2.36267
 30
0.0
 10
-5.00428
 20
-2.36267
 30
0.0
 10
-5.00428
 20
-2.36267
 30
0.0
 10
-5.00428
 20
-2.36267
 30
0.0
 10
-5.00428
 20
-2.36269
 30
0.0
 10
-5.00428
 20
-2.36269
 30
0.0
  0
SPLINE
  5
54
330
1F
100
AcDbEntity
  8
Layer 1
 62
   177
100
AcDbSpline
210
0.0
220
0.0
230
1.0
 70
    11
 71
     3
 72
    32
 73
    28
 74
     0
 42
0.0000000001
 43
0.0000000001
 12
1.0
 22
0.0
 32
0.0
 13
1.0
 23
0.0
 33
0.0
 40
0.0
 40
0.0
 40
0.0
 40
0.0
 40
0.125
 40
0.125
 40
0.125
 40
0.125
 40
0.25
 40
0.25
 40
0.25
 40
0.25
 40
0.375
 40
0.375
 40
0.375
 40
0.375
 40
0.5
 40
0.5
 40
0.5
 40
0.5
 40
0.625
 40
0.625
 40
0.625
 40
0.625
 40
0.75
 40
0.75
 40
0.75
 40
0.75
 40
1.0
 40
1.0
 40
1.0
 40
1.0
 10
-7.42614
 20
17.29095
 30
0.0
 10
-7.42614
 20
17.29095
 30
0.0
 10
-8.50783
 20
14.76224
 30
0.0
 10
-8.50783
 20
14.76224
 30
0.0
 10
-8.50783
 20
14.76224
 30
0.0
 10
-8.50783
 20
14.76224
 30
0.0
 10
-8.53445
 20
14.69988
 30
0.0
 10
-8.53445
 20
14.69988
 30
0.0
 10
-8.53445
 20
14.69988
 30
0.0
 10
-8.53445
 20
14.69988
 30
0.0
 10
-9.12689
 20
14.69988
 30
0.0
 10
-9.12689
 20
14.69988
 30
0.0
 10
-9.12689
 20
14.69988
 30
0.0
 10
-9.12689
 20
14.69988
 30
0.0
 10
-9.71924
 20
14.69988
 30
0.0
 10
-9.71924
 20
14.69988
 30
0.0
 10
-9.71924
 20
14.69988
 30
0.0
 10
-9.71924
 20
14.69988
 30
0.0
 10
-9.74595
 20
14.76224
 30
0.0
 10
-9.74595
 20
14.76224
 30
0.0
 10
-9.74595
 20
14.76224
 30
0.0
 10
-9.74595
 20
14.76224
 30
0.0
 10
-10.82767
 20
17.29095
 30
0.0
 10
-10.82767
 20
17.29095
 30
0.0
 10
-10.82767
 20
17.29095
 30
0.0
 10
-10.82767
 20
17.29095
 30
0.0
 10
-7.42614
 20
17.29095
 30
0.0
 10
-7.42614
 20
17.29095
 30
0.0
  0
SPLINE
  5
55
330
1F
100
AcDbEntity
  8
Layer 1
 62
   177
100
AcDbSpline
210
0.0
220
0.0
230
1.0
 70
    11
 71
     3
 72
    20
 73
    16
 74
     0
 42
0.0000000001
 43
0.0000000001
 12
1.0
 22
0.0
 32
0.0
 13
1.0
 23
0.0
 33
0.0
 40
0.0
 40
0.0
 40
0.0
 40
0.0
 40
0.2
 40
0.2
 40
0.2
 40
0.2
 40
0.4
 40
0.4
 40
0.4
 40
0.4
 40
0.6
 40
0.6
 40
0.6
 40
0.6
 40
1.0
 40
1.0
 40
1.0
 40
1.0
 10
-5.00433
 20
13.57775
 30
0.0
 10
-5.00433
 20
13.57775
 30
0.0
 10
-5.00433
 20
17.29095
 30
0.0
 10
-5.00433
 20
17.29095
 30
0.0
 10
-5.00433
 20
17.29095
 30
0.0
 10
-5.00433
 20
17.29095
 30
0.0
 10
-7.08315
 20
17.29095
 30
0.0
 10
-7.08315
 20
17.29095
 30
0.0
 10
-7.08315
 20
17.29095
 30
0.0
 10
-7.08315
 20
17.29095
 30
0.0
 10
-5.00428
 20
13.57775
 30
0.0
 10
-5.00428
 20
13.57775
 30
0.0
 10
-5.00428
 20
13.57775
 30
0.0
 10
-5.00428
 20
13.57775
 30
0.0
 10
-5.00433
 20
13.57775
 30
0.0
 10
-5.00433
 20
13.57775
 30
0.0
  0
SPLINE
  5
56
330
1F
100
AcDbEntity
  8
Layer 1
 62
   177
100
AcDbSpline
210
0.0
220
0.0
230
1.0
 70
    11
 71
     3
 72
    24
 73
    20
 74
     0
 42
0.0000000001
 43
0.0000000001
 12
1.0
 22
0.0
 32
0.0
 13
1.0
 23
0.0
 33
0.0
 40
0.0
 40
0.0
 40
0.0
 40
0.0
 40
0.1666666666666667
 40
0.1666666666666667
 40
0.1666666666666667
 40
0.1666666666666667
 40
0.3333333333333333
 40
0.3333333333333333
 40
0.3333333333333333
 40
0.3333333333333333
 40
0.5
 40
0.5
 40
0.5
 40
0.5
 40
0.6666666666666666
 40
0.6666666666666666
 40
0.6666666666666666
 40
0.6666666666666666
 40
1.0
 40
1.0
 40
1.0
 40
1.0
 10
-13.2495
 20
4.03153
 30
0.0
 10
-13.2495
 20
4.03153
 30
0.0
 10
-11.90513
 20
4.03153
 30
0.0
 10
-11.90513
 20
4.03153
 30
0.0
 10
-11.90513
 20
4.03153
 30
0.0
 10
-11.90513
 20
4.03153
 30
0.0
 10
-11.87846
 20
3.96913
 30
0.0
 10
-11.87846
 20
3.96913
 30
0.0
 10
-11.87846
 20
3.96913
 30
0.0
 10
-11.87846
 20
3.96913
 30
0.0
 10
-11.15704
 20
2.28267
 30
0.0
 10
-11.15704
 20
2.28267
 30
0.0
 10
-11.15704
 20
2.28267
 30
0.0
 10
-11.15704
 20
2.28267
 30
0.0
 10
-13.2495
 20
-1.45486
 30
0.0
 10
-13.2495
 20
-1.45486
 30
0.0
 10
-13.2495
 20
-1.45486
 30
0.0
 10
-13.2495
 20
-1.45486
 30
0.0
 10
-13.2495
 20
4.03153
 30
0.0
 10
-13.2495
 20
4.03153
 30
0.0
  0
SPLINE
  5
57
330
1F
100
AcDbEntity
  8
Layer 1
 62
   177
100
AcDbSpline
210
0.0
220
0.0
230
1.0
 70
    11
 71
     3
 72
    20
 73
    16
 74
     0
 42
0.0000000001
 43
0.0000000001
 12
1.0
 22
0.0
 32
0.0
 13
1.0
 23
0.0
 33
0.0
 40
0.0
 40
0.0
 40
0.0
 40
0.0
 40
0.2
 40
0.2
 40
0.2
 40
0.2
 40
0.4
 40
0.4
 40
0.4
 40
0.4
 40
0.6
 40
0.6
 40
0.6
 40
0.6
 40
1.0
 40
1.0
 40
1.0
 40
1.0
 10
-12.03671
 20
4.33654
 30
0.0
 10
-12.03671
 20
4.33654
 30
0.0
 10
-13.2495
 20
4.33654
 30
0.0
 10
-13.2495
 20
4.33654
 30
0.0
 10
-13.2495
 20
4.33654
 30
0.0
 10
-13.2495
 20
4.33654
 30
0.0
 10
-13.2495
 20
6.8785
 30
0.0
 10
-13.2495
 20
6.8785
 30
0.0
 10
-13.2495
 20
6.8785
 30
0.0
 10
-13.2495
 20
6.8785
 30
0.0
 10
-12.03671
 20
6.8785
 30
0.0
 10
-12.03671
 20
6.8785
 30
0.0
 10
-12.03671
 20
6.8785
 30
0.0
 10
-12.03671
 20
6.8785
 30
0.0
 10
-12.03671
 20
4.33654
 30
0.0
 10
-12.03671
 20
4.33654
 30
0.0
  0
SPLINE
  5
58
330
1F
100
AcDbEntity
  8
Layer 1
 62
   177
100
AcDbSpline
210
0.0
220
0.0
230
1.0
 70
    11
 71
     3
 72
    24
 73
    20
 74
     0
 42
0.0000000001
 43
0.0000000001
 12
1.0
 22
0.0
 32
0.0
 13
1.0
 23
0.0
 33
0.0
 40
0.0
 40
0.0
 40
0.0
 40
0.0
 40
0.1666666666666667
 40
0.1666666666666667
 40
0.1666666666666667
 40
0.1666666666666667
 40
0.3333333333333333
 40
0.3333333333333333
 40
0.3333333333333333
 40
0.3333333333333333
 40
0.5
 40
0.5
 40
0.5
 40
0.5
 40
0.6666666666666666
 40
0.6666666666666666
 40
0.6666666666666666
 40
0.6666666666666666
 40
1.0
 40
1.0
 40
1.0
 40
1.0
 10
-13.2495
 20
12.66992
 30
0.0
 10
-13.2495
 20
12.66992
 30
0.0
 10
-11.15704
 20
8.93242
 30
0.0
 10
-11.15704
 20
8.93242
 30
0.0
 10
-11.15704
 20
8.93242
 30
0.0
 10
-11.15704
 20
8.93242
 30
0.0
 10
-11.87846
 20
7.24594
 30
0.0
 10
-11.87846
 20
7.24594
 30
0.0
 10
-11.87846
 20
7.24594
 30
0.0
 10
-11.87846
 20
7.24594
 30
0.0
 10
-11.90513
 20
7.18355
 30
0.0
 10
-11.90513
 20
7.18355
 30
0.0
 10
-11.90513
 20
7.18355
 30
0.0
 10
-11.90513
 20
7.18355
 30
0.0
 10
-13.2495
 20
7.18355
 30
0.0
 10
-13.2495
 20
7.18355
 30
0.0
 10
-13.2495
 20
7.18355
 30
0.0
 10
-13.2495
 20
7.18355
 30
0.0
 10
-13.2495
 20
12.66992
 30
0.0
 10
-13.2495
 20
12.66992
 30
0.0
  0
SPLINE
  5
59
330
1F
100
AcDbEntity
  8
Layer 1
 62
   177
100
AcDbSpline
210
0.0
220
0.0
230
1.0
 70
    11
 71
     3
 72
    20
 73
    16
 74
     0
 42
0.0000000001
 43
0.0000000001
 12
1.0
 22
0.0
 32
0.0
 13
1.0
 23
0.0
 33
0.0
 40
0.0
 40
0.0
 40
0.0
 40
0.0
 40
0.2
 40
0.2
 40
0.2
 40
0.2
 40
0.4
 40
0.4
 40
0.4
 40
0.4
 40
0.6
 40
0.6
 40
0.6
 40
0.6
 40
1.0
 40
1.0
 40
1.0
 40
1.0
 10
-13.2495
 20
13.57772
 30
0.0
 10
-13.2495
 20
13.57772
 30
0.0
 10
-13.2495
 20
17.29095
 30
0.0
 10
-13.2495
 20
17.29095
 30
0.0
 10
-13.2495
 20
17.29095
 30
0.0
 10
-13.2495
 20
17.29095
 30
0.0
 10
-11.17063
 20
17.29095
 30
0.0
 10
-11.17063
 20
17.29095
 30
0.0
 10
-11.17063
 20
17.29095
 30
0.0
 10
-11.17063
 20
17.29095
 30
0.0
 10
-13.2495
 20
13.57775
 30
0.0
 10
-13.2495
 20
13.57775
 30
0.0
 10
-13.2495
 20
13.57775
 30
0.0
 10
-13.2495
 20
13.57775
 30
0.0
 10
-13.2495
 20
13.57772
 30
0.0
 10
-13.2495
 20
13.57772
 30
0.0
  0
SPLINE
  5
5A
330
1F
100
AcDbEntity
  8
Layer 1
 62
   177
100
AcDbSpline
210
0.0
220
0.0
230
1.0
 70
    11
 71
     3
 72
    20
 73
    16
 74
     0
 42
0.0000000001
 43
0.0000000001
 12
1.0
 22
0.0
 32
0.0
 13
1.0
 23
0.0
 33
0.0
 40
0.0
 40
0.0
 40
0.0
 40
0.0
 40
0.2
 40
0.2
 40
0.2
 40
0.2
 40
0.4
 40
0.4
 40
0.4
 40
0.4
 40
0.6
 40
0.6
 40
0.6
 40
0.6
 40
1.0
 40
1.0
 40
1.0
 40
1.0
 10
-13.2495
 20
-2.36269
 30
0.0
 10
-13.2495
 20
-2.36269
 30
0.0
 10
-11.17063
 20
-6.07589
 30
0.0
 10
-11.17063
 20
-6.07589
 30
0.0
 10
-11.17063
 20
-6.07589
 30
0.0
 10
-11.17063
 20
-6.07589
 30
0.0
 10
-13.2495
 20
-6.07589
 30
0.0
 10
-13.2495
 20
-6.07589
 30
0.0
 10
-13.2495
 20
-6.07589
 30
0.0
 10
-13.2495
 20
-6.07589
 30
0.0
 10
-13.2495
 20
-2.36267
 30
0.0
 10
-13.2495
 20
-2.36267
 30
0.0
 10
-13.2495
 20
-2.36267
 30
0.0
 10
-13.2495
 20
-2.36267
 30
0.0
 10
-13.2495
 20
-2.36269
 30
0.0
 10
-13.2495
 20
-2.36269
 30
0.0
  0
SPLINE
  5
5B
330
1F
100
AcDbEntity
  8
Layer 1
 62
   177
100
AcDbSpline
210
0.0
220
0.0
230
1.0
 70
    11
 71
     3
 72
    52
 73
    48
 74
     0
 42
0.0000000001
 43
0.0000000001
 12
1.0
 22
0.0
 32
0.0
 13
1.0
 23
0.0
 33
0.0
 40
0.0
 40
0.0
 40
0.0
 40
0.0
 40
0.0769230769230769
 40
0.0769230769230769
 40
0.0769230769230769
 40
0.0769230769230769
 40
0.1538461538461539
 40
0.1538461538461539
 40
0.1538461538461539
 40
0.1538461538461539
 40
0.2307692307692308
 40
0.2307692307692308
 40
0.2307692307692308
 40
0.2307692307692308
 40
0.3076923076923077
 40
0.3076923076923077
 40
0.3076923076923077
 40
0.3076923076923077
 40
0.3846153846153846
 40
0.3846153846153846
 40
0.3846153846153846
 40
0.3846153846153846
 40
0.4615384615384616
 40
0.4615384615384616
 40
0.4615384615384616
 40
0.4615384615384616
 40
0.5384615384615384
 40
0.5384615384615384
 40
0.5384615384615384
 40
0.5384615384615384
 40
0.6153846153846154
 40
0.6153846153846154
 40
0.6153846153846154
 40
0.6153846153846154
 40
0.6923076923076923
 40
0.6923076923076923
 40
0.6923076923076923
 40
0.6923076923076923
 40
0.7692307692307693
 40
0.7692307692307693
 40
0.7692307692307693
 40
0.7692307692307693
 40
0.8461538461538461
 40
0.8461538461538461
 40
0.8461538461538461
 40
0.8461538461538461
 40
1.0
 40
1.0
 40
1.0
 40
1.0
 10
-9.70034
 20
6.3304
 30
0.0
 10
-9.77047
 20
6.22664
 30
0.0
 10
-9.82293
 20
6.11201
 30
0.0
 10
-9.85558
 20
5.99108
 30
0.0
 10
-9.85558
 20
5.99108
 30
0.0
 10
-9.9229
 20
5.7421
 30
0.0
 10
-9.92359
 20
5.47995
 30
0.0
 10
-9.85755
 20
5.23065
 30
0.0
 10
-9.85755
 20
5.23065
 30
0.0
 10
-9.82491
 20
5.10728
 30
0.0
 10
-9.77175
 20
4.99031
 30
0.0
 10
-9.70034
 20
4.88464
 30
0.0
 10
-9.70034
 20
4.88464
 30
0.0
 10
-9.70034
 20
4.88464
 30
0.0
 10
-10.97622
 20
2.60564
 30
0.0
 10
-10.97622
 20
2.60564
 30
0.0
 10
-10.97622
 20
2.60564
 30
0.0
 10
-10.97622
 20
2.60564
 30
0.0
 10
-11.61286
 20
4.09391
 30
0.0
 10
-11.61286
 20
4.09391
 30
0.0
 10
-11.61286
 20
4.09391
 30
0.0
 10
-11.61286
 20
4.09391
 30
0.0
 10
-11.74561
 20
4.38902
 30
0.0
 10
-11.74561
 20
4.38902
 30
0.0
 10
-11.74561
 20
4.38902
 30
0.0
 10
-11.74561
 20
4.38902
 30
0.0
 10
-11.74561
 20
5.60754
 30
0.0
 10
-11.74561
 20
5.60754
 30
0.0
 10
-11.74561
 20
5.60754
 30
0.0
 10
-11.74561
 20
5.60754
 30
0.0
 10
-11.74561
 20
6.82606
 30
0.0
 10
-11.74561
 20
6.82606
 30
0.0
 10
-11.74561
 20
6.82606
 30
0.0
 10
-11.74561
 20
6.82606
 30
0.0
 10
-11.61286
 20
7.12119
 30
0.0
 10
-11.61286
 20
7.12119
 30
0.0
 10
-11.61286
 20
7.12119
 30
0.0
 10
-11.61286
 20
7.12119
 30
0.0
 10
-10.97622
 20
8.60945
 30
0.0
 10
-10.97622
 20
8.60945
 30
0.0
 10
-10.97622
 20
8.60945
 30
0.0
 10
-10.97622
 20
8.60945
 30
0.0
 10
-9.70034
 20
6.3304
 30
0.0
 10
-9.70034
 20
6.3304
 30
0.0
 10
-9.70034
 20
6.3304
 30
0.0
 10
-9.70034
 20
6.3304
 30
0.0
 10
-9.70034
 20
6.3304
 30
0.0
 10
-9.70034
 20
6.3304
 30
0.0
  0
SPLINE
  5
5C
330
1F
100
AcDbEntity
  8
Layer 1
370
     9
100
AcDbSpline
210
0.0
220
0.0
230
1.0
 70
    11
 71
     3
 72
    20
 73
    16
 74
     0
 42
0.0000000001
 43
0.0000000001
 12
1.0
 22
0.0
 32
0.0
 13
1.0
 23
0.0
 33
0.0
 40
0.0
 40
0.0
 40
0.0
 40
0.0
 40
0.2
 40
0.2
 40
0.2
 40
0.2
 40
0.4
 40
0.4
 40
0.4
 40
0.4
 40
0.6
 40
0.6
 40
0.6
 40
0.6
 40
1.0
 40
1.0
 40
1.0
 40
1.0
 10
-13.61327
 20
-6.45721
 30
0.0
 10
-13.61327
 20
-6.45721
 30
0.0
 10
-13.61327
 20
17.67223
 30
0.0
 10
-13.61327
 20
17.67223
 30
0.0
 10
-13.61327
 20
17.67223
 30
0.0
 10
-13.61327
 20
17.67223
 30
0.0
 10
-4.64054
 20
17.67223
 30
0.0
 10
-4.64054
 20
17.67223
 30
0.0
 10
-4.64054
 20
17.67223
 30
0.0
 10
-4.64054
 20
17.67223
 30
0.0
 10
-4.64051
 20
-6.45721
 30
0.0
 10
-4.64051
 20
-6.45721
 30
0.0
 10
-4.64051
 20
-6.45721
 30
0.0
 10
-4.64051
 20
-6.45721
 30
0.0
 10
-13.61327
 20
-6.45721
 30
0.0
 10
-13.61327
 20
-6.45721
 30
0.0
  0
SPLINE
  5
5D
330
1F
100
AcDbEntity
  8
Layer 1
370
     9
100
AcDbSpline
210
0.0
220
0.0
230
1.0
 70
    11
 71
     3
 72
    36
 73
    32
 74
     0
 42
0.0000000001
 43
0.0000000001
 12
1.0
 22
0.0
 32
0.0
 13
1.0
 23
0.0
 33
0.0
 40
0.0
 40
0.0
 40
0.0
 40
0.0
 40
0.1111111111111111
 40
0.1111111111111111
 40
0.1111111111111111
 40
0.1111111111111111
 40
0.2222222222222222
 40
0.2222222222222222
 40
0.2222222222222222
 40
0.2222222222222222
 40
0.3333333333333333
 40
0.3333333333333333
 40
0.3333333333333333
 40
0.3333333333333333
 40
0.4444444444444444
 40
0.4444444444444444
 40
0.4444444444444444
 40
0.4444444444444444
 40
0.5555555555555556
 40
0.5555555555555556
 40
0.5555555555555556
 40
0.5555555555555556
 40
0.6666666666666666
 40
0.6666666666666666
 40
0.6666666666666666
 40
0.6666666666666666
 40
0.7777777777777778
 40
0.7777777777777778
 40
0.7777777777777778
 40
0.7777777777777778
 40
1.0
 40
1.0
 40
1.0
 40
1.0
 10
-7.91414
 20
-1.9088
 30
0.0
 10
-7.91414
 20
-1.9088
 30
0.0
 10
-7.91414
 20
-0.63775
 30
0.0
 10
-7.91414
 20
-0.63775
 30
0.0
 10
-7.91414
 20
-0.63775
 30
0.0
 10
-7.91414
 20
-0.63775
 30
0.0
 10
-9.12689
 20
-0.63775
 30
0.0
 10
-9.12689
 20
-0.63775
 30
0.0
 10
-9.12689
 20
-0.63775
 30
0.0
 10
-9.12689
 20
-0.63775
 30
0.0
 10
-10.33964
 20
-0.63775
 30
0.0
 10
-10.33964
 20
-0.63775
 30
0.0
 10
-10.33964
 20
-0.63775
 30
0.0
 10
-10.33964
 20
-0.63775
 30
0.0
 10
-10.33964
 20
-1.9088
 30
0.0
 10
-10.33964
 20
-1.9088
 30
0.0
 10
-10.33964
 20
-1.9088
 30
0.0
 10
-10.33964
 20
-1.9088
 30
0.0
 10
-10.33964
 20
-3.17975
 30
0.0
 10
-10.33964
 20
-3.17975
 30
0.0
 10
-10.33964
 20
-3.17975
 30
0.0
 10
-10.33964
 20
-3.17975
 30
0.0
 10
-9.12689
 20
-3.17975
 30
0.0
 10
-9.12689
 20
-3.17975
 30
0.0
 10
-9.12689
 20
-3.17975
 30
0.0
 10
-9.12689
 20
-3.17975
 30
0.0
 10
-7.91414
 20
-3.17975
 30
0.0
 10
-7.91414
 20
-3.17975
 30
0.0
 10
-7.91414
 20
-3.17975
 30
0.0
 10
-7.91414
 20
-3.17975
 30
0.0
 10
-7.91414
 20
-1.9088
 30
0.0
 10
-7.91414
 20
-1.9088
 30
0.0
  0
SPLINE
  5
5E
330
1F
100
AcDbEntity
  8
Layer 1
370
     9
100
AcDbSpline
210
0.0
220
0.0
230
1.0
 70
    11
 71
     3
 72
    68
 73
    64
 74
     0
 42
0.0000000001
 43
0.0000000001
 12
1.0
 22
0.0
 32
0.0
 13
1.0
 23
0.0
 33
0.0
 40
0.0
 40
0.0
 40
0.0
 40
0.0
 40
0.0588235294117647
 40
0.0588235294117647
 40
0.0588235294117647
 40
0.0588235294117647
 40
0.1176470588235294
 40
0.1176470588235294
 40
0.1176470588235294
 40
0.1176470588235294
 40
0.1764705882352941
 40
0.1764705882352941
 40
0.1764705882352941
 40
0.1764705882352941
 40
0.2352941176470588
 40
0.2352941176470588
 40
0.2352941176470588
 40
0.2352941176470588
 40
0.2941176470588235
 40
0.2941176470588235
 40
0.2941176470588235
 40
0.2941176470588235
 40
0.3529411764705883
 40
0.3529411764705883
 40
0.3529411764705883
 40
0.3529411764705883
 40
0.4117647058823529
 40
0.4117647058823529
 40
0.4117647058823529
 40
0.4117647058823529
 40
0.4705882352941176
 40
0.4705882352941176
 40
0.4705882352941176
 40
0.4705882352941176
 40
0.5294117647058824
 40
0.5294117647058824
 40
0.5294117647058824
 40
0.5294117647058824
 40
0.5882352941176471
 40
0.5882352941176471
 40
0.5882352941176471
 40
0.5882352941176471
 40
0.6470588235294118
 40
0.6470588235294118
 40
0.6470588235294118
 40
0.6470588235294118
 40
0.7058823529411765
 40
0.7058823529411765
 40
0.7058823529411765
 40
0.7058823529411765
 40
0.7647058823529411
 40
0.7647058823529411
 40
0.7647058823529411
 40
0.7647058823529411
 40
0.8235294117647058
 40
0.8235294117647058
 40
0.8235294117647058
 40
0.8235294117647058
 40
0.8823529411764706
 40
0.8823529411764706
 40
0.8823529411764706
 40
0.8823529411764706
 40
1.0
 40
1.0
 40
1.0
 40
1.0
 10
-9.12689
 20
4.54279
 30
0.0
 10
-9.12689
 20
4.54279
 30
0.0
 10
-9.12466
 20
4.54279
 30
0.0
 10
-9.12466
 20
4.54279
 30
0.0
 10
-9.12466
 20
4.54279
 30
0.0
 10
-9.12466
 20
4.54279
 30
0.0
 10
-9.12246
 20
4.54279
 30
0.0
 10
-9.12246
 20
4.54279
 30
0.0
 10
-9.12246
 20
4.54279
 30
0.0
 10
-9.05865
 20
4.54312
 30
0.0
 10
-8.9954
 20
4.55398
 30
0.0
 10
-8.93518
 20
4.57493
 30
0.0
 10
-8.93518
 20
4.57493
 30
0.0
 10
-8.87509
 20
4.59593
 30
0.0
 10
-8.81827
 20
4.6253
 30
0.0
 10
-8.76643
 20
4.66214
 30
0.0
 10
-8.76643
 20
4.66214
 30
0.0
 10
-8.76643
 20
4.66214
 30
0.0
 10
-7.42373
 20
2.2639
 30
0.0
 10
-7.42373
 20
2.2639
 30
0.0
 10
-7.42373
 20
2.2639
 30
0.0
 10
-7.42373
 20
2.2639
 30
0.0
 10
-8.50783
 20
-0.27032
 30
0.0
 10
-8.50783
 20
-0.27032
 30
0.0
 10
-8.50783
 20
-0.27032
 30
0.0
 10
-8.50783
 20
-0.27032
 30
0.0
 10
-8.53445
 20
-0.33273
 30
0.0
 10
-8.53445
 20
-0.33273
 30
0.0
 10
-8.53445
 20
-0.33273
 30
0.0
 10
-8.53445
 20
-0.33273
 30
0.0
 10
-9.12689
 20
-0.33273
 30
0.0
 10
-9.12689
 20
-0.33273
 30
0.0
 10
-9.12689
 20
-0.33273
 30
0.0
 10
-9.12689
 20
-0.33273
 30
0.0
 10
-9.7193
 20
-0.33273
 30
0.0
 10
-9.7193
 20
-0.33273
 30
0.0
 10
-9.7193
 20
-0.33273
 30
0.0
 10
-9.7193
 20
-0.33273
 30
0.0
 10
-9.74595
 20
-0.27032
 30
0.0
 10
-9.74595
 20
-0.27032
 30
0.0
 10
-9.74595
 20
-0.27032
 30
0.0
 10
-9.74595
 20
-0.27032
 30
0.0
 10
-10.83005
 20
2.2639
 30
0.0
 10
-10.83005
 20
2.2639
 30
0.0
 10
-10.83005
 20
2.2639
 30
0.0
 10
-10.83005
 20
2.2639
 30
0.0
 10
-9.48735
 20
4.66218
 30
0.0
 10
-9.48735
 20
4.66218
 30
0.0
 10
-9.48735
 20
4.66218
 30
0.0
 10
-9.43549
 20
4.62532
 30
0.0
 10
-9.37869
 20
4.59593
 30
0.0
 10
-9.3186
 20
4.57493
 30
0.0
 10
-9.3186
 20
4.57493
 30
0.0
 10
-9.25838
 20
4.55399
 30
0.0
 10
-9.19513
 20
4.54312
 30
0.0
 10
-9.13132
 20
4.54279
 30
0.0
 10
-9.13132
 20
4.54279
 30
0.0
 10
-9.13132
 20
4.54279
 30
0.0
 10
-9.12912
 20
4.54279
 30
0.0
 10
-9.12912
 20
4.54279
 30
0.0
 10
-9.12912
 20
4.54279
 30
0.0
 10
-9.12912
 20
4.54279
 30
0.0
 10
-9.12689
 20
4.54279
 30
0.0
 10
-9.12689
 20
4.54279
 30
0.0
  0
SPLINE
  5
5F
330
1F
100
AcDbEntity
  8
Layer 1
370
     9
100
AcDbSpline
210
0.0
220
0.0
230
1.0
 70
    11
 71
     3
 72
    24
 73
    20
 74
     0
 42
0.0000000001
 43
0.0000000001
 12
1.0
 22
0.0
 32
0.0
 13
1.0
 23
0.0
 33
0.0
 40
0.0
 40
0.0
 40
0.0
 40
0.0
 40
0.1666666666666667
 40
0.1666666666666667
 40
0.1666666666666667
 40
0.1666666666666667
 40
0.3333333333333333
 40
0.3333333333333333
 40
0.3333333333333333
 40
0.3333333333333333
 40
0.5
 40
0.5
 40
0.5
 40
0.5
 40
0.6666666666666666
 40
0.6666666666666666
 40
0.6666666666666666
 40
0.6666666666666666
 40
1.0
 40
1.0
 40
1.0
 40
1.0
 10
-10.0383
 20
-0.33273
 30
0.0
 10
-10.0383
 20
-0.33273
 30
0.0
 10
-10.63073
 20
-0.33273
 30
0.0
 10
-10.63073
 20
-0.33273
 30
0.0
 10
-10.63073
 20
-0.33273
 30
0.0
 10
-10.63073
 20
-0.33273
 30
0.0
 10
-10.63073
 20
-1.75621
 30
0.0
 10
-10.63073
 20
-1.75621
 30
0.0
 10
-10.63073
 20
-1.75621
 30
0.0
 10
-10.63073
 20
-1.75621
 30
0.0
 10
-13.08075
 20
-1.75621
 30
0.0
 10
-13.08075
 20
-1.75621
 30
0.0
 10
-13.08075
 20
-1.75621
 30
0.0
 10
-13.08075
 20
-1.75621
 30
0.0
 10
-11.01085
 20
1.94093
 30
0.0
 10
-11.01085
 20
1.94093
 30
0.0
 10
-11.01085
 20
1.94093
 30
0.0
 10
-11.01085
 20
1.94093
 30
0.0
 10
-10.0383
 20
-0.33273
 30
0.0
 10
-10.0383
 20
-0.33273
 30
0.0
  0
SPLINE
  5
60
330
1F
100
AcDbEntity
  8
Layer 1
370
     9
100
AcDbSpline
210
0.0
220
0.0
230
1.0
 70
    11
 71
     3
 72
    36
 73
    32
 74
     0
 42
0.0000000001
 43
0.0000000001
 12
1.0
 22
0.0
 32
0.0
 13
1.0
 23
0.0
 33
0.0
 40
0.0
 40
0.0
 40
0.0
 40
0.0
 40
0.1111111111111111
 40
0.1111111111111111
 40
0.1111111111111111
 40
0.1111111111111111
 40
0.2222222222222222
 40
0.2222222222222222
 40
0.2222222222222222
 40
0.2222222222222222
 40
0.3333333333333333
 40
0.3333333333333333
 40
0.3333333333333333
 40
0.3333333333333333
 40
0.4444444444444444
 40
0.4444444444444444
 40
0.4444444444444444
 40
0.4444444444444444
 40
0.5555555555555556
 40
0.5555555555555556
 40
0.5555555555555556
 40
0.5555555555555556
 40
0.6666666666666666
 40
0.6666666666666666
 40
0.6666666666666666
 40
0.6666666666666666
 40
0.7777777777777778
 40
0.7777777777777778
 40
0.7777777777777778
 40
0.7777777777777778
 40
1.0
 40
1.0
 40
1.0
 40
1.0
 10
-9.12689
 20
14.39483
 30
0.0
 10
-9.12689
 20
14.39483
 30
0.0
 10
-10.33964
 20
14.39483
 30
0.0
 10
-10.33964
 20
14.39483
 30
0.0
 10
-10.33964
 20
14.39483
 30
0.0
 10
-10.33964
 20
14.39483
 30
0.0
 10
-10.33964
 20
13.12386
 30
0.0
 10
-10.33964
 20
13.12386
 30
0.0
 10
-10.33964
 20
13.12386
 30
0.0
 10
-10.33964
 20
13.12386
 30
0.0
 10
-10.33964
 20
11.85283
 30
0.0
 10
-10.33964
 20
11.85283
 30
0.0
 10
-10.33964
 20
11.85283
 30
0.0
 10
-10.33964
 20
11.85283
 30
0.0
 10
-9.12689
 20
11.85283
 30
0.0
 10
-9.12689
 20
11.85283
 30
0.0
 10
-9.12689
 20
11.85283
 30
0.0
 10
-9.12689
 20
11.85283
 30
0.0
 10
-7.91414
 20
11.85283
 30
0.0
 10
-7.91414
 20
11.85283
 30
0.0
 10
-7.91414
 20
11.85283
 30
0.0
 10
-7.91414
 20
11.85283
 30
0.0
 10
-7.91414
 20
13.12386
 30
0.0
 10
-7.91414
 20
13.12386
 30
0.0
 10
-7.91414
 20
13.12386
 30
0.0
 10
-7.91414
 20
13.12386
 30
0.0
 10
-7.91414
 20
14.39483
 30
0.0
 10
-7.91414
 20
14.39483
 30
0.0
 10
-7.91414
 20
14.39483
 30
0.0
 10
-7.91414
 20
14.39483
 30
0.0
 10
-9.12689
 20
14.39483
 30
0.0
 10
-9.12689
 20
14.39483
 30
0.0
  0
SPLINE
  5
61
330
1F
100
AcDbEntity
  8
Layer 1
370
     9
100
AcDbSpline
210
0.0
220
0.0
230
1.0
 70
    11
 71
     3
 72
    68
 73
    64
 74
     0
 42
0.0000000001
 43
0.0000000001
 12
1.0
 22
0.0
 32
0.0
 13
1.0
 23
0.0
 33
0.0
 40
0.0
 40
0.0
 40
0.0
 40
0.0
 40
0.0588235294117647
 40
0.0588235294117647
 40
0.0588235294117647
 40
0.0588235294117647
 40
0.1176470588235294
 40
0.1176470588235294
 40
0.1176470588235294
 40
0.1176470588235294
 40
0.1764705882352941
 40
0.1764705882352941
 40
0.1764705882352941
 40
0.1764705882352941
 40
0.2352941176470588
 40
0.2352941176470588
 40
0.2352941176470588
 40
0.2352941176470588
 40
0.2941176470588235
 40
0.2941176470588235
 40
0.2941176470588235
 40
0.2941176470588235
 40
0.3529411764705883
 40
0.3529411764705883
 40
0.3529411764705883
 40
0.3529411764705883
 40
0.4117647058823529
 40
0.4117647058823529
 40
0.4117647058823529
 40
0.4117647058823529
 40
0.4705882352941176
 40
0.4705882352941176
 40
0.4705882352941176
 40
0.4705882352941176
 40
0.5294117647058824
 40
0.5294117647058824
 40
0.5294117647058824
 40
0.5294117647058824
 40
0.5882352941176471
 40
0.5882352941176471
 40
0.5882352941176471
 40
0.5882352941176471
 40
0.6470588235294118
 40
0.6470588235294118
 40
0.6470588235294118
 40
0.6470588235294118
 40
0.7058823529411765
 40
0.7058823529411765
 40
0.7058823529411765
 40
0.7058823529411765
 40
0.7647058823529411
 40
0.7647058823529411
 40
0.7647058823529411
 40
0.7647058823529411
 40
0.8235294117647058
 40
0.8235294117647058
 40
0.8235294117647058
 40
0.8235294117647058
 40
0.8823529411764706
 40
0.8823529411764706
 40
0.8823529411764706
 40
0.8823529411764706
 40
1.0
 40
1.0
 40
1.0
 40
1.0
 10
-9.12689
 20
6.67221
 30
0.0
 10
-9.12689
 20
6.67221
 30
0.0
 10
-9.12466
 20
6.67221
 30
0.0
 10
-9.12466
 20
6.67221
 30
0.0
 10
-9.12466
 20
6.67221
 30
0.0
 10
-9.12466
 20
6.67221
 30
0.0
 10
-9.12246
 20
6.67221
 30
0.0
 10
-9.12246
 20
6.67221
 30
0.0
 10
-9.12246
 20
6.67221
 30
0.0
 10
-9.05865
 20
6.67197
 30
0.0
 10
-8.9954
 20
6.66107
 30
0.0
 10
-8.93518
 20
6.6401
 30
0.0
 10
-8.93518
 20
6.6401
 30
0.0
 10
-8.87509
 20
6.61911
 30
0.0
 10
-8.81827
 20
6.58974
 30
0.0
 10
-8.76643
 20
6.55288
 30
0.0
 10
-8.76643
 20
6.55288
 30
0.0
 10
-8.76643
 20
6.55288
 30
0.0
 10
-7.42373
 20
8.95112
 30
0.0
 10
-7.42373
 20
8.95112
 30
0.0
 10
-7.42373
 20
8.95112
 30
0.0
 10
-7.42373
 20
8.95112
 30
0.0
 10
-8.50783
 20
11.48543
 30
0.0
 10
-8.50783
 20
11.48543
 30
0.0
 10
-8.50783
 20
11.48543
 30
0.0
 10
-8.50783
 20
11.48543
 30
0.0
 10
-8.53445
 20
11.54779
 30
0.0
 10
-8.53445
 20
11.54779
 30
0.0
 10
-8.53445
 20
11.54779
 30
0.0
 10
-8.53445
 20
11.54779
 30
0.0
 10
-9.12689
 20
11.54779
 30
0.0
 10
-9.12689
 20
11.54779
 30
0.0
 10
-9.12689
 20
11.54779
 30
0.0
 10
-9.12689
 20
11.54779
 30
0.0
 10
-9.7193
 20
11.54779
 30
0.0
 10
-9.7193
 20
11.54779
 30
0.0
 10
-9.7193
 20
11.54779
 30
0.0
 10
-9.7193
 20
11.54779
 30
0.0
 10
-9.74595
 20
11.48543
 30
0.0
 10
-9.74595
 20
11.48543
 30
0.0
 10
-9.74595
 20
11.48543
 30
0.0
 10
-9.74595
 20
11.48543
 30
0.0
 10
-10.83005
 20
8.95112
 30
0.0
 10
-10.83005
 20
8.95112
 30
0.0
 10
-10.83005
 20
8.95112
 30
0.0
 10
-10.83005
 20
8.95112
 30
0.0
 10
-9.48735
 20
6.55288
 30
0.0
 10
-9.48735
 20
6.55288
 30
0.0
 10
-9.48735
 20
6.55288
 30
0.0
 10
-9.43549
 20
6.58974
 30
0.0
 10
-9.37869
 20
6.61911
 30
0.0
 10
-9.3186
 20
6.6401
 30
0.0
 10
-9.3186
 20
6.6401
 30
0.0
 10
-9.25838
 20
6.66107
 30
0.0
 10
-9.19513
 20
6.67197
 30
0.0
 10
-9.13132
 20
6.67221
 30
0.0
 10
-9.13132
 20
6.67221
 30
0.0
 10
-9.13132
 20
6.67221
 30
0.0
 10
-9.12912
 20
6.67221
 30
0.0
 10
-9.12912
 20
6.67221
 30
0.0
 10
-9.12912
 20
6.67221
 30
0.0
 10
-9.12912
 20
6.67221
 30
0.0
 10
-9.12689
 20
6.67221
 30
0.0
 10
-9.12689
 20
6.67221
 30
0.0
  0
SPLINE
  5
62
330
1F
100
AcDbEntity
  8
Layer 1
370
     9
100
AcDbSpline
210
0.0
220
0.0
230
1.0
 70
    11
 71
     3
 72
    24
 73
    20
 74
     0
 42
0.0000000001
 43
0.0000000001
 12
1.0
 22
0.0
 32
0.0
 13
1.0
 23
0.0
 33
0.0
 40
0.0
 40
0.0
 40
0.0
 40
0.0
 40
0.1666666666666667
 40
0.1666666666666667
 40
0.1666666666666667
 40
0.1666666666666667
 40
0.3333333333333333
 40
0.3333333333333333
 40
0.3333333333333333
 40
0.3333333333333333
 40
0.5
 40
0.5
 40
0.5
 40
0.5
 40
0.6666666666666666
 40
0.6666666666666666
 40
0.6666666666666666
 40
0.6666666666666666
 40
1.0
 40
1.0
 40
1.0
 40
1.0
 10
-10.0383
 20
11.54779
 30
0.0
 10
-10.0383
 20
11.54779
 30
0.0
 10
-10.63073
 20
11.54779
 30
0.0
 10
-10.63073
 20
11.54779
 30
0.0
 10
-10.63073
 20
11.54779
 30
0.0
 10
-10.63073
 20
11.54779
 30
0.0
 10
-10.63073
 20
12.97133
 30
0.0
 10
-10.63073
 20
12.97133
 30
0.0
 10
-10.63073
 20
12.97133
 30
0.0
 10
-10.63073
 20
12.97133
 30
0.0
 10
-13.08075
 20
12.97129
 30
0.0
 10
-13.08075
 20
12.97129
 30
0.0
 10
-13.08075
 20
12.97129
 30
0.0
 10
-13.08075
 20
12.97129
 30
0.0
 10
-11.01085
 20
9.27413
 30
0.0
 10
-11.01085
 20
9.27413
 30
0.0
 10
-11.01085
 20
9.27413
 30
0.0
 10
-11.01085
 20
9.27413
 30
0.0
 10
-10.0383
 20
11.54779
 30
0.0
 10
-10.0383
 20
11.54779
 30
0.0
  0
SPLINE
  5
63
330
1F
100
AcDbEntity
  8
Layer 1
370
     9
100
AcDbSpline
210
0.0
220
0.0
230
1.0
 70
    11
 71
     3
 72
    52
 73
    48
 74
     0
 42
0.0000000001
 43
0.0000000001
 12
1.0
 22
0.0
 32
0.0
 13
1.0
 23
0.0
 33
0.0
 40
0.0
 40
0.0
 40
0.0
 40
0.0
 40
0.0769230769230769
 40
0.0769230769230769
 40
0.0769230769230769
 40
0.0769230769230769
 40
0.1538461538461539
 40
0.1538461538461539
 40
0.1538461538461539
 40
0.1538461538461539
 40
0.2307692307692308
 40
0.2307692307692308
 40
0.2307692307692308
 40
0.2307692307692308
 40
0.3076923076923077
 40
0.3076923076923077
 40
0.3076923076923077
 40
0.3076923076923077
 40
0.3846153846153846
 40
0.3846153846153846
 40
0.3846153846153846
 40
0.3846153846153846
 40
0.4615384615384616
 40
0.4615384615384616
 40
0.4615384615384616
 40
0.4615384615384616
 40
0.5384615384615384
 40
0.5384615384615384
 40
0.5384615384615384
 40
0.5384615384615384
 40
0.6153846153846154
 40
0.6153846153846154
 40
0.6153846153846154
 40
0.6153846153846154
 40
0.6923076923076923
 40
0.6923076923076923
 40
0.6923076923076923
 40
0.6923076923076923
 40
0.7692307692307693
 40
0.7692307692307693
 40
0.7692307692307693
 40
0.7692307692307693
 40
0.8461538461538461
 40
0.8461538461538461
 40
0.8461538461538461
 40
0.8461538461538461
 40
1.0
 40
1.0
 40
1.0
 40
1.0
 10
-8.55347
 20
4.88457
 30
0.0
 10
-8.55347
 20
4.88457
 30
0.0
 10
-7.27756
 20
2.60564
 30
0.0
 10
-7.27756
 20
2.60564
 30
0.0
 10
-7.27756
 20
2.60564
 30
0.0
 10
-7.27756
 20
2.60564
 30
0.0
 10
-6.64098
 20
4.09391
 30
0.0
 10
-6.64098
 20
4.09391
 30
0.0
 10
-6.64098
 20
4.09391
 30
0.0
 10
-6.64098
 20
4.09391
 30
0.0
 10
-6.50817
 20
4.38902
 30
0.0
 10
-6.50817
 20
4.38902
 30
0.0
 10
-6.50817
 20
4.38902
 30
0.0
 10
-6.50817
 20
4.38902
 30
0.0
 10
-6.50817
 20
5.60754
 30
0.0
 10
-6.50817
 20
5.60754
 30
0.0
 10
-6.50817
 20
5.60754
 30
0.0
 10
-6.50817
 20
5.60754
 30
0.0
 10
-6.50817
 20
6.82604
 30
0.0
 10
-6.50817
 20
6.82604
 30
0.0
 10
-6.50817
 20
6.82604
 30
0.0
 10
-6.50817
 20
6.82604
 30
0.0
 10
-6.64098
 20
7.12119
 30
0.0
 10
-6.64098
 20
7.12119
 30
0.0
 10
-6.64098
 20
7.12119
 30
0.0
 10
-6.64098
 20
7.12119
 30
0.0
 10
-7.27756
 20
8.60945
 30
0.0
 10
-7.27756
 20
8.60945
 30
0.0
 10
-7.27756
 20
8.60945
 30
0.0
 10
-7.27756
 20
8.60945
 30
0.0
 10
-8.55347
 20
6.3304
 30
0.0
 10
-8.55347
 20
6.3304
 30
0.0
 10
-8.55347
 20
6.3304
 30
0.0
 10
-8.48205
 20
6.22472
 30
0.0
 10
-8.42891
 20
6.10772
 30
0.0
 10
-8.39625
 20
5.98445
 30
0.0
 10
-8.39625
 20
5.98445
 30
0.0
 10
-8.36364
 20
5.86146
 30
0.0
 10
-8.3473
 20
5.73474
 30
0.0
 10
-8.34748
 20
5.60754
 30
0.0
 10
-8.34748
 20
5.60754
 30
0.0
 10
-8.34728
 20
5.48033
 30
0.0
 10
-8.36365
 20
5.35358
 30
0.0
 10
-8.39625
 20
5.23062
 30
0.0
 10
-8.39625
 20
5.23062
 30
0.0
 10
-8.42891
 20
5.10729
 30
0.0
 10
-8.48205
 20
4.99031
 30
0.0
 10
-8.55347
 20
4.88457
 30
0.0
  0
SPLINE
  5
64
330
1F
100
AcDbEntity
  8
Layer 1
370
     9
100
AcDbSpline
210
0.0
220
0.0
230
1.0
 70
     8
 71
     3
 72
    24
 73
    20
 74
     0
 42
0.0000000001
 43
0.0000000001
 12
1.0
 22
0.0
 32
0.0
 13
1.0
 23
0.0
 33
0.0
 40
0.0
 40
0.0
 40
0.0
 40
0.0
 40
0.1666666666666667
 40
0.1666666666666667
 40
0.1666666666666667
 40
0.1666666666666667
 40
0.3333333333333333
 40
0.3333333333333333
 40
0.3333333333333333
 40
0.3333333333333333
 40
0.5
 40
0.5
 40
0.5
 40
0.5
 40
0.6666666666666666
 40
0.6666666666666666
 40
0.6666666666666666
 40
0.6666666666666666
 40
1.0
 40
1.0
 40
1.0
 40
1.0
 10
-5.00428
 20
-1.45479
 30
0.0
 10
-5.00428
 20
-1.45479
 30
0.0
 10
-5.00428
 20
4.03153
 30
0.0
 10
-5.00428
 20
4.03153
 30
0.0
 10
-5.00428
 20
4.03153
 30
0.0
 10
-5.00428
 20
4.03153
 30
0.0
 10
-6.34865
 20
4.03153
 30
0.0
 10
-6.34865
 20
4.03153
 30
0.0
 10
-6.34865
 20
4.03153
 30
0.0
 10
-6.34865
 20
4.03153
 30
0.0
 10
-6.37532
 20
3.96913
 30
0.0
 10
-6.37532
 20
3.96913
 30
0.0
 10
-6.37532
 20
3.96913
 30
0.0
 10
-6.37532
 20
3.96913
 30
0.0
 10
-7.09674
 20
2.28267
 30
0.0
 10
-7.09674
 20
2.28267
 30
0.0
 10
-7.09674
 20
2.28267
 30
0.0
 10
-7.09674
 20
2.28267
 30
0.0
 10
-5.00428
 20
-1.45486
 30
0.0
 10
-5.00428
 20
-1.45486
 30
0.0
  0
SPLINE
  5
65
330
1F
100
AcDbEntity
  8
Layer 1
370
     9
100
AcDbSpline
210
0.0
220
0.0
230
1.0
 70
    11
 71
     3
 72
    24
 73
    20
 74
     0
 42
0.0000000001
 43
0.0000000001
 12
1.0
 22
0.0
 32
0.0
 13
1.0
 23
0.0
 33
0.0
 40
0.0
 40
0.0
 40
0.0
 40
0.0
 40
0.1666666666666667
 40
0.1666666666666667
 40
0.1666666666666667
 40
0.1666666666666667
 40
0.3333333333333333
 40
0.3333333333333333
 40
0.3333333333333333
 40
0.3333333333333333
 40
0.5
 40
0.5
 40
0.5
 40
0.5
 40
0.6666666666666666
 40
0.6666666666666666
 40
0.6666666666666666
 40
0.6666666666666666
 40
1.0
 40
1.0
 40
1.0
 40
1.0
 10
-8.21548
 20
-0.33273
 30
0.0
 10
-8.21548
 20
-0.33273
 30
0.0
 10
-7.62305
 20
-0.33273
 30
0.0
 10
-7.62305
 20
-0.33273
 30
0.0
 10
-7.62305
 20
-0.33273
 30
0.0
 10
-7.62305
 20
-0.33273
 30
0.0
 10
-7.62305
 20
-1.75621
 30
0.0
 10
-7.62305
 20
-1.75621
 30
0.0
 10
-7.62305
 20
-1.75621
 30
0.0
 10
-7.62305
 20
-1.75621
 30
0.0
 10
-5.17303
 20
-1.75621
 30
0.0
 10
-5.17303
 20
-1.75621
 30
0.0
 10
-5.17303
 20
-1.75621
 30
0.0
 10
-5.17303
 20
-1.75621
 30
0.0
 10
-7.2429
 20
1.94093
 30
0.0
 10
-7.2429
 20
1.94093
 30
0.0
 10
-7.2429
 20
1.94093
 30
0.0
 10
-7.2429
 20
1.94093
 30
0.0
 10
-8.21548
 20
-0.33273
 30
0.0
 10
-8.21548
 20
-0.33273
 30
0.0
  0
SPLINE
  5
66
330
1F
100
AcDbEntity
  8
Layer 1
370
     9
100
AcDbSpline
210
0.0
220
0.0
230
1.0
 70
     8
 71
     3
 72
    24
 73
    20
 74
     0
 42
0.0000000001
 43
0.0000000001
 12
1.0
 22
0.0
 32
0.0
 13
1.0
 23
0.0
 33
0.0
 40
0.0
 40
0.0
 40
0.0
 40
0.0
 40
0.1666666666666667
 40
0.1666666666666667
 40
0.1666666666666667
 40
0.1666666666666667
 40
0.3333333333333333
 40
0.3333333333333333
 40
0.3333333333333333
 40
0.3333333333333333
 40
0.5
 40
0.5
 40
0.5
 40
0.5
 40
0.6666666666666666
 40
0.6666666666666666
 40
0.6666666666666666
 40
0.6666666666666666
 40
1.0
 40
1.0
 40
1.0
 40
1.0
 10
-5.00433
 20
4.33654
 30
0.0
 10
-5.00433
 20
4.33654
 30
0.0
 10
-5.00433
 20
6.8785
 30
0.0
 10
-5.00433
 20
6.8785
 30
0.0
 10
-5.00433
 20
6.8785
 30
0.0
 10
-5.00433
 20
6.8785
 30
0.0
 10
-6.21708
 20
6.8785
 30
0.0
 10
-6.21708
 20
6.8785
 30
0.0
 10
-6.21708
 20
6.8785
 30
0.0
 10
-6.21708
 20
6.8785
 30
0.0
 10
-6.21707
 20
5.60754
 30
0.0
 10
-6.21707
 20
5.60754
 30
0.0
 10
-6.21707
 20
5.60754
 30
0.0
 10
-6.21707
 20
5.60754
 30
0.0
 10
-6.21707
 20
4.33654
 30
0.0
 10
-6.21707
 20
4.33654
 30
0.0
 10
-6.21707
 20
4.33654
 30
0.0
 10
-6.21707
 20
4.33654
 30
0.0
 10
-5.00428
 20
4.33654
 30
0.0
 10
-5.00428
 20
4.33654
 30
0.0
  0
SPLINE
  5
67
330
1F
100
AcDbEntity
  8
Layer 1
370
     9
100
AcDbSpline
210
0.0
220
0.0
230
1.0
 70
    11
 71
     3
 72
    24
 73
    20
 74
     0
 42
0.0000000001
 43
0.0000000001
 12
1.0
 22
0.0
 32
0.0
 13
1.0
 23
0.0
 33
0.0
 40
0.0
 40
0.0
 40
0.0
 40
0.0
 40
0.1666666666666667
 40
0.1666666666666667
 40
0.1666666666666667
 40
0.1666666666666667
 40
0.3333333333333333
 40
0.3333333333333333
 40
0.3333333333333333
 40
0.3333333333333333
 40
0.5
 40
0.5
 40
0.5
 40
0.5
 40
0.6666666666666666
 40
0.6666666666666666
 40
0.6666666666666666
 40
0.6666666666666666
 40
1.0
 40
1.0
 40
1.0
 40
1.0
 10
-5.00433
 20
12.66992
 30
0.0
 10
-5.00433
 20
12.66992
 30
0.0
 10
-5.00433
 20
7.18355
 30
0.0
 10
-5.00433
 20
7.18355
 30
0.0
 10
-5.00433
 20
7.18355
 30
0.0
 10
-5.00433
 20
7.18355
 30
0.0
 10
-6.34865
 20
7.18355
 30
0.0
 10
-6.34865
 20
7.18355
 30
0.0
 10
-6.34865
 20
7.18355
 30
0.0
 10
-6.34865
 20
7.18355
 30
0.0
 10
-6.37532
 20
7.24594
 30
0.0
 10
-6.37532
 20
7.24594
 30
0.0
 10
-6.37532
 20
7.24594
 30
0.0
 10
-6.37532
 20
7.24594
 30
0.0
 10
-7.09674
 20
8.93242
 30
0.0
 10
-7.09674
 20
8.93242
 30
0.0
 10
-7.09674
 20
8.93242
 30
0.0
 10
-7.09674
 20
8.93242
 30
0.0
 10
-5.00433
 20
12.66992
 30
0.0
 10
-5.00433
 20
12.66992
 30
0.0
  0
SPLINE
  5
68
330
1F
100
AcDbEntity
  8
Layer 1
370
     9
100
AcDbSpline
210
0.0
220
0.0
230
1.0
 70
    11
 71
     3
 72
    24
 73
    20
 74
     0
 42
0.0000000001
 43
0.0000000001
 12
1.0
 22
0.0
 32
0.0
 13
1.0
 23
0.0
 33
0.0
 40
0.0
 40
0.0
 40
0.0
 40
0.0
 40
0.1666666666666667
 40
0.1666666666666667
 40
0.1666666666666667
 40
0.1666666666666667
 40
0.3333333333333333
 40
0.3333333333333333
 40
0.3333333333333333
 40
0.3333333333333333
 40
0.5
 40
0.5
 40
0.5
 40
0.5
 40
0.6666666666666666
 40
0.6666666666666666
 40
0.6666666666666666
 40
0.6666666666666666
 40
1.0
 40
1.0
 40
1.0
 40
1.0
 10
-8.21548
 20
11.54779
 30
0.0
 10
-8.21548
 20
11.54779
 30
0.0
 10
-7.62305
 20
11.54779
 30
0.0
 10
-7.62305
 20
11.54779
 30
0.0
 10
-7.62305
 20
11.54779
 30
0.0
 10
-7.62305
 20
11.54779
 30
0.0
 10
-7.62305
 20
12.97133
 30
0.0
 10
-7.62305
 20
12.97133
 30
0.0
 10
-7.62305
 20
12.97133
 30
0.0
 10
-7.62305
 20
12.97133
 30
0.0
 10
-5.17303
 20
12.97133
 30
0.0
 10
-5.17303
 20
12.97133
 30
0.0
 10
-5.17303
 20
12.97133
 30
0.0
 10
-5.17303
 20
12.97133
 30
0.0
 10
-7.24293
 20
9.27413
 30
0.0
 10
-7.24293
 20
9.27413
 30
0.0
 10
-7.24293
 20
9.27413
 30
0.0
 10
-7.24293
 20
9.27413
 30
0.0
 10
-8.21548
 20
11.54779
 30
0.0
 10
-8.21548
 20
11.54779
 30
0.0
  0
SPLINE
  5
69
330
1F
100
AcDbEntity
  8
Layer 1
370
     9
100
AcDbSpline
210
0.0
220
0.0
230
1.0
 70
    11
 71
     3
 72
    24
 73
    20
 74
     0
 42
0.0000000001
 43
0.0000000001
 12
1.0
 22
0.0
 32
0.0
 13
1.0
 23
0.0
 33
0.0
 40
0.0
 40
0.0
 40
0.0
 40
0.0
 40
0.1666666666666667
 40
0.1666666666666667
 40
0.1666666666666667
 40
0.1666666666666667
 40
0.3333333333333333
 40
0.3333333333333333
 40
0.3333333333333333
 40
0.3333333333333333
 40
0.5
 40
0.5
 40
0.5
 40
0.5
 40
0.6666666666666666
 40
0.6666666666666666
 40
0.6666666666666666
 40
0.6666666666666666
 40
1.0
 40
1.0
 40
1.0
 40
1.0
 10
-10.0383
 20
-3.48476
 30
0.0
 10
-10.0383
 20
-3.48476
 30
0.0
 10
-10.63073
 20
-3.48476
 30
0.0
 10
-10.63073
 20
-3.48476
 30
0.0
 10
-10.63073
 20
-3.48476
 30
0.0
 10
-10.63073
 20
-3.48476
 30
0.0
 10
-10.63073
 20
-2.06124
 30
0.0
 10
-10.63073
 20
-2.06124
 30
0.0
 10
-10.63073
 20
-2.06124
 30
0.0
 10
-10.63073
 20
-2.06124
 30
0.0
 10
-13.08075
 20
-2.06124
 30
0.0
 10
-13.08075
 20
-2.06124
 30
0.0
 10
-13.08075
 20
-2.06124
 30
0.0
 10
-13.08075
 20
-2.06124
 30
0.0
 10
-11.01085
 20
-5.75852
 30
0.0
 10
-11.01085
 20
-5.75852
 30
0.0
 10
-11.01085
 20
-5.75852
 30
0.0
 10
-11.01085
 20
-5.75852
 30
0.0
 10
-10.0383
 20
-3.48476
 30
0.0
 10
-10.0383
 20
-3.48476
 30
0.0
  0
SPLINE
  5
6A
330
1F
100
AcDbEntity
  8
Layer 1
370
     9
100
AcDbSpline
210
0.0
220
0.0
230
1.0
 70
    11
 71
     3
 72
    24
 73
    20
 74
     0
 42
0.0000000001
 43
0.0000000001
 12
1.0
 22
0.0
 32
0.0
 13
1.0
 23
0.0
 33
0.0
 40
0.0
 40
0.0
 40
0.0
 40
0.0
 40
0.1666666666666667
 40
0.1666666666666667
 40
0.1666666666666667
 40
0.1666666666666667
 40
0.3333333333333333
 40
0.3333333333333333
 40
0.3333333333333333
 40
0.3333333333333333
 40
0.5
 40
0.5
 40
0.5
 40
0.5
 40
0.6666666666666666
 40
0.6666666666666666
 40
0.6666666666666666
 40
0.6666666666666666
 40
1.0
 40
1.0
 40
1.0
 40
1.0
 10
-8.21548
 20
-3.48476
 30
0.0
 10
-8.21548
 20
-3.48476
 30
0.0
 10
-7.62305
 20
-3.48476
 30
0.0
 10
-7.62305
 20
-3.48476
 30
0.0
 10
-7.62305
 20
-3.48476
 30
0.0
 10
-7.62305
 20
-3.48476
 30
0.0
 10
-7.62305
 20
-2.06124
 30
0.0
 10
-7.62305
 20
-2.06124
 30
0.0
 10
-7.62305
 20
-2.06124
 30
0.0
 10
-7.62305
 20
-2.06124
 30
0.0
 10
-5.17303
 20
-2.06124
 30
0.0
 10
-5.17303
 20
-2.06124
 30
0.0
 10
-5.17303
 20
-2.06124
 30
0.0
 10
-5.17303
 20
-2.06124
 30
0.0
 10
-7.2429
 20
-5.75852
 30
0.0
 10
-7.2429
 20
-5.75852
 30
0.0
 10
-7.2429
 20
-5.75852
 30
0.0
 10
-7.2429
 20
-5.75852
 30
0.0
 10
-8.21548
 20
-3.48476
 30
0.0
 10
-8.21548
 20
-3.48476
 30
0.0
  0
SPLINE
  5
6B
330
1F
100
AcDbEntity
  8
Layer 1
370
     9
100
AcDbSpline
210
0.0
220
0.0
230
1.0
 70
    11
 71
     3
 72
    24
 73
    20
 74
     0
 42
0.0000000001
 43
0.0000000001
 12
1.0
 22
0.0
 32
0.0
 13
1.0
 23
0.0
 33
0.0
 40
0.0
 40
0.0
 40
0.0
 40
0.0
 40
0.1666666666666667
 40
0.1666666666666667
 40
0.1666666666666667
 40
0.1666666666666667
 40
0.3333333333333333
 40
0.3333333333333333
 40
0.3333333333333333
 40
0.3333333333333333
 40
0.5
 40
0.5
 40
0.5
 40
0.5
 40
0.6666666666666666
 40
0.6666666666666666
 40
0.6666666666666666
 40
0.6666666666666666
 40
1.0
 40
1.0
 40
1.0
 40
1.0
 10
-10.0383
 20
14.69988
 30
0.0
 10
-10.0383
 20
14.69988
 30
0.0
 10
-10.63073
 20
14.69988
 30
0.0
 10
-10.63073
 20
14.69988
 30
0.0
 10
-10.63073
 20
14.69988
 30
0.0
 10
-10.63073
 20
14.69988
 30
0.0
 10
-10.63073
 20
13.27634
 30
0.0
 10
-10.63073
 20
13.27634
 30
0.0
 10
-10.63073
 20
13.27634
 30
0.0
 10
-10.63073
 20
13.27634
 30
0.0
 10
-13.08075
 20
13.27634
 30
0.0
 10
-13.08075
 20
13.27634
 30
0.0
 10
-13.08075
 20
13.27634
 30
0.0
 10
-13.08075
 20
13.27634
 30
0.0
 10
-11.01085
 20
16.97359
 30
0.0
 10
-11.01085
 20
16.97359
 30
0.0
 10
-11.01085
 20
16.97359
 30
0.0
 10
-11.01085
 20
16.97359
 30
0.0
 10
-10.0383
 20
14.69988
 30
0.0
 10
-10.0383
 20
14.69988
 30
0.0
  0
SPLINE
  5
6C
330
1F
100
AcDbEntity
  8
Layer 1
370
     9
100
AcDbSpline
210
0.0
220
0.0
230
1.0
 70
    11
 71
     3
 72
    24
 73
    20
 74
     0
 42
0.0000000001
 43
0.0000000001
 12
1.0
 22
0.0
 32
0.0
 13
1.0
 23
0.0
 33
0.0
 40
0.0
 40
0.0
 40
0.0
 40
0.0
 40
0.1666666666666667
 40
0.1666666666666667
 40
0.1666666666666667
 40
0.1666666666666667
 40
0.3333333333333333
 40
0.3333333333333333
 40
0.3333333333333333
 40
0.3333333333333333
 40
0.5
 40
0.5
 40
0.5
 40
0.5
 40
0.6666666666666666
 40
0.6666666666666666
 40
0.6666666666666666
 40
0.6666666666666666
 40
1.0
 40
1.0
 40
1.0
 40
1.0
 10
-8.21548
 20
14.69988
 30
0.0
 10
-8.21548
 20
14.69988
 30
0.0
 10
-7.62305
 20
14.69988
 30
0.0
 10
-7.62305
 20
14.69988
 30
0.0
 10
-7.62305
 20
14.69988
 30
0.0
 10
-7.62305
 20
14.69988
 30
0.0
 10
-7.62305
 20
13.27634
 30
0.0
 10
-7.62305
 20
13.27634
 30
0.0
 10
-7.62305
 20
13.27634
 30
0.0
 10
-7.62305
 20
13.27634
 30
0.0
 10
-5.17303
 20
13.27634
 30
0.0
 10
-5.17303
 20
13.27634
 30
0.0
 10
-5.17303
 20
13.27634
 30
0.0
 10
-5.17303
 20
13.27634
 30
0.0
 10
-7.2429
 20
16.97359
 30
0.0
 10
-7.2429
 20
16.97359
 30
0.0
 10
-7.2429
 20
16.97359
 30
0.0
 10
-7.2429
 20
16.97359
 30
0.0
 10
-8.21548
 20
14.69988
 30
0.0
 10
-8.21548
 20
14.69988
 30
0.0
  0
SPLINE
  5
6D
330
1F
100
AcDbEntity
  8
Layer 1
370
     9
100
AcDbSpline
210
0.0
220
0.0
230
1.0
 70
    11
 71
     3
 72
    32
 73
    28
 74
     0
 42
0.0000000001
 43
0.0000000001
 12
1.0
 22
0.0
 32
0.0
 13
1.0
 23
0.0
 33
0.0
 40
0.0
 40
0.0
 40
0.0
 40
0.0
 40
0.125
 40
0.125
 40
0.125
 40
0.125
 40
0.25
 40
0.25
 40
0.25
 40
0.25
 40
0.375
 40
0.375
 40
0.375
 40
0.375
 40
0.5
 40
0.5
 40
0.5
 40
0.5
 40
0.625
 40
0.625
 40
0.625
 40
0.625
 40
0.75
 40
0.75
 40
0.75
 40
0.75
 40
1.0
 40
1.0
 40
1.0
 40
1.0
 10
-10.82767
 20
-6.07589
 30
0.0
 10
-10.82767
 20
-6.07589
 30
0.0
 10
-9.74595
 20
-3.54718
 30
0.0
 10
-9.74595
 20
-3.54718
 30
0.0
 10
-9.74595
 20
-3.54718
 30
0.0
 10
-9.74595
 20
-3.54718
 30
0.0
 10
-9.71924
 20
-3.48476
 30
0.0
 10
-9.71924
 20
-3.48476
 30
0.0
 10
-9.71924
 20
-3.48476
 30
0.0
 10
-9.71924
 20
-3.48476
 30
0.0
 10
-9.12689
 20
-3.48476
 30
0.0
 10
-9.12689
 20
-3.48476
 30
0.0
 10
-9.12689
 20
-3.48476
 30
0.0
 10
-9.12689
 20
-3.48476
 30
0.0
 10
-8.53445
 20
-3.48476
 30
0.0
 10
-8.53445
 20
-3.48476
 30
0.0
 10
-8.53445
 20
-3.48476
 30
0.0
 10
-8.53445
 20
-3.48476
 30
0.0
 10
-8.50783
 20
-3.54718
 30
0.0
 10
-8.50783
 20
-3.54718
 30
0.0
 10
-8.50783
 20
-3.54718
 30
0.0
 10
-8.50783
 20
-3.54718
 30
0.0
 10
-7.42611
 20
-6.07589
 30
0.0
 10
-7.42611
 20
-6.07589
 30
0.0
 10
-7.42611
 20
-6.07589
 30
0.0
 10
-7.42611
 20
-6.07589
 30
0.0
 10
-10.82767
 20
-6.07589
 30
0.0
 10
-10.82767
 20
-6.07589
 30
0.0
  0
SPLINE
  5
6E
330
1F
100
AcDbEntity
  8
Layer 1
370
     9
100
AcDbSpline
210
0.0
220
0.0
230
1.0
 70
     8
 71
     3
 72
    16
 73
    12
 74
     0
 42
0.0000000001
 43
0.0000000001
 12
1.0
 22
0.0
 32
0.0
 13
1.0
 23
0.0
 33
0.0
 40
0.0
 40
0.0
 40
0.0
 40
0.0
 40
0.25
 40
0.25
 40
0.25
 40
0.25
 40
0.5
 40
0.5
 40
0.5
 40
0.5
 40
1.0
 40
1.0
 40
1.0
 40
1.0
 10
-5.00428
 20
-2.36269
 30
0.0
 10
-5.00428
 20
-2.36269
 30
0.0
 10
-5.00428
 20
-6.07589
 30
0.0
 10
-5.00428
 20
-6.07589
 30
0.0
 10
-5.00428
 20
-6.07589
 30
0.0
 10
-5.00428
 20
-6.07589
 30
0.0
 10
-7.08315
 20
-6.07589
 30
0.0
 10
-7.08315
 20
-6.07589
 30
0.0
 10
-7.08315
 20
-6.07589
 30
0.0
 10
-7.08315
 20
-6.07589
 30
0.0
 10
-5.00428
 20
-2.36267
 30
0.0
 10
-5.00428
 20
-2.36267
 30
0.0
  0
SPLINE
  5
6F
330
1F
100
AcDbEntity
  8
Layer 1
370
     9
100
AcDbSpline
210
0.0
220
0.0
230
1.0
 70
    11
 71
     3
 72
    32
 73
    28
 74
     0
 42
0.0000000001
 43
0.0000000001
 12
1.0
 22
0.0
 32
0.0
 13
1.0
 23
0.0
 33
0.0
 40
0.0
 40
0.0
 40
0.0
 40
0.0
 40
0.125
 40
0.125
 40
0.125
 40
0.125
 40
0.25
 40
0.25
 40
0.25
 40
0.25
 40
0.375
 40
0.375
 40
0.375
 40
0.375
 40
0.5
 40
0.5
 40
0.5
 40
0.5
 40
0.625
 40
0.625
 40
0.625
 40
0.625
 40
0.75
 40
0.75
 40
0.75
 40
0.75
 40
1.0
 40
1.0
 40
1.0
 40
1.0
 10
-7.42614
 20
17.29095
 30
0.0
 10
-7.42614
 20
17.29095
 30
0.0
 10
-8.50783
 20
14.76224
 30
0.0
 10
-8.50783
 20
14.76224
 30
0.0
 10
-8.50783
 20
14.76224
 30
0.0
 10
-8.50783
 20
14.76224
 30
0.0
 10
-8.53445
 20
14.69988
 30
0.0
 10
-8.53445
 20
14.69988
 30
0.0
 10
-8.53445
 20
14.69988
 30
0.0
 10
-8.53445
 20
14.69988
 30
0.0
 10
-9.12689
 20
14.69988
 30
0.0
 10
-9.12689
 20
14.69988
 30
0.0
 10
-9.12689
 20
14.69988
 30
0.0
 10
-9.12689
 20
14.69988
 30
0.0
 10
-9.71924
 20
14.69988
 30
0.0
 10
-9.71924
 20
14.69988
 30
0.0
 10
-9.71924
 20
14.69988
 30
0.0
 10
-9.71924
 20
14.69988
 30
0.0
 10
-9.74595
 20
14.76224
 30
0.0
 10
-9.74595
 20
14.76224
 30
0.0
 10
-9.74595
 20
14.76224
 30
0.0
 10
-9.74595
 20
14.76224
 30
0.0
 10
-10.82767
 20
17.29095
 30
0.0
 10
-10.82767
 20
17.29095
 30
0.0
 10
-10.82767
 20
17.29095
 30
0.0
 10
-10.82767
 20
17.29095
 30
0.0
 10
-7.42614
 20
17.29095
 30
0.0
 10
-7.42614
 20
17.29095
 30
0.0
  0
SPLINE
  5
70
330
1F
100
AcDbEntity
  8
Layer 1
370
     9
100
AcDbSpline
210
0.0
220
0.0
230
1.0
 70
     8
 71
     3
 72
    16
 73
    12
 74
     0
 42
0.0000000001
 43
0.0000000001
 12
1.0
 22
0.0
 32
0.0
 13
1.0
 23
0.0
 33
0.0
 40
0.0
 40
0.0
 40
0.0
 40
0.0
 40
0.25
 40
0.25
 40
0.25
 40
0.25
 40
0.5
 40
0.5
 40
0.5
 40
0.5
 40
1.0
 40
1.0
 40
1.0
 40
1.0
 10
-5.00433
 20
13.57775
 30
0.0
 10
-5.00433
 20
13.57775
 30
0.0
 10
-5.00433
 20
17.29095
 30
0.0
 10
-5.00433
 20
17.29095
 30
0.0
 10
-5.00433
 20
17.29095
 30
0.0
 10
-5.00433
 20
17.29095
 30
0.0
 10
-7.08315
 20
17.29095
 30
0.0
 10
-7.08315
 20
17.29095
 30
0.0
 10
-7.08315
 20
17.29095
 30
0.0
 10
-7.08315
 20
17.29095
 30
0.0
 10
-5.00428
 20
13.57775
 30
0.0
 10
-5.00428
 20
13.57775
 30
0.0
  0
SPLINE
  5
71
330
1F
100
AcDbEntity
  8
Layer 1
370
     9
100
AcDbSpline
210
0.0
220
0.0
230
1.0
 70
    11
 71
     3
 72
    24
 73
    20
 74
     0
 42
0.0000000001
 43
0.0000000001
 12
1.0
 22
0.0
 32
0.0
 13
1.0
 23
0.0
 33
0.0
 40
0.0
 40
0.0
 40
0.0
 40
0.0
 40
0.1666666666666667
 40
0.1666666666666667
 40
0.1666666666666667
 40
0.1666666666666667
 40
0.3333333333333333
 40
0.3333333333333333
 40
0.3333333333333333
 40
0.3333333333333333
 40
0.5
 40
0.5
 40
0.5
 40
0.5
 40
0.6666666666666666
 40
0.6666666666666666
 40
0.6666666666666666
 40
0.6666666666666666
 40
1.0
 40
1.0
 40
1.0
 40
1.0
 10
-13.2495
 20
4.03153
 30
0.0
 10
-13.2495
 20
4.03153
 30
0.0
 10
-11.90513
 20
4.03153
 30
0.0
 10
-11.90513
 20
4.03153
 30
0.0
 10
-11.90513
 20
4.03153
 30
0.0
 10
-11.90513
 20
4.03153
 30
0.0
 10
-11.87846
 20
3.96913
 30
0.0
 10
-11.87846
 20
3.96913
 30
0.0
 10
-11.87846
 20
3.96913
 30
0.0
 10
-11.87846
 20
3.96913
 30
0.0
 10
-11.15704
 20
2.28267
 30
0.0
 10
-11.15704
 20
2.28267
 30
0.0
 10
-11.15704
 20
2.28267
 30
0.0
 10
-11.15704
 20
2.28267
 30
0.0
 10
-13.2495
 20
-1.45486
 30
0.0
 10
-13.2495
 20
-1.45486
 30
0.0
 10
-13.2495
 20
-1.45486
 30
0.0
 10
-13.2495
 20
-1.45486
 30
0.0
 10
-13.2495
 20
4.03153
 30
0.0
 10
-13.2495
 20
4.03153
 30
0.0
  0
SPLINE
  5
72
330
1F
100
AcDbEntity
  8
Layer 1
370
     9
100
AcDbSpline
210
0.0
220
0.0
230
1.0
 70
    11
 71
     3
 72
    20
 73
    16
 74
     0
 42
0.0000000001
 43
0.0000000001
 12
1.0
 22
0.0
 32
0.0
 13
1.0
 23
0.0
 33
0.0
 40
0.0
 40
0.0
 40
0.0
 40
0.0
 40
0.2
 40
0.2
 40
0.2
 40
0.2
 40
0.4
 40
0.4
 40
0.4
 40
0.4
 40
0.6
 40
0.6
 40
0.6
 40
0.6
 40
1.0
 40
1.0
 40
1.0
 40
1.0
 10
-12.03671
 20
4.33654
 30
0.0
 10
-12.03671
 20
4.33654
 30
0.0
 10
-13.2495
 20
4.33654
 30
0.0
 10
-13.2495
 20
4.33654
 30
0.0
 10
-13.2495
 20
4.33654
 30
0.0
 10
-13.2495
 20
4.33654
 30
0.0
 10
-13.2495
 20
6.8785
 30
0.0
 10
-13.2495
 20
6.8785
 30
0.0
 10
-13.2495
 20
6.8785
 30
0.0
 10
-13.2495
 20
6.8785
 30
0.0
 10
-12.03671
 20
6.8785
 30
0.0
 10
-12.03671
 20
6.8785
 30
0.0
 10
-12.03671
 20
6.8785
 30
0.0
 10
-12.03671
 20
6.8785
 30
0.0
 10
-12.03671
 20
4.33654
 30
0.0
 10
-12.03671
 20
4.33654
 30
0.0
  0
SPLINE
  5
73
330
1F
100
AcDbEntity
  8
Layer 1
370
     9
100
AcDbSpline
210
0.0
220
0.0
230
1.0
 70
    11
 71
     3
 72
    24
 73
    20
 74
     0
 42
0.0000000001
 43
0.0000000001
 12
1.0
 22
0.0
 32
0.0
 13
1.0
 23
0.0
 33
0.0
 40
0.0
 40
0.0
 40
0.0
 40
0.0
 40
0.1666666666666667
 40
0.1666666666666667
 40
0.1666666666666667
 40
0.1666666666666667
 40
0.3333333333333333
 40
0.3333333333333333
 40
0.3333333333333333
 40
0.3333333333333333
 40
0.5
 40
0.5
 40
0.5
 40
0.5
 40
0.6666666666666666
 40
0.6666666666666666
 40
0.6666666666666666
 40
0.6666666666666666
 40
1.0
 40
1.0
 40
1.0
 40
1.0
 10
-13.2495
 20
12.66992
 30
0.0
 10
-13.2495
 20
12.66992
 30
0.0
 10
-11.15704
 20
8.93242
 30
0.0
 10
-11.15704
 20
8.93242
 30
0.0
 10
-11.15704
 20
8.93242
 30
0.0
 10
-11.15704
 20
8.93242
 30
0.0
 10
-11.87846
 20
7.24594
 30
0.0
 10
-11.87846
 20
7.24594
 30
0.0
 10
-11.87846
 20
7.24594
 30
0.0
 10
-11.87846
 20
7.24594
 30
0.0
 10
-11.90513
 20
7.18355
 30
0.0
 10
-11.90513
 20
7.18355
 30
0.0
 10
-11.90513
 20
7.18355
 30
0.0
 10
-11.90513
 20
7.18355
 30
0.0
 10
-13.2495
 20
7.18355
 30
0.0
 10
-13.2495
 20
7.18355
 30
0.0
 10
-13.2495
 20
7.18355
 30
0.0
 10
-13.2495
 20
7.18355
 30
0.0
 10
-13.2495
 20
12.66992
 30
0.0
 10
-13.2495
 20
12.66992
 30
0.0
  0
SPLINE
  5
74
330
1F
100
AcDbEntity
  8
Layer 1
370
     9
100
AcDbSpline
210
0.0
220
0.0
230
1.0
 70
     8
 71
     3
 72
    16
 73
    12
 74
     0
 42
0.0000000001
 43
0.0000000001
 12
1.0
 22
0.0
 32
0.0
 13
1.0
 23
0.0
 33
0.0
 40
0.0
 40
0.0
 40
0.0
 40
0.0
 40
0.25
 40
0.25
 40
0.25
 40
0.25
 40
0.5
 40
0.5
 40
0.5
 40
0.5
 40
1.0
 40
1.0
 40
1.0
 40
1.0
 10
-13.2495
 20
13.57772
 30
0.0
 10
-13.2495
 20
13.57772
 30
0.0
 10
-13.2495
 20
17.29095
 30
0.0
 10
-13.2495
 20
17.29095
 30
0.0
 10
-13.2495
 20
17.29095
 30
0.0
 10
-13.2495
 20
17.29095
 30
0.0
 10
-11.17063
 20
17.29095
 30
0.0
 10
-11.17063
 20
17.29095
 30
0.0
 10
-11.17063
 20
17.29095
 30
0.0
 10
-11.17063
 20
17.29095
 30
0.0
 10
-13.2495
 20
13.57775
 30
0.0
 10
-13.2495
 20
13.57775
 30
0.0
  0
SPLINE
  5
75
330
1F
100
AcDbEntity
  8
Layer 1
370
     9
100
AcDbSpline
210
0.0
220
0.0
230
1.0
 70
     8
 71
     3
 72
    16
 73
    12
 74
     0
 42
0.0000000001
 43
0.0000000001
 12
1.0
 22
0.0
 32
0.0
 13
1.0
 23
0.0
 33
0.0
 40
0.0
 40
0.0
 40
0.0
 40
0.0
 40
0.25
 40
0.25
 40
0.25
 40
0.25
 40
0.5
 40
0.5
 40
0.5
 40
0.5
 40
1.0
 40
1.0
 40
1.0
 40
1.0
 10
-13.2495
 20
-2.36269
 30
0.0
 10
-13.2495
 20
-2.36269
 30
0.0
 10
-11.17063
 20
-6.07589
 30
0.0
 10
-11.17063
 20
-6.07589
 30
0.0
 10
-11.17063
 20
-6.07589
 30
0.0
 10
-11.17063
 20
-6.07589
 30
0.0
 10
-13.2495
 20
-6.07589
 30
0.0
 10
-13.2495
 20
-6.07589
 30
0.0
 10
-13.2495
 20
-6.07589
 30
0.0
 10
-13.2495
 20
-6.07589
 30
0.0
 10
-13.2495
 20
-2.36267
 30
0.0
 10
-13.2495
 20
-2.36267
 30
0.0
  0
SPLINE
  5
76
330
1F
100
AcDbEntity
  8
Layer 1
370
     9
100
AcDbSpline
210
0.0
220
0.0
230
1.0
 70
    11
 71
     3
 72
    48
 73
    44
 74
     0
 42
0.0000000001
 43
0.0000000001
 12
1.0
 22
0.0
 32
0.0
 13
1.0
 23
0.0
 33
0.0
 40
0.0
 40
0.0
 40
0.0
 40
0.0
 40
0.0833333333333333
 40
0.0833333333333333
 40
0.0833333333333333
 40
0.0833333333333333
 40
0.1666666666666667
 40
0.1666666666666667
 40
0.1666666666666667
 40
0.1666666666666667
 40
0.25
 40
0.25
 40
0.25
 40
0.25
 40
0.3333333333333333
 40
0.3333333333333333
 40
0.3333333333333333
 40
0.3333333333333333
 40
0.4166666666666667
 40
0.4166666666666667
 40
0.4166666666666667
 40
0.4166666666666667
 40
0.5
 40
0.5
 40
0.5
 40
0.5
 40
0.5833333333333334
 40
0.5833333333333334
 40
0.5833333333333334
 40
0.5833333333333334
 40
0.6666666666666666
 40
0.6666666666666666
 40
0.6666666666666666
 40
0.6666666666666666
 40
0.75
 40
0.75
 40
0.75
 40
0.75
 40
0.8333333333333334
 40
0.8333333333333334
 40
0.8333333333333334
 40
0.8333333333333334
 40
1.0
 40
1.0
 40
1.0
 40
1.0
 10
-9.70034
 20
6.3304
 30
0.0
 10
-9.77047
 20
6.22664
 30
0.0
 10
-9.82293
 20
6.11201
 30
0.0
 10
-9.85558
 20
5.99108
 30
0.0
 10
-9.85558
 20
5.99108
 30
0.0
 10
-9.9229
 20
5.7421
 30
0.0
 10
-9.92359
 20
5.47995
 30
0.0
 10
-9.85755
 20
5.23065
 30
0.0
 10
-9.85755
 20
5.23065
 30
0.0
 10
-9.82491
 20
5.10728
 30
0.0
 10
-9.77175
 20
4.99031
 30
0.0
 10
-9.70034
 20
4.88464
 30
0.0
 10
-9.70034
 20
4.88464
 30
0.0
 10
-9.70034
 20
4.88464
 30
0.0
 10
-10.97622
 20
2.60564
 30
0.0
 10
-10.97622
 20
2.60564
 30
0.0
 10
-10.97622
 20
2.60564
 30
0.0
 10
-10.97622
 20
2.60564
 30
0.0
 10
-11.61286
 20
4.09391
 30
0.0
 10
-11.61286
 20
4.09391
 30
0.0
 10
-11.61286
 20
4.09391
 30
0.0
 10
-11.61286
 20
4.09391
 30
0.0
 10
-11.74561
 20
4.38902
 30
0.0
 10
-11.74561
 20
4.38902
 30
0.0
 10
-11.74561
 20
4.38902
 30
0.0
 10
-11.74561
 20
4.38902
 30
0.0
 10
-11.74561
 20
5.60754
 30
0.0
 10
-11.74561
 20
5.60754
 30
0.0
 10
-11.74561
 20
5.60754
 30
0.0
 10
-11.74561
 20
5.60754
 30
0.0
 10
-11.74561
 20
6.82606
 30
0.0
 10
-11.74561
 20
6.82606
 30
0.0
 10
-11.74561
 20
6.82606
 30
0.0
 10
-11.74561
 20
6.82606
 30
0.0
 10
-11.61286
 20
7.12119
 30
0.0
 10
-11.61286
 20
7.12119
 30
0.0
 10
-11.61286
 20
7.12119
 30
0.0
 10
-11.61286
 20
7.12119
 30
0.0
 10
-10.97622
 20
8.60945
 30
0.0
 10
-10.97622
 20
8.60945
 30
0.0
 10
-10.97622
 20
8.60945
 30
0.0
 10
-10.97622
 20
8.60945
 30
0.0
 10
-9.70034
 20
6.3304
 30
0.0
 10
-9.70034
 20
6.3304
 30
0.0
  0
SPLINE
  5
77
330
1F
100
AcDbEntity
  8
Layer 1
 62
   242
370
     9
100
AcDbSpline
210
0.0
220
0.0
230
1.0
 70
    11
 71
     3
 72
    20
 73
    16
 74
     0
 42
0.0000000001
 43
0.0000000001
 12
1.0
 22
0.0
 32
0.0
 13
1.0
 23
0.0
 33
0.0
 40
0.0
 40
0.0
 40
0.0
 40
0.0
 40
0.2
 40
0.2
 40
0.2
 40
0.2
 40
0.4
 40
0.4
 40
0.4
 40
0.4
 40
0.6
 40
0.6
 40
0.6
 40
0.6
 40
1.0
 40
1.0
 40
1.0
 40
1.0
 10
-3.47015
 20
-6.45721
 30
0.0
 10
-3.47015
 20
-6.45721
 30
0.0
 10
-3.47015
 20
17.67223
 30
0.0
 10
-3.47015
 20
17.67223
 30
0.0
 10
-3.47015
 20
17.67223
 30
0.0
 10
-3.47015
 20
17.67223
 30
0.0
 10
5.50257
 20
17.67223
 30
0.0
 10
5.50257
 20
17.67223
 30
0.0
 10
5.50257
 20
17.67223
 30
0.0
 10
5.50257
 20
17.67223
 30
0.0
 10
5.5026
 20
-6.45721
 30
0.0
 10
5.5026
 20
-6.45721
 30
0.0
 10
5.5026
 20
-6.45721
 30
0.0
 10
5.5026
 20
-6.45721
 30
0.0
 10
-3.47015
 20
-6.45721
 30
0.0
 10
-3.47015
 20
-6.45721
 30
0.0
  0
SPLINE
  5
78
330
1F
100
AcDbEntity
  8
Layer 1
 62
   242
370
     9
100
AcDbSpline
210
0.0
220
0.0
230
1.0
 70
    11
 71
     3
 72
    36
 73
    32
 74
     0
 42
0.0000000001
 43
0.0000000001
 12
1.0
 22
0.0
 32
0.0
 13
1.0
 23
0.0
 33
0.0
 40
0.0
 40
0.0
 40
0.0
 40
0.0
 40
0.1111111111111111
 40
0.1111111111111111
 40
0.1111111111111111
 40
0.1111111111111111
 40
0.2222222222222222
 40
0.2222222222222222
 40
0.2222222222222222
 40
0.2222222222222222
 40
0.3333333333333333
 40
0.3333333333333333
 40
0.3333333333333333
 40
0.3333333333333333
 40
0.4444444444444444
 40
0.4444444444444444
 40
0.4444444444444444
 40
0.4444444444444444
 40
0.5555555555555556
 40
0.5555555555555556
 40
0.5555555555555556
 40
0.5555555555555556
 40
0.6666666666666666
 40
0.6666666666666666
 40
0.6666666666666666
 40
0.6666666666666666
 40
0.7777777777777778
 40
0.7777777777777778
 40
0.7777777777777778
 40
0.7777777777777778
 40
1.0
 40
1.0
 40
1.0
 40
1.0
 10
2.22897
 20
-1.9088
 30
0.0
 10
2.22897
 20
-1.9088
 30
0.0
 10
2.22897
 20
-0.63775
 30
0.0
 10
2.22897
 20
-0.63775
 30
0.0
 10
2.22897
 20
-0.63775
 30
0.0
 10
2.22897
 20
-0.63775
 30
0.0
 10
1.01622
 20
-0.63775
 30
0.0
 10
1.01622
 20
-0.63775
 30
0.0
 10
1.01622
 20
-0.63775
 30
0.0
 10
1.01622
 20
-0.63775
 30
0.0
 10
-0.19653
 20
-0.63775
 30
0.0
 10
-0.19653
 20
-0.63775
 30
0.0
 10
-0.19653
 20
-0.63775
 30
0.0
 10
-0.19653
 20
-0.63775
 30
0.0
 10
-0.19653
 20
-1.9088
 30
0.0
 10
-0.19653
 20
-1.9088
 30
0.0
 10
-0.19653
 20
-1.9088
 30
0.0
 10
-0.19653
 20
-1.9088
 30
0.0
 10
-0.19653
 20
-3.17975
 30
0.0
 10
-0.19653
 20
-3.17975
 30
0.0
 10
-0.19653
 20
-3.17975
 30
0.0
 10
-0.19653
 20
-3.17975
 30
0.0
 10
1.01622
 20
-3.17975
 30
0.0
 10
1.01622
 20
-3.17975
 30
0.0
 10
1.01622
 20
-3.17975
 30
0.0
 10
1.01622
 20
-3.17975
 30
0.0
 10
2.22897
 20
-3.17975
 30
0.0
 10
2.22897
 20
-3.17975
 30
0.0
 10
2.22897
 20
-3.17975
 30
0.0
 10
2.22897
 20
-3.17975
 30
0.0
 10
2.22897
 20
-1.9088
 30
0.0
 10
2.22897
 20
-1.9088
 30
0.0
  0
SPLINE
  5
79
330
1F
100
AcDbEntity
  8
Layer 1
 62
   242
370
     9
100
AcDbSpline
210
0.0
220
0.0
230
1.0
 70
    11
 71
     3
 72
    68
 73
    64
 74
     0
 42
0.0000000001
 43
0.0000000001
 12
1.0
 22
0.0
 32
0.0
 13
1.0
 23
0.0
 33
0.0
 40
0.0
 40
0.0
 40
0.0
 40
0.0
 40
0.0588235294117647
 40
0.0588235294117647
 40
0.0588235294117647
 40
0.0588235294117647
 40
0.1176470588235294
 40
0.1176470588235294
 40
0.1176470588235294
 40
0.1176470588235294
 40
0.1764705882352941
 40
0.1764705882352941
 40
0.1764705882352941
 40
0.1764705882352941
 40
0.2352941176470588
 40
0.2352941176470588
 40
0.2352941176470588
 40
0.2352941176470588
 40
0.2941176470588235
 40
0.2941176470588235
 40
0.2941176470588235
 40
0.2941176470588235
 40
0.3529411764705883
 40
0.3529411764705883
 40
0.3529411764705883
 40
0.3529411764705883
 40
0.4117647058823529
 40
0.4117647058823529
 40
0.4117647058823529
 40
0.4117647058823529
 40
0.4705882352941176
 40
0.4705882352941176
 40
0.4705882352941176
 40
0.4705882352941176
 40
0.5294117647058824
 40
0.5294117647058824
 40
0.5294117647058824
 40
0.5294117647058824
 40
0.5882352941176471
 40
0.5882352941176471
 40
0.5882352941176471
 40
0.5882352941176471
 40
0.6470588235294118
 40
0.6470588235294118
 40
0.6470588235294118
 40
0.6470588235294118
 40
0.7058823529411765
 40
0.7058823529411765
 40
0.7058823529411765
 40
0.7058823529411765
 40
0.7647058823529411
 40
0.7647058823529411
 40
0.7647058823529411
 40
0.7647058823529411
 40
0.8235294117647058
 40
0.8235294117647058
 40
0.8235294117647058
 40
0.8235294117647058
 40
0.8823529411764706
 40
0.8823529411764706
 40
0.8823529411764706
 40
0.8823529411764706
 40
1.0
 40
1.0
 40
1.0
 40
1.0
 10
1.01622
 20
4.54279
 30
0.0
 10
1.01622
 20
4.54279
 30
0.0
 10
1.01845
 20
4.54279
 30
0.0
 10
1.01845
 20
4.54279
 30
0.0
 10
1.01845
 20
4.54279
 30
0.0
 10
1.01845
 20
4.54279
 30
0.0
 10
1.02065
 20
4.54279
 30
0.0
 10
1.02065
 20
4.54279
 30
0.0
 10
1.02065
 20
4.54279
 30
0.0
 10
1.08446
 20
4.54312
 30
0.0
 10
1.14771
 20
4.55398
 30
0.0
 10
1.20793
 20
4.57493
 30
0.0
 10
1.20793
 20
4.57493
 30
0.0
 10
1.26802
 20
4.59593
 30
0.0
 10
1.32484
 20
4.6253
 30
0.0
 10
1.37668
 20
4.66214
 30
0.0
 10
1.37668
 20
4.66214
 30
0.0
 10
1.37668
 20
4.66214
 30
0.0
 10
2.71938
 20
2.2639
 30
0.0
 10
2.71938
 20
2.2639
 30
0.0
 10
2.71938
 20
2.2639
 30
0.0
 10
2.71938
 20
2.2639
 30
0.0
 10
1.63528
 20
-0.27032
 30
0.0
 10
1.63528
 20
-0.27032
 30
0.0
 10
1.63528
 20
-0.27032
 30
0.0
 10
1.63528
 20
-0.27032
 30
0.0
 10
1.60866
 20
-0.33273
 30
0.0
 10
1.60866
 20
-0.33273
 30
0.0
 10
1.60866
 20
-0.33273
 30
0.0
 10
1.60866
 20
-0.33273
 30
0.0
 10
1.01622
 20
-0.33273
 30
0.0
 10
1.01622
 20
-0.33273
 30
0.0
 10
1.01622
 20
-0.33273
 30
0.0
 10
1.01622
 20
-0.33273
 30
0.0
 10
0.42381
 20
-0.33273
 30
0.0
 10
0.42381
 20
-0.33273
 30
0.0
 10
0.42381
 20
-0.33273
 30
0.0
 10
0.42381
 20
-0.33273
 30
0.0
 10
0.39716
 20
-0.27032
 30
0.0
 10
0.39716
 20
-0.27032
 30
0.0
 10
0.39716
 20
-0.27032
 30
0.0
 10
0.39716
 20
-0.27032
 30
0.0
 10
-0.68694
 20
2.2639
 30
0.0
 10
-0.68694
 20
2.2639
 30
0.0
 10
-0.68694
 20
2.2639
 30
0.0
 10
-0.68694
 20
2.2639
 30
0.0
 10
0.65576
 20
4.66218
 30
0.0
 10
0.65576
 20
4.66218
 30
0.0
 10
0.65576
 20
4.66218
 30
0.0
 10
0.70762
 20
4.62532
 30
0.0
 10
0.76442
 20
4.59593
 30
0.0
 10
0.82451
 20
4.57493
 30
0.0
 10
0.82451
 20
4.57493
 30
0.0
 10
0.88473
 20
4.55399
 30
0.0
 10
0.94798
 20
4.54312
 30
0.0
 10
1.01179
 20
4.54279
 30
0.0
 10
1.01179
 20
4.54279
 30
0.0
 10
1.01179
 20
4.54279
 30
0.0
 10
1.01399
 20
4.54279
 30
0.0
 10
1.01399
 20
4.54279
 30
0.0
 10
1.01399
 20
4.54279
 30
0.0
 10
1.01399
 20
4.54279
 30
0.0
 10
1.01622
 20
4.54279
 30
0.0
 10
1.01622
 20
4.54279
 30
0.0
  0
SPLINE
  5
7A
330
1F
100
AcDbEntity
  8
Layer 1
 62
   242
370
     9
100
AcDbSpline
210
0.0
220
0.0
230
1.0
 70
    11
 71
     3
 72
    24
 73
    20
 74
     0
 42
0.0000000001
 43
0.0000000001
 12
1.0
 22
0.0
 32
0.0
 13
1.0
 23
0.0
 33
0.0
 40
0.0
 40
0.0
 40
0.0
 40
0.0
 40
0.1666666666666667
 40
0.1666666666666667
 40
0.1666666666666667
 40
0.1666666666666667
 40
0.3333333333333333
 40
0.3333333333333333
 40
0.3333333333333333
 40
0.3333333333333333
 40
0.5
 40
0.5
 40
0.5
 40
0.5
 40
0.6666666666666666
 40
0.6666666666666666
 40
0.6666666666666666
 40
0.6666666666666666
 40
1.0
 40
1.0
 40
1.0
 40
1.0
 10
0.10481
 20
-0.33273
 30
0.0
 10
0.10481
 20
-0.33273
 30
0.0
 10
-0.48762
 20
-0.33273
 30
0.0
 10
-0.48762
 20
-0.33273
 30
0.0
 10
-0.48762
 20
-0.33273
 30
0.0
 10
-0.48762
 20
-0.33273
 30
0.0
 10
-0.48762
 20
-1.75621
 30
0.0
 10
-0.48762
 20
-1.75621
 30
0.0
 10
-0.48762
 20
-1.75621
 30
0.0
 10
-0.48762
 20
-1.75621
 30
0.0
 10
-2.93763
 20
-1.75621
 30
0.0
 10
-2.93763
 20
-1.75621
 30
0.0
 10
-2.93763
 20
-1.75621
 30
0.0
 10
-2.93763
 20
-1.75621
 30
0.0
 10
-0.86774
 20
1.94093
 30
0.0
 10
-0.86774
 20
1.94093
 30
0.0
 10
-0.86774
 20
1.94093
 30
0.0
 10
-0.86774
 20
1.94093
 30
0.0
 10
0.10481
 20
-0.33273
 30
0.0
 10
0.10481
 20
-0.33273
 30
0.0
  0
SPLINE
  5
7B
330
1F
100
AcDbEntity
  8
Layer 1
 62
   242
370
     9
100
AcDbSpline
210
0.0
220
0.0
230
1.0
 70
    11
 71
     3
 72
    36
 73
    32
 74
     0
 42
0.0000000001
 43
0.0000000001
 12
1.0
 22
0.0
 32
0.0
 13
1.0
 23
0.0
 33
0.0
 40
0.0
 40
0.0
 40
0.0
 40
0.0
 40
0.1111111111111111
 40
0.1111111111111111
 40
0.1111111111111111
 40
0.1111111111111111
 40
0.2222222222222222
 40
0.2222222222222222
 40
0.2222222222222222
 40
0.2222222222222222
 40
0.3333333333333333
 40
0.3333333333333333
 40
0.3333333333333333
 40
0.3333333333333333
 40
0.4444444444444444
 40
0.4444444444444444
 40
0.4444444444444444
 40
0.4444444444444444
 40
0.5555555555555556
 40
0.5555555555555556
 40
0.5555555555555556
 40
0.5555555555555556
 40
0.6666666666666666
 40
0.6666666666666666
 40
0.6666666666666666
 40
0.6666666666666666
 40
0.7777777777777778
 40
0.7777777777777778
 40
0.7777777777777778
 40
0.7777777777777778
 40
1.0
 40
1.0
 40
1.0
 40
1.0
 10
1.01622
 20
14.39483
 30
0.0
 10
1.01622
 20
14.39483
 30
0.0
 10
-0.19653
 20
14.39483
 30
0.0
 10
-0.19653
 20
14.39483
 30
0.0
 10
-0.19653
 20
14.39483
 30
0.0
 10
-0.19653
 20
14.39483
 30
0.0
 10
-0.19653
 20
13.12386
 30
0.0
 10
-0.19653
 20
13.12386
 30
0.0
 10
-0.19653
 20
13.12386
 30
0.0
 10
-0.19653
 20
13.12386
 30
0.0
 10
-0.19653
 20
11.85283
 30
0.0
 10
-0.19653
 20
11.85283
 30
0.0
 10
-0.19653
 20
11.85283
 30
0.0
 10
-0.19653
 20
11.85283
 30
0.0
 10
1.01622
 20
11.85283
 30
0.0
 10
1.01622
 20
11.85283
 30
0.0
 10
1.01622
 20
11.85283
 30
0.0
 10
1.01622
 20
11.85283
 30
0.0
 10
2.22897
 20
11.85283
 30
0.0
 10
2.22897
 20
11.85283
 30
0.0
 10
2.22897
 20
11.85283
 30
0.0
 10
2.22897
 20
11.85283
 30
0.0
 10
2.22897
 20
13.12386
 30
0.0
 10
2.22897
 20
13.12386
 30
0.0
 10
2.22897
 20
13.12386
 30
0.0
 10
2.22897
 20
13.12386
 30
0.0
 10
2.22897
 20
14.39483
 30
0.0
 10
2.22897
 20
14.39483
 30
0.0
 10
2.22897
 20
14.39483
 30
0.0
 10
2.22897
 20
14.39483
 30
0.0
 10
1.01622
 20
14.39483
 30
0.0
 10
1.01622
 20
14.39483
 30
0.0
  0
SPLINE
  5
7C
330
1F
100
AcDbEntity
  8
Layer 1
 62
   242
370
     9
100
AcDbSpline
210
0.0
220
0.0
230
1.0
 70
    11
 71
     3
 72
    68
 73
    64
 74
     0
 42
0.0000000001
 43
0.0000000001
 12
1.0
 22
0.0
 32
0.0
 13
1.0
 23
0.0
 33
0.0
 40
0.0
 40
0.0
 40
0.0
 40
0.0
 40
0.0588235294117647
 40
0.0588235294117647
 40
0.0588235294117647
 40
0.0588235294117647
 40
0.1176470588235294
 40
0.1176470588235294
 40
0.1176470588235294
 40
0.1176470588235294
 40
0.1764705882352941
 40
0.1764705882352941
 40
0.1764705882352941
 40
0.1764705882352941
 40
0.2352941176470588
 40
0.2352941176470588
 40
0.2352941176470588
 40
0.2352941176470588
 40
0.2941176470588235
 40
0.2941176470588235
 40
0.2941176470588235
 40
0.2941176470588235
 40
0.3529411764705883
 40
0.3529411764705883
 40
0.3529411764705883
 40
0.3529411764705883
 40
0.4117647058823529
 40
0.4117647058823529
 40
0.4117647058823529
 40
0.4117647058823529
 40
0.4705882352941176
 40
0.4705882352941176
 40
0.4705882352941176
 40
0.4705882352941176
 40
0.5294117647058824
 40
0.5294117647058824
 40
0.5294117647058824
 40
0.5294117647058824
 40
0.5882352941176471
 40
0.5882352941176471
 40
0.5882352941176471
 40
0.5882352941176471
 40
0.6470588235294118
 40
0.6470588235294118
 40
0.6470588235294118
 40
0.6470588235294118
 40
0.7058823529411765
 40
0.7058823529411765
 40
0.7058823529411765
 40
0.7058823529411765
 40
0.7647058823529411
 40
0.7647058823529411
 40
0.7647058823529411
 40
0.7647058823529411
 40
0.8235294117647058
 40
0.8235294117647058
 40
0.8235294117647058
 40
0.8235294117647058
 40
0.8823529411764706
 40
0.8823529411764706
 40
0.8823529411764706
 40
0.8823529411764706
 40
1.0
 40
1.0
 40
1.0
 40
1.0
 10
1.01622
 20
6.67221
 30
0.0
 10
1.01622
 20
6.67221
 30
0.0
 10
1.01845
 20
6.67221
 30
0.0
 10
1.01845
 20
6.67221
 30
0.0
 10
1.01845
 20
6.67221
 30
0.0
 10
1.01845
 20
6.67221
 30
0.0
 10
1.02065
 20
6.67221
 30
0.0
 10
1.02065
 20
6.67221
 30
0.0
 10
1.02065
 20
6.67221
 30
0.0
 10
1.08446
 20
6.67197
 30
0.0
 10
1.14771
 20
6.66107
 30
0.0
 10
1.20793
 20
6.6401
 30
0.0
 10
1.20793
 20
6.6401
 30
0.0
 10
1.26802
 20
6.61911
 30
0.0
 10
1.32484
 20
6.58974
 30
0.0
 10
1.37668
 20
6.55288
 30
0.0
 10
1.37668
 20
6.55288
 30
0.0
 10
1.37668
 20
6.55288
 30
0.0
 10
2.71938
 20
8.95112
 30
0.0
 10
2.71938
 20
8.95112
 30
0.0
 10
2.71938
 20
8.95112
 30
0.0
 10
2.71938
 20
8.95112
 30
0.0
 10
1.63528
 20
11.48543
 30
0.0
 10
1.63528
 20
11.48543
 30
0.0
 10
1.63528
 20
11.48543
 30
0.0
 10
1.63528
 20
11.48543
 30
0.0
 10
1.60866
 20
11.54779
 30
0.0
 10
1.60866
 20
11.54779
 30
0.0
 10
1.60866
 20
11.54779
 30
0.0
 10
1.60866
 20
11.54779
 30
0.0
 10
1.01622
 20
11.54779
 30
0.0
 10
1.01622
 20
11.54779
 30
0.0
 10
1.01622
 20
11.54779
 30
0.0
 10
1.01622
 20
11.54779
 30
0.0
 10
0.42381
 20
11.54779
 30
0.0
 10
0.42381
 20
11.54779
 30
0.0
 10
0.42381
 20
11.54779
 30
0.0
 10
0.42381
 20
11.54779
 30
0.0
 10
0.39716
 20
11.48543
 30
0.0
 10
0.39716
 20
11.48543
 30
0.0
 10
0.39716
 20
11.48543
 30
0.0
 10
0.39716
 20
11.48543
 30
0.0
 10
-0.68694
 20
8.95112
 30
0.0
 10
-0.68694
 20
8.95112
 30
0.0
 10
-0.68694
 20
8.95112
 30
0.0
 10
-0.68694
 20
8.95112
 30
0.0
 10
0.65576
 20
6.55288
 30
0.0
 10
0.65576
 20
6.55288
 30
0.0
 10
0.65576
 20
6.55288
 30
0.0
 10
0.70762
 20
6.58974
 30
0.0
 10
0.76442
 20
6.61911
 30
0.0
 10
0.82451
 20
6.6401
 30
0.0
 10
0.82451
 20
6.6401
 30
0.0
 10
0.88473
 20
6.66107
 30
0.0
 10
0.94798
 20
6.67197
 30
0.0
 10
1.01179
 20
6.67221
 30
0.0
 10
1.01179
 20
6.67221
 30
0.0
 10
1.01179
 20
6.67221
 30
0.0
 10
1.01399
 20
6.67221
 30
0.0
 10
1.01399
 20
6.67221
 30
0.0
 10
1.01399
 20
6.67221
 30
0.0
 10
1.01399
 20
6.67221
 30
0.0
 10
1.01622
 20
6.67221
 30
0.0
 10
1.01622
 20
6.67221
 30
0.0
  0
SPLINE
  5
7D
330
1F
100
AcDbEntity
  8
Layer 1
 62
   242
370
     9
100
AcDbSpline
210
0.0
220
0.0
230
1.0
 70
    11
 71
     3
 72
    24
 73
    20
 74
     0
 42
0.0000000001
 43
0.0000000001
 12
1.0
 22
0.0
 32
0.0
 13
1.0
 23
0.0
 33
0.0
 40
0.0
 40
0.0
 40
0.0
 40
0.0
 40
0.1666666666666667
 40
0.1666666666666667
 40
0.1666666666666667
 40
0.1666666666666667
 40
0.3333333333333333
 40
0.3333333333333333
 40
0.3333333333333333
 40
0.3333333333333333
 40
0.5
 40
0.5
 40
0.5
 40
0.5
 40
0.6666666666666666
 40
0.6666666666666666
 40
0.6666666666666666
 40
0.6666666666666666
 40
1.0
 40
1.0
 40
1.0
 40
1.0
 10
0.10481
 20
11.54779
 30
0.0
 10
0.10481
 20
11.54779
 30
0.0
 10
-0.48762
 20
11.54779
 30
0.0
 10
-0.48762
 20
11.54779
 30
0.0
 10
-0.48762
 20
11.54779
 30
0.0
 10
-0.48762
 20
11.54779
 30
0.0
 10
-0.48762
 20
12.97133
 30
0.0
 10
-0.48762
 20
12.97133
 30
0.0
 10
-0.48762
 20
12.97133
 30
0.0
 10
-0.48762
 20
12.97133
 30
0.0
 10
-2.93763
 20
12.97129
 30
0.0
 10
-2.93763
 20
12.97129
 30
0.0
 10
-2.93763
 20
12.97129
 30
0.0
 10
-2.93763
 20
12.97129
 30
0.0
 10
-0.86774
 20
9.27413
 30
0.0
 10
-0.86774
 20
9.27413
 30
0.0
 10
-0.86774
 20
9.27413
 30
0.0
 10
-0.86774
 20
9.27413
 30
0.0
 10
0.10481
 20
11.54779
 30
0.0
 10
0.10481
 20
11.54779
 30
0.0
  0
SPLINE
  5
7E
330
1F
100
AcDbEntity
  8
Layer 1
 62
   242
370
     9
100
AcDbSpline
210
0.0
220
0.0
230
1.0
 70
    11
 71
     3
 72
    52
 73
    48
 74
     0
 42
0.0000000001
 43
0.0000000001
 12
1.0
 22
0.0
 32
0.0
 13
1.0
 23
0.0
 33
0.0
 40
0.0
 40
0.0
 40
0.0
 40
0.0
 40
0.0769230769230769
 40
0.0769230769230769
 40
0.0769230769230769
 40
0.0769230769230769
 40
0.1538461538461539
 40
0.1538461538461539
 40
0.1538461538461539
 40
0.1538461538461539
 40
0.2307692307692308
 40
0.2307692307692308
 40
0.2307692307692308
 40
0.2307692307692308
 40
0.3076923076923077
 40
0.3076923076923077
 40
0.3076923076923077
 40
0.3076923076923077
 40
0.3846153846153846
 40
0.3846153846153846
 40
0.3846153846153846
 40
0.3846153846153846
 40
0.4615384615384616
 40
0.4615384615384616
 40
0.4615384615384616
 40
0.4615384615384616
 40
0.5384615384615384
 40
0.5384615384615384
 40
0.5384615384615384
 40
0.5384615384615384
 40
0.6153846153846154
 40
0.6153846153846154
 40
0.6153846153846154
 40
0.6153846153846154
 40
0.6923076923076923
 40
0.6923076923076923
 40
0.6923076923076923
 40
0.6923076923076923
 40
0.7692307692307693
 40
0.7692307692307693
 40
0.7692307692307693
 40
0.7692307692307693
 40
0.8461538461538461
 40
0.8461538461538461
 40
0.8461538461538461
 40
0.8461538461538461
 40
1.0
 40
1.0
 40
1.0
 40
1.0
 10
1.58964
 20
4.88457
 30
0.0
 10
1.58964
 20
4.88457
 30
0.0
 10
2.86555
 20
2.60564
 30
0.0
 10
2.86555
 20
2.60564
 30
0.0
 10
2.86555
 20
2.60564
 30
0.0
 10
2.86555
 20
2.60564
 30
0.0
 10
3.50213
 20
4.09391
 30
0.0
 10
3.50213
 20
4.09391
 30
0.0
 10
3.50213
 20
4.09391
 30
0.0
 10
3.50213
 20
4.09391
 30
0.0
 10
3.63494
 20
4.38902
 30
0.0
 10
3.63494
 20
4.38902
 30
0.0
 10
3.63494
 20
4.38902
 30
0.0
 10
3.63494
 20
4.38902
 30
0.0
 10
3.63494
 20
5.60754
 30
0.0
 10
3.63494
 20
5.60754
 30
0.0
 10
3.63494
 20
5.60754
 30
0.0
 10
3.63494
 20
5.60754
 30
0.0
 10
3.63494
 20
6.82604
 30
0.0
 10
3.63494
 20
6.82604
 30
0.0
 10
3.63494
 20
6.82604
 30
0.0
 10
3.63494
 20
6.82604
 30
0.0
 10
3.50213
 20
7.12119
 30
0.0
 10
3.50213
 20
7.12119
 30
0.0
 10
3.50213
 20
7.12119
 30
0.0
 10
3.50213
 20
7.12119
 30
0.0
 10
2.86555
 20
8.60945
 30
0.0
 10
2.86555
 20
8.60945
 30
0.0
 10
2.86555
 20
8.60945
 30
0.0
 10
2.86555
 20
8.60945
 30
0.0
 10
1.58964
 20
6.3304
 30
0.0
 10
1.58964
 20
6.3304
 30
0.0
 10
1.58964
 20
6.3304
 30
0.0
 10
1.66106
 20
6.22472
 30
0.0
 10
1.7142
 20
6.10772
 30
0.0
 10
1.74686
 20
5.98445
 30
0.0
 10
1.74686
 20
5.98445
 30
0.0
 10
1.77947
 20
5.86146
 30
0.0
 10
1.79581
 20
5.73474
 30
0.0
 10
1.79563
 20
5.60754
 30
0.0
 10
1.79563
 20
5.60754
 30
0.0
 10
1.79583
 20
5.48033
 30
0.0
 10
1.77946
 20
5.35358
 30
0.0
 10
1.74686
 20
5.23062
 30
0.0
 10
1.74686
 20
5.23062
 30
0.0
 10
1.7142
 20
5.10729
 30
0.0
 10
1.66106
 20
4.99031
 30
0.0
 10
1.58964
 20
4.88457
 30
0.0
  0
SPLINE
  5
7F
330
1F
100
AcDbEntity
  8
Layer 1
 62
   242
370
     9
100
AcDbSpline
210
0.0
220
0.0
230
1.0
 70
     8
 71
     3
 72
    24
 73
    20
 74
     0
 42
0.0000000001
 43
0.0000000001
 12
1.0
 22
0.0
 32
0.0
 13
1.0
 23
0.0
 33
0.0
 40
0.0
 40
0.0
 40
0.0
 40
0.0
 40
0.1666666666666667
 40
0.1666666666666667
 40
0.1666666666666667
 40
0.1666666666666667
 40
0.3333333333333333
 40
0.3333333333333333
 40
0.3333333333333333
 40
0.3333333333333333
 40
0.5
 40
0.5
 40
0.5
 40
0.5
 40
0.6666666666666666
 40
0.6666666666666666
 40
0.6666666666666666
 40
0.6666666666666666
 40
1.0
 40
1.0
 40
1.0
 40
1.0
 10
5.13883
 20
-1.45479
 30
0.0
 10
5.13883
 20
-1.45479
 30
0.0
 10
5.13883
 20
4.03153
 30
0.0
 10
5.13883
 20
4.03153
 30
0.0
 10
5.13883
 20
4.03153
 30
0.0
 10
5.13883
 20
4.03153
 30
0.0
 10
3.79446
 20
4.03153
 30
0.0
 10
3.79446
 20
4.03153
 30
0.0
 10
3.79446
 20
4.03153
 30
0.0
 10
3.79446
 20
4.03153
 30
0.0
 10
3.76779
 20
3.96913
 30
0.0
 10
3.76779
 20
3.96913
 30
0.0
 10
3.76779
 20
3.96913
 30
0.0
 10
3.76779
 20
3.96913
 30
0.0
 10
3.04637
 20
2.28267
 30
0.0
 10
3.04637
 20
2.28267
 30
0.0
 10
3.04637
 20
2.28267
 30
0.0
 10
3.04637
 20
2.28267
 30
0.0
 10
5.13883
 20
-1.45486
 30
0.0
 10
5.13883
 20
-1.45486
 30
0.0
  0
SPLINE
  5
80
330
1F
100
AcDbEntity
  8
Layer 1
 62
   242
370
     9
100
AcDbSpline
210
0.0
220
0.0
230
1.0
 70
    11
 71
     3
 72
    24
 73
    20
 74
     0
 42
0.0000000001
 43
0.0000000001
 12
1.0
 22
0.0
 32
0.0
 13
1.0
 23
0.0
 33
0.0
 40
0.0
 40
0.0
 40
0.0
 40
0.0
 40
0.1666666666666667
 40
0.1666666666666667
 40
0.1666666666666667
 40
0.1666666666666667
 40
0.3333333333333333
 40
0.3333333333333333
 40
0.3333333333333333
 40
0.3333333333333333
 40
0.5
 40
0.5
 40
0.5
 40
0.5
 40
0.6666666666666666
 40
0.6666666666666666
 40
0.6666666666666666
 40
0.6666666666666666
 40
1.0
 40
1.0
 40
1.0
 40
1.0
 10
1.92763
 20
-0.33273
 30
0.0
 10
1.92763
 20
-0.33273
 30
0.0
 10
2.52006
 20
-0.33273
 30
0.0
 10
2.52006
 20
-0.33273
 30
0.0
 10
2.52006
 20
-0.33273
 30
0.0
 10
2.52006
 20
-0.33273
 30
0.0
 10
2.52006
 20
-1.75621
 30
0.0
 10
2.52006
 20
-1.75621
 30
0.0
 10
2.52006
 20
-1.75621
 30
0.0
 10
2.52006
 20
-1.75621
 30
0.0
 10
4.97008
 20
-1.75621
 30
0.0
 10
4.97008
 20
-1.75621
 30
0.0
 10
4.97008
 20
-1.75621
 30
0.0
 10
4.97008
 20
-1.75621
 30
0.0
 10
2.90021
 20
1.94093
 30
0.0
 10
2.90021
 20
1.94093
 30
0.0
 10
2.90021
 20
1.94093
 30
0.0
 10
2.90021
 20
1.94093
 30
0.0
 10
1.92763
 20
-0.33273
 30
0.0
 10
1.92763
 20
-0.33273
 30
0.0
  0
SPLINE
  5
81
330
1F
100
AcDbEntity
  8
Layer 1
 62
   242
370
     9
100
AcDbSpline
210
0.0
220
0.0
230
1.0
 70
     8
 71
     3
 72
    24
 73
    20
 74
     0
 42
0.0000000001
 43
0.0000000001
 12
1.0
 22
0.0
 32
0.0
 13
1.0
 23
0.0
 33
0.0
 40
0.0
 40
0.0
 40
0.0
 40
0.0
 40
0.1666666666666667
 40
0.1666666666666667
 40
0.1666666666666667
 40
0.1666666666666667
 40
0.3333333333333333
 40
0.3333333333333333
 40
0.3333333333333333
 40
0.3333333333333333
 40
0.5
 40
0.5
 40
0.5
 40
0.5
 40
0.6666666666666666
 40
0.6666666666666666
 40
0.6666666666666666
 40
0.6666666666666666
 40
1.0
 40
1.0
 40
1.0
 40
1.0
 10
5.13878
 20
4.33654
 30
0.0
 10
5.13878
 20
4.33654
 30
0.0
 10
5.13878
 20
6.8785
 30
0.0
 10
5.13878
 20
6.8785
 30
0.0
 10
5.13878
 20
6.8785
 30
0.0
 10
5.13878
 20
6.8785
 30
0.0
 10
3.92603
 20
6.8785
 30
0.0
 10
3.92603
 20
6.8785
 30
0.0
 10
3.92603
 20
6.8785
 30
0.0
 10
3.92603
 20
6.8785
 30
0.0
 10
3.92604
 20
5.60754
 30
0.0
 10
3.92604
 20
5.60754
 30
0.0
 10
3.92604
 20
5.60754
 30
0.0
 10
3.92604
 20
5.60754
 30
0.0
 10
3.92604
 20
4.33654
 30
0.0
 10
3.92604
 20
4.33654
 30
0.0
 10
3.92604
 20
4.33654
 30
0.0
 10
3.92604
 20
4.33654
 30
0.0
 10
5.13883
 20
4.33654
 30
0.0
 10
5.13883
 20
4.33654
 30
0.0
  0
SPLINE
  5
82
330
1F
100
AcDbEntity
  8
Layer 1
 62
   242
370
     9
100
AcDbSpline
210
0.0
220
0.0
230
1.0
 70
    11
 71
     3
 72
    24
 73
    20
 74
     0
 42
0.0000000001
 43
0.0000000001
 12
1.0
 22
0.0
 32
0.0
 13
1.0
 23
0.0
 33
0.0
 40
0.0
 40
0.0
 40
0.0
 40
0.0
 40
0.1666666666666667
 40
0.1666666666666667
 40
0.1666666666666667
 40
0.1666666666666667
 40
0.3333333333333333
 40
0.3333333333333333
 40
0.3333333333333333
 40
0.3333333333333333
 40
0.5
 40
0.5
 40
0.5
 40
0.5
 40
0.6666666666666666
 40
0.6666666666666666
 40
0.6666666666666666
 40
0.6666666666666666
 40
1.0
 40
1.0
 40
1.0
 40
1.0
 10
5.13878
 20
12.66992
 30
0.0
 10
5.13878
 20
12.66992
 30
0.0
 10
5.13878
 20
7.18355
 30
0.0
 10
5.13878
 20
7.18355
 30
0.0
 10
5.13878
 20
7.18355
 30
0.0
 10
5.13878
 20
7.18355
 30
0.0
 10
3.79446
 20
7.18355
 30
0.0
 10
3.79446
 20
7.18355
 30
0.0
 10
3.79446
 20
7.18355
 30
0.0
 10
3.79446
 20
7.18355
 30
0.0
 10
3.76779
 20
7.24594
 30
0.0
 10
3.76779
 20
7.24594
 30
0.0
 10
3.76779
 20
7.24594
 30
0.0
 10
3.76779
 20
7.24594
 30
0.0
 10
3.04637
 20
8.93242
 30
0.0
 10
3.04637
 20
8.93242
 30
0.0
 10
3.04637
 20
8.93242
 30
0.0
 10
3.04637
 20
8.93242
 30
0.0
 10
5.13878
 20
12.66992
 30
0.0
 10
5.13878
 20
12.66992
 30
0.0
  0
SPLINE
  5
83
330
1F
100
AcDbEntity
  8
Layer 1
 62
   242
370
     9
100
AcDbSpline
210
0.0
220
0.0
230
1.0
 70
    11
 71
     3
 72
    24
 73
    20
 74
     0
 42
0.0000000001
 43
0.0000000001
 12
1.0
 22
0.0
 32
0.0
 13
1.0
 23
0.0
 33
0.0
 40
0.0
 40
0.0
 40
0.0
 40
0.0
 40
0.1666666666666667
 40
0.1666666666666667
 40
0.1666666666666667
 40
0.1666666666666667
 40
0.3333333333333333
 40
0.3333333333333333
 40
0.3333333333333333
 40
0.3333333333333333
 40
0.5
 40
0.5
 40
0.5
 40
0.5
 40
0.6666666666666666
 40
0.6666666666666666
 40
0.6666666666666666
 40
0.6666666666666666
 40
1.0
 40
1.0
 40
1.0
 40
1.0
 10
1.92763
 20
11.54779
 30
0.0
 10
1.92763
 20
11.54779
 30
0.0
 10
2.52006
 20
11.54779
 30
0.0
 10
2.52006
 20
11.54779
 30
0.0
 10
2.52006
 20
11.54779
 30
0.0
 10
2.52006
 20
11.54779
 30
0.0
 10
2.52006
 20
12.97133
 30
0.0
 10
2.52006
 20
12.97133
 30
0.0
 10
2.52006
 20
12.97133
 30
0.0
 10
2.52006
 20
12.97133
 30
0.0
 10
4.97008
 20
12.97133
 30
0.0
 10
4.97008
 20
12.97133
 30
0.0
 10
4.97008
 20
12.97133
 30
0.0
 10
4.97008
 20
12.97133
 30
0.0
 10
2.90018
 20
9.27413
 30
0.0
 10
2.90018
 20
9.27413
 30
0.0
 10
2.90018
 20
9.27413
 30
0.0
 10
2.90018
 20
9.27413
 30
0.0
 10
1.92763
 20
11.54779
 30
0.0
 10
1.92763
 20
11.54779
 30
0.0
  0
SPLINE
  5
84
330
1F
100
AcDbEntity
  8
Layer 1
 62
   242
370
     9
100
AcDbSpline
210
0.0
220
0.0
230
1.0
 70
    11
 71
     3
 72
    24
 73
    20
 74
     0
 42
0.0000000001
 43
0.0000000001
 12
1.0
 22
0.0
 32
0.0
 13
1.0
 23
0.0
 33
0.0
 40
0.0
 40
0.0
 40
0.0
 40
0.0
 40
0.1666666666666667
 40
0.1666666666666667
 40
0.1666666666666667
 40
0.1666666666666667
 40
0.3333333333333333
 40
0.3333333333333333
 40
0.3333333333333333
 40
0.3333333333333333
 40
0.5
 40
0.5
 40
0.5
 40
0.5
 40
0.6666666666666666
 40
0.6666666666666666
 40
0.6666666666666666
 40
0.6666666666666666
 40
1.0
 40
1.0
 40
1.0
 40
1.0
 10
0.10481
 20
-3.48476
 30
0.0
 10
0.10481
 20
-3.48476
 30
0.0
 10
-0.48762
 20
-3.48476
 30
0.0
 10
-0.48762
 20
-3.48476
 30
0.0
 10
-0.48762
 20
-3.48476
 30
0.0
 10
-0.48762
 20
-3.48476
 30
0.0
 10
-0.48762
 20
-2.06124
 30
0.0
 10
-0.48762
 20
-2.06124
 30
0.0
 10
-0.48762
 20
-2.06124
 30
0.0
 10
-0.48762
 20
-2.06124
 30
0.0
 10
-2.93763
 20
-2.06124
 30
0.0
 10
-2.93763
 20
-2.06124
 30
0.0
 10
-2.93763
 20
-2.06124
 30
0.0
 10
-2.93763
 20
-2.06124
 30
0.0
 10
-0.86774
 20
-5.75852
 30
0.0
 10
-0.86774
 20
-5.75852
 30
0.0
 10
-0.86774
 20
-5.75852
 30
0.0
 10
-0.86774
 20
-5.75852
 30
0.0
 10
0.10481
 20
-3.48476
 30
0.0
 10
0.10481
 20
-3.48476
 30
0.0
  0
SPLINE
  5
85
330
1F
100
AcDbEntity
  8
Layer 1
 62
   242
370
     9
100
AcDbSpline
210
0.0
220
0.0
230
1.0
 70
    11
 71
     3
 72
    24
 73
    20
 74
     0
 42
0.0000000001
 43
0.0000000001
 12
1.0
 22
0.0
 32
0.0
 13
1.0
 23
0.0
 33
0.0
 40
0.0
 40
0.0
 40
0.0
 40
0.0
 40
0.1666666666666667
 40
0.1666666666666667
 40
0.1666666666666667
 40
0.1666666666666667
 40
0.3333333333333333
 40
0.3333333333333333
 40
0.3333333333333333
 40
0.3333333333333333
 40
0.5
 40
0.5
 40
0.5
 40
0.5
 40
0.6666666666666666
 40
0.6666666666666666
 40
0.6666666666666666
 40
0.6666666666666666
 40
1.0
 40
1.0
 40
1.0
 40
1.0
 10
1.92763
 20
-3.48476
 30
0.0
 10
1.92763
 20
-3.48476
 30
0.0
 10
2.52006
 20
-3.48476
 30
0.0
 10
2.52006
 20
-3.48476
 30
0.0
 10
2.52006
 20
-3.48476
 30
0.0
 10
2.52006
 20
-3.48476
 30
0.0
 10
2.52006
 20
-2.06124
 30
0.0
 10
2.52006
 20
-2.06124
 30
0.0
 10
2.52006
 20
-2.06124
 30
0.0
 10
2.52006
 20
-2.06124
 30
0.0
 10
4.97008
 20
-2.06124
 30
0.0
 10
4.97008
 20
-2.06124
 30
0.0
 10
4.97008
 20
-2.06124
 30
0.0
 10
4.97008
 20
-2.06124
 30
0.0
 10
2.90021
 20
-5.75852
 30
0.0
 10
2.90021
 20
-5.75852
 30
0.0
 10
2.90021
 20
-5.75852
 30
0.0
 10
2.90021
 20
-5.75852
 30
0.0
 10
1.92763
 20
-3.48476
 30
0.0
 10
1.92763
 20
-3.48476
 30
0.0
  0
SPLINE
  5
86
330
1F
100
AcDbEntity
  8
Layer 1
 62
   242
370
     9
100
AcDbSpline
210
0.0
220
0.0
230
1.0
 70
    11
 71
     3
 72
    24
 73
    20
 74
     0
 42
0.0000000001
 43
0.0000000001
 12
1.0
 22
0.0
 32
0.0
 13
1.0
 23
0.0
 33
0.0
 40
0.0
 40
0.0
 40
0.0
 40
0.0
 40
0.1666666666666667
 40
0.1666666666666667
 40
0.1666666666666667
 40
0.1666666666666667
 40
0.3333333333333333
 40
0.3333333333333333
 40
0.3333333333333333
 40
0.3333333333333333
 40
0.5
 40
0.5
 40
0.5
 40
0.5
 40
0.6666666666666666
 40
0.6666666666666666
 40
0.6666666666666666
 40
0.6666666666666666
 40
1.0
 40
1.0
 40
1.0
 40
1.0
 10
0.10481
 20
14.69988
 30
0.0
 10
0.10481
 20
14.69988
 30
0.0
 10
-0.48762
 20
14.69988
 30
0.0
 10
-0.48762
 20
14.69988
 30
0.0
 10
-0.48762
 20
14.69988
 30
0.0
 10
-0.48762
 20
14.69988
 30
0.0
 10
-0.48762
 20
13.27634
 30
0.0
 10
-0.48762
 20
13.27634
 30
0.0
 10
-0.48762
 20
13.27634
 30
0.0
 10
-0.48762
 20
13.27634
 30
0.0
 10
-2.93763
 20
13.27634
 30
0.0
 10
-2.93763
 20
13.27634
 30
0.0
 10
-2.93763
 20
13.27634
 30
0.0
 10
-2.93763
 20
13.27634
 30
0.0
 10
-0.86774
 20
16.97359
 30
0.0
 10
-0.86774
 20
16.97359
 30
0.0
 10
-0.86774
 20
16.97359
 30
0.0
 10
-0.86774
 20
16.97359
 30
0.0
 10
0.10481
 20
14.69988
 30
0.0
 10
0.10481
 20
14.69988
 30
0.0
  0
SPLINE
  5
87
330
1F
100
AcDbEntity
  8
Layer 1
 62
   242
370
     9
100
AcDbSpline
210
0.0
220
0.0
230
1.0
 70
    11
 71
     3
 72
    24
 73
    20
 74
     0
 42
0.0000000001
 43
0.0000000001
 12
1.0
 22
0.0
 32
0.0
 13
1.0
 23
0.0
 33
0.0
 40
0.0
 40
0.0
 40
0.0
 40
0.0
 40
0.1666666666666667
 40
0.1666666666666667
 40
0.1666666666666667
 40
0.1666666666666667
 40
0.3333333333333333
 40
0.3333333333333333
 40
0.3333333333333333
 40
0.3333333333333333
 40
0.5
 40
0.5
 40
0.5
 40
0.5
 40
0.6666666666666666
 40
0.6666666666666666
 40
0.6666666666666666
 40
0.6666666666666666
 40
1.0
 40
1.0
 40
1.0
 40
1.0
 10
1.92763
 20
14.69988
 30
0.0
 10
1.92763
 20
14.69988
 30
0.0
 10
2.52006
 20
14.69988
 30
0.0
 10
2.52006
 20
14.69988
 30
0.0
 10
2.52006
 20
14.69988
 30
0.0
 10
2.52006
 20
14.69988
 30
0.0
 10
2.52006
 20
13.27634
 30
0.0
 10
2.52006
 20
13.27634
 30
0.0
 10
2.52006
 20
13.27634
 30
0.0
 10
2.52006
 20
13.27634
 30
0.0
 10
4.97008
 20
13.27634
 30
0.0
 10
4.97008
 20
13.27634
 30
0.0
 10
4.97008
 20
13.27634
 30
0.0
 10
4.97008
 20
13.27634
 30
0.0
 10
2.90021
 20
16.97359
 30
0.0
 10
2.90021
 20
16.97359
 30
0.0
 10
2.90021
 20
16.97359
 30
0.0
 10
2.90021
 20
16.97359
 30
0.0
 10
1.92763
 20
14.69988
 30
0.0
 10
1.92763
 20
14.69988
 30
0.0
  0
SPLINE
  5
88
330
1F
100
AcDbEntity
  8
Layer 1
 62
   242
370
     9
100
AcDbSpline
210
0.0
220
0.0
230
1.0
 70
    11
 71
     3
 72
    32
 73
    28
 74
     0
 42
0.0000000001
 43
0.0000000001
 12
1.0
 22
0.0
 32
0.0
 13
1.0
 23
0.0
 33
0.0
 40
0.0
 40
0.0
 40
0.0
 40
0.0
 40
0.125
 40
0.125
 40
0.125
 40
0.125
 40
0.25
 40
0.25
 40
0.25
 40
0.25
 40
0.375
 40
0.375
 40
0.375
 40
0.375
 40
0.5
 40
0.5
 40
0.5
 40
0.5
 40
0.625
 40
0.625
 40
0.625
 40
0.625
 40
0.75
 40
0.75
 40
0.75
 40
0.75
 40
1.0
 40
1.0
 40
1.0
 40
1.0
 10
-0.68456
 20
-6.07589
 30
0.0
 10
-0.68456
 20
-6.07589
 30
0.0
 10
0.39716
 20
-3.54718
 30
0.0
 10
0.39716
 20
-3.54718
 30
0.0
 10
0.39716
 20
-3.54718
 30
0.0
 10
0.39716
 20
-3.54718
 30
0.0
 10
0.42387
 20
-3.48476
 30
0.0
 10
0.42387
 20
-3.48476
 30
0.0
 10
0.42387
 20
-3.48476
 30
0.0
 10
0.42387
 20
-3.48476
 30
0.0
 10
1.01622
 20
-3.48476
 30
0.0
 10
1.01622
 20
-3.48476
 30
0.0
 10
1.01622
 20
-3.48476
 30
0.0
 10
1.01622
 20
-3.48476
 30
0.0
 10
1.60866
 20
-3.48476
 30
0.0
 10
1.60866
 20
-3.48476
 30
0.0
 10
1.60866
 20
-3.48476
 30
0.0
 10
1.60866
 20
-3.48476
 30
0.0
 10
1.63528
 20
-3.54718
 30
0.0
 10
1.63528
 20
-3.54718
 30
0.0
 10
1.63528
 20
-3.54718
 30
0.0
 10
1.63528
 20
-3.54718
 30
0.0
 10
2.717
 20
-6.07589
 30
0.0
 10
2.717
 20
-6.07589
 30
0.0
 10
2.717
 20
-6.07589
 30
0.0
 10
2.717
 20
-6.07589
 30
0.0
 10
-0.68456
 20
-6.07589
 30
0.0
 10
-0.68456
 20
-6.07589
 30
0.0
  0
SPLINE
  5
89
330
1F
100
AcDbEntity
  8
Layer 1
 62
   242
370
     9
100
AcDbSpline
210
0.0
220
0.0
230
1.0
 70
     8
 71
     3
 72
    16
 73
    12
 74
     0
 42
0.0000000001
 43
0.0000000001
 12
1.0
 22
0.0
 32
0.0
 13
1.0
 23
0.0
 33
0.0
 40
0.0
 40
0.0
 40
0.0
 40
0.0
 40
0.25
 40
0.25
 40
0.25
 40
0.25
 40
0.5
 40
0.5
 40
0.5
 40
0.5
 40
1.0
 40
1.0
 40
1.0
 40
1.0
 10
5.13883
 20
-2.36269
 30
0.0
 10
5.13883
 20
-2.36269
 30
0.0
 10
5.13883
 20
-6.07589
 30
0.0
 10
5.13883
 20
-6.07589
 30
0.0
 10
5.13883
 20
-6.07589
 30
0.0
 10
5.13883
 20
-6.07589
 30
0.0
 10
3.05996
 20
-6.07589
 30
0.0
 10
3.05996
 20
-6.07589
 30
0.0
 10
3.05996
 20
-6.07589
 30
0.0
 10
3.05996
 20
-6.07589
 30
0.0
 10
5.13883
 20
-2.36267
 30
0.0
 10
5.13883
 20
-2.36267
 30
0.0
  0
SPLINE
  5
8A
330
1F
100
AcDbEntity
  8
Layer 1
 62
   242
370
     9
100
AcDbSpline
210
0.0
220
0.0
230
1.0
 70
    11
 71
     3
 72
    32
 73
    28
 74
     0
 42
0.0000000001
 43
0.0000000001
 12
1.0
 22
0.0
 32
0.0
 13
1.0
 23
0.0
 33
0.0
 40
0.0
 40
0.0
 40
0.0
 40
0.0
 40
0.125
 40
0.125
 40
0.125
 40
0.125
 40
0.25
 40
0.25
 40
0.25
 40
0.25
 40
0.375
 40
0.375
 40
0.375
 40
0.375
 40
0.5
 40
0.5
 40
0.5
 40
0.5
 40
0.625
 40
0.625
 40
0.625
 40
0.625
 40
0.75
 40
0.75
 40
0.75
 40
0.75
 40
1.0
 40
1.0
 40
1.0
 40
1.0
 10
2.71697
 20
17.29095
 30
0.0
 10
2.71697
 20
17.29095
 30
0.0
 10
1.63528
 20
14.76224
 30
0.0
 10
1.63528
 20
14.76224
 30
0.0
 10
1.63528
 20
14.76224
 30
0.0
 10
1.63528
 20
14.76224
 30
0.0
 10
1.60866
 20
14.69988
 30
0.0
 10
1.60866
 20
14.69988
 30
0.0
 10
1.60866
 20
14.69988
 30
0.0
 10
1.60866
 20
14.69988
 30
0.0
 10
1.01622
 20
14.69988
 30
0.0
 10
1.01622
 20
14.69988
 30
0.0
 10
1.01622
 20
14.69988
 30
0.0
 10
1.01622
 20
14.69988
 30
0.0
 10
0.42387
 20
14.69988
 30
0.0
 10
0.42387
 20
14.69988
 30
0.0
 10
0.42387
 20
14.69988
 30
0.0
 10
0.42387
 20
14.69988
 30
0.0
 10
0.39716
 20
14.76224
 30
0.0
 10
0.39716
 20
14.76224
 30
0.0
 10
0.39716
 20
14.76224
 30
0.0
 10
0.39716
 20
14.76224
 30
0.0
 10
-0.68456
 20
17.29095
 30
0.0
 10
-0.68456
 20
17.29095
 30
0.0
 10
-0.68456
 20
17.29095
 30
0.0
 10
-0.68456
 20
17.29095
 30
0.0
 10
2.71697
 20
17.29095
 30
0.0
 10
2.71697
 20
17.29095
 30
0.0
  0
SPLINE
  5
8B
330
1F
100
AcDbEntity
  8
Layer 1
 62
   242
370
     9
100
AcDbSpline
210
0.0
220
0.0
230
1.0
 70
     8
 71
     3
 72
    16
 73
    12
 74
     0
 42
0.0000000001
 43
0.0000000001
 12
1.0
 22
0.0
 32
0.0
 13
1.0
 23
0.0
 33
0.0
 40
0.0
 40
0.0
 40
0.0
 40
0.0
 40
0.25
 40
0.25
 40
0.25
 40
0.25
 40
0.5
 40
0.5
 40
0.5
 40
0.5
 40
1.0
 40
1.0
 40
1.0
 40
1.0
 10
5.13878
 20
13.57775
 30
0.0
 10
5.13878
 20
13.57775
 30
0.0
 10
5.13878
 20
17.29095
 30
0.0
 10
5.13878
 20
17.29095
 30
0.0
 10
5.13878
 20
17.29095
 30
0.0
 10
5.13878
 20
17.29095
 30
0.0
 10
3.05996
 20
17.29095
 30
0.0
 10
3.05996
 20
17.29095
 30
0.0
 10
3.05996
 20
17.29095
 30
0.0
 10
3.05996
 20
17.29095
 30
0.0
 10
5.13883
 20
13.57775
 30
0.0
 10
5.13883
 20
13.57775
 30
0.0
  0
SPLINE
  5
8C
330
1F
100
AcDbEntity
  8
Layer 1
 62
   242
370
     9
100
AcDbSpline
210
0.0
220
0.0
230
1.0
 70
    11
 71
     3
 72
    24
 73
    20
 74
     0
 42
0.0000000001
 43
0.0000000001
 12
1.0
 22
0.0
 32
0.0
 13
1.0
 23
0.0
 33
0.0
 40
0.0
 40
0.0
 40
0.0
 40
0.0
 40
0.1666666666666667
 40
0.1666666666666667
 40
0.1666666666666667
 40
0.1666666666666667
 40
0.3333333333333333
 40
0.3333333333333333
 40
0.3333333333333333
 40
0.3333333333333333
 40
0.5
 40
0.5
 40
0.5
 40
0.5
 40
0.6666666666666666
 40
0.6666666666666666
 40
0.6666666666666666
 40
0.6666666666666666
 40
1.0
 40
1.0
 40
1.0
 40
1.0
 10
-3.10638
 20
4.03153
 30
0.0
 10
-3.10638
 20
4.03153
 30
0.0
 10
-1.76201
 20
4.03153
 30
0.0
 10
-1.76201
 20
4.03153
 30
0.0
 10
-1.76201
 20
4.03153
 30
0.0
 10
-1.76201
 20
4.03153
 30
0.0
 10
-1.73534
 20
3.96913
 30
0.0
 10
-1.73534
 20
3.96913
 30
0.0
 10
-1.73534
 20
3.96913
 30
0.0
 10
-1.73534
 20
3.96913
 30
0.0
 10
-1.01393
 20
2.28267
 30
0.0
 10
-1.01393
 20
2.28267
 30
0.0
 10
-1.01393
 20
2.28267
 30
0.0
 10
-1.01393
 20
2.28267
 30
0.0
 10
-3.10638
 20
-1.45486
 30
0.0
 10
-3.10638
 20
-1.45486
 30
0.0
 10
-3.10638
 20
-1.45486
 30
0.0
 10
-3.10638
 20
-1.45486
 30
0.0
 10
-3.10638
 20
4.03153
 30
0.0
 10
-3.10638
 20
4.03153
 30
0.0
  0
SPLINE
  5
8D
330
1F
100
AcDbEntity
  8
Layer 1
 62
   242
370
     9
100
AcDbSpline
210
0.0
220
0.0
230
1.0
 70
    11
 71
     3
 72
    20
 73
    16
 74
     0
 42
0.0000000001
 43
0.0000000001
 12
1.0
 22
0.0
 32
0.0
 13
1.0
 23
0.0
 33
0.0
 40
0.0
 40
0.0
 40
0.0
 40
0.0
 40
0.2
 40
0.2
 40
0.2
 40
0.2
 40
0.4
 40
0.4
 40
0.4
 40
0.4
 40
0.6
 40
0.6
 40
0.6
 40
0.6
 40
1.0
 40
1.0
 40
1.0
 40
1.0
 10
-1.89359
 20
4.33654
 30
0.0
 10
-1.89359
 20
4.33654
 30
0.0
 10
-3.10638
 20
4.33654
 30
0.0
 10
-3.10638
 20
4.33654
 30
0.0
 10
-3.10638
 20
4.33654
 30
0.0
 10
-3.10638
 20
4.33654
 30
0.0
 10
-3.10638
 20
6.8785
 30
0.0
 10
-3.10638
 20
6.8785
 30
0.0
 10
-3.10638
 20
6.8785
 30
0.0
 10
-3.10638
 20
6.8785
 30
0.0
 10
-1.89359
 20
6.8785
 30
0.0
 10
-1.89359
 20
6.8785
 30
0.0
 10
-1.89359
 20
6.8785
 30
0.0
 10
-1.89359
 20
6.8785
 30
0.0
 10
-1.89359
 20
4.33654
 30
0.0
 10
-1.89359
 20
4.33654
 30
0.0
  0
SPLINE
  5
8E
330
1F
100
AcDbEntity
  8
Layer 1
 62
   242
370
     9
100
AcDbSpline
210
0.0
220
0.0
230
1.0
 70
    11
 71
     3
 72
    24
 73
    20
 74
     0
 42
0.0000000001
 43
0.0000000001
 12
1.0
 22
0.0
 32
0.0
 13
1.0
 23
0.0
 33
0.0
 40
0.0
 40
0.0
 40
0.0
 40
0.0
 40
0.1666666666666667
 40
0.1666666666666667
 40
0.1666666666666667
 40
0.1666666666666667
 40
0.3333333333333333
 40
0.3333333333333333
 40
0.3333333333333333
 40
0.3333333333333333
 40
0.5
 40
0.5
 40
0.5
 40
0.5
 40
0.6666666666666666
 40
0.6666666666666666
 40
0.6666666666666666
 40
0.6666666666666666
 40
1.0
 40
1.0
 40
1.0
 40
1.0
 10
-3.10638
 20
12.66992
 30
0.0
 10
-3.10638
 20
12.66992
 30
0.0
 10
-1.01393
 20
8.93242
 30
0.0
 10
-1.01393
 20
8.93242
 30
0.0
 10
-1.01393
 20
8.93242
 30
0.0
 10
-1.01393
 20
8.93242
 30
0.0
 10
-1.73534
 20
7.24594
 30
0.0
 10
-1.73534
 20
7.24594
 30
0.0
 10
-1.73534
 20
7.24594
 30
0.0
 10
-1.73534
 20
7.24594
 30
0.0
 10
-1.76201
 20
7.18355
 30
0.0
 10
-1.76201
 20
7.18355
 30
0.0
 10
-1.76201
 20
7.18355
 30
0.0
 10
-1.76201
 20
7.18355
 30
0.0
 10
-3.10638
 20
7.18355
 30
0.0
 10
-3.10638
 20
7.18355
 30
0.0
 10
-3.10638
 20
7.18355
 30
0.0
 10
-3.10638
 20
7.18355
 30
0.0
 10
-3.10638
 20
12.66992
 30
0.0
 10
-3.10638
 20
12.66992
 30
0.0
  0
SPLINE
  5
8F
330
1F
100
AcDbEntity
  8
Layer 1
 62
   242
370
     9
100
AcDbSpline
210
0.0
220
0.0
230
1.0
 70
     8
 71
     3
 72
    16
 73
    12
 74
     0
 42
0.0000000001
 43
0.0000000001
 12
1.0
 22
0.0
 32
0.0
 13
1.0
 23
0.0
 33
0.0
 40
0.0
 40
0.0
 40
0.0
 40
0.0
 40
0.25
 40
0.25
 40
0.25
 40
0.25
 40
0.5
 40
0.5
 40
0.5
 40
0.5
 40
1.0
 40
1.0
 40
1.0
 40
1.0
 10
-3.10638
 20
13.57772
 30
0.0
 10
-3.10638
 20
13.57772
 30
0.0
 10
-3.10638
 20
17.29095
 30
0.0
 10
-3.10638
 20
17.29095
 30
0.0
 10
-3.10638
 20
17.29095
 30
0.0
 10
-3.10638
 20
17.29095
 30
0.0
 10
-1.02752
 20
17.29095
 30
0.0
 10
-1.02752
 20
17.29095
 30
0.0
 10
-1.02752
 20
17.29095
 30
0.0
 10
-1.02752
 20
17.29095
 30
0.0
 10
-3.10638
 20
13.57775
 30
0.0
 10
-3.10638
 20
13.57775
 30
0.0
  0
SPLINE
  5
90
330
1F
100
AcDbEntity
  8
Layer 1
 62
   242
370
     9
100
AcDbSpline
210
0.0
220
0.0
230
1.0
 70
     8
 71
     3
 72
    16
 73
    12
 74
     0
 42
0.0000000001
 43
0.0000000001
 12
1.0
 22
0.0
 32
0.0
 13
1.0
 23
0.0
 33
0.0
 40
0.0
 40
0.0
 40
0.0
 40
0.0
 40
0.25
 40
0.25
 40
0.25
 40
0.25
 40
0.5
 40
0.5
 40
0.5
 40
0.5
 40
1.0
 40
1.0
 40
1.0
 40
1.0
 10
-3.10638
 20
-2.36269
 30
0.0
 10
-3.10638
 20
-2.36269
 30
0.0
 10
-1.02752
 20
-6.07589
 30
0.0
 10
-1.02752
 20
-6.07589
 30
0.0
 10
-1.02752
 20
-6.07589
 30
0.0
 10
-1.02752
 20
-6.07589
 30
0.0
 10
-3.10638
 20
-6.07589
 30
0.0
 10
-3.10638
 20
-6.07589
 30
0.0
 10
-3.10638
 20
-6.07589
 30
0.0
 10
-3.10638
 20
-6.07589
 30
0.0
 10
-3.10638
 20
-2.36267
 30
0.0
 10
-3.10638
 20
-2.36267
 30
0.0
  0
SPLINE
  5
91
330
1F
100
AcDbEntity
  8
Layer 1
 62
   242
370
     9
100
AcDbSpline
210
0.0
220
0.0
230
1.0
 70
    11
 71
     3
 72
    48
 73
    44
 74
     0
 42
0.0000000001
 43
0.0000000001
 12
1.0
 22
0.0
 32
0.0
 13
1.0
 23
0.0
 33
0.0
 40
0.0
 40
0.0
 40
0.0
 40
0.0
 40
0.0833333333333333
 40
0.0833333333333333
 40
0.0833333333333333
 40
0.0833333333333333
 40
0.1666666666666667
 40
0.1666666666666667
 40
0.1666666666666667
 40
0.1666666666666667
 40
0.25
 40
0.25
 40
0.25
 40
0.25
 40
0.3333333333333333
 40
0.3333333333333333
 40
0.3333333333333333
 40
0.3333333333333333
 40
0.4166666666666667
 40
0.4166666666666667
 40
0.4166666666666667
 40
0.4166666666666667
 40
0.5
 40
0.5
 40
0.5
 40
0.5
 40
0.5833333333333334
 40
0.5833333333333334
 40
0.5833333333333334
 40
0.5833333333333334
 40
0.6666666666666666
 40
0.6666666666666666
 40
0.6666666666666666
 40
0.6666666666666666
 40
0.75
 40
0.75
 40
0.75
 40
0.75
 40
0.8333333333333334
 40
0.8333333333333334
 40
0.8333333333333334
 40
0.8333333333333334
 40
1.0
 40
1.0
 40
1.0
 40
1.0
 10
0.44277
 20
6.3304
 30
0.0
 10
0.37264
 20
6.22664
 30
0.0
 10
0.32018
 20
6.11201
 30
0.0
 10
0.28753
 20
5.99108
 30
0.0
 10
0.28753
 20
5.99108
 30
0.0
 10
0.22021
 20
5.7421
 30
0.0
 10
0.21952
 20
5.47995
 30
0.0
 10
0.28556
 20
5.23065
 30
0.0
 10
0.28556
 20
5.23065
 30
0.0
 10
0.3182
 20
5.10728
 30
0.0
 10
0.37136
 20
4.99031
 30
0.0
 10
0.44277
 20
4.88464
 30
0.0
 10
0.44277
 20
4.88464
 30
0.0
 10
0.44277
 20
4.88464
 30
0.0
 10
-0.83311
 20
2.60564
 30
0.0
 10
-0.83311
 20
2.60564
 30
0.0
 10
-0.83311
 20
2.60564
 30
0.0
 10
-0.83311
 20
2.60564
 30
0.0
 10
-1.46975
 20
4.09391
 30
0.0
 10
-1.46975
 20
4.09391
 30
0.0
 10
-1.46975
 20
4.09391
 30
0.0
 10
-1.46975
 20
4.09391
 30
0.0
 10
-1.6025
 20
4.38902
 30
0.0
 10
-1.6025
 20
4.38902
 30
0.0
 10
-1.6025
 20
4.38902
 30
0.0
 10
-1.6025
 20
4.38902
 30
0.0
 10
-1.6025
 20
5.60754
 30
0.0
 10
-1.6025
 20
5.60754
 30
0.0
 10
-1.6025
 20
5.60754
 30
0.0
 10
-1.6025
 20
5.60754
 30
0.0
 10
-1.6025
 20
6.82606
 30
0.0
 10
-1.6025
 20
6.82606
 30
0.0
 10
-1.6025
 20
6.82606
 30
0.0
 10
-1.6025
 20
6.82606
 30
0.0
 10
-1.46975
 20
7.12119
 30
0.0
 10
-1.46975
 20
7.12119
 30
0.0
 10
-1.46975
 20
7.12119
 30
0.0
 10
-1.46975
 20
7.12119
 30
0.0
 10
-0.83311
 20
8.60945
 30
0.0
 10
-0.83311
 20
8.60945
 30
0.0
 10
-0.83311
 20
8.60945
 30
0.0
 10
-0.83311
 20
8.60945
 30
0.0
 10
0.44277
 20
6.3304
 30
0.0
 10
0.44277
 20
6.3304
 30
0.0
  0
ENDSEC
  0
SECTION
  2
OBJECTS
  0
DICTIONARY
  5
C
330
0
100
AcDbDictionary
281
     1
  3
ACAD_GROUP
350
D
  3
ACAD_LAYOUT
350
1A
  3
ACAD_MATERIAL
350
3B
  3
ACAD_MLEADERSTYLE
350
94
  3
ACAD_MLINESTYLE
350
17
  3
ACAD_PLOTSETTINGS
350
19
  3
ACAD_PLOTSTYLENAME
350
E
  3
ACAD_VISUALSTYLE
350
2A
  3
AcDbVariableDictionary
350
92
  0
DICTIONARY
  5
D
102
{ACAD_REACTORS
330
C
102
}
330
C
100
AcDbDictionary
281
     1
  0
DICTIONARY
  5
1A
102
{ACAD_REACTORS
330
C
102
}
330
C
100
AcDbDictionary
281
     1
  3
Layout1
350
1E
  3
Layout2
350
26
  3
Model
350
22
  0
DICTIONARY
  5
3B
102
{ACAD_REACTORS
330
C
102
}
330
C
100
AcDbDictionary
281
     1
  3
ByBlock
350
3D
  3
ByLayer
350
3C
  3
Global
350
3E
  0
DICTIONARY
  5
94
102
{ACAD_REACTORS
330
C
102
}
330
C
100
AcDbDictionary
281
     1
  0
DICTIONARY
  5
17
102
{ACAD_REACTORS
330
C
102
}
330
C
100
AcDbDictionary
281
     1
  3
Standard
350
18
  0
DICTIONARY
  5
19
102
{ACAD_REACTORS
330
C
102
}
330
C
100
AcDbDictionary
281
     1
  0
ACDBDICTIONARYWDFLT
  5
E
102
{ACAD_REACTORS
330
C
102
}
330
C
100
AcDbDictionary
281
     1
  3
Normal
350
F
100
AcDbDictionaryWithDefault
340
F
  0
DICTIONARY
  5
2A
102
{ACAD_REACTORS
330
C
102
}
330
C
100
AcDbDictionary
281
     1
  3
2dWireframe
350
2F
  3
3D Hidden
350
31
  3
3dWireframe
350
30
  3
Basic
350
32
  3
Brighten
350
36
  3
ColorChange
350
3A
  3
Conceptual
350
34
  3
Dim
350
35
  3
Facepattern
350
39
  3
Flat
350
2B
  3
FlatWithEdges
350
2C
  3
Gouraud
350
2D
  3
GouraudWithEdges
350
2E
  3
Linepattern
350
38
  3
Realistic
350
33
  3
Thicken
350
37
  0
DICTIONARY
  5
92
102
{ACAD_REACTORS
330
C
102
}
330
C
100
AcDbDictionary
281
     1
  3
DIMASSOC
350
95
  3
HIDETEXT
350
96
  0
LAYOUT
  5
1E
102
{ACAD_REACTORS
330
1A
102
}
330
1A
100
AcDbPlotSettings
  1

  2
none_device
  4

  6

 40
0.0
 41
0.0
 42
0.0
 43
0.0
 44
0.0
 45
0.0
 46
0.0
 47
0.0
 48
0.0
 49
0.0
140
0.0
141
0.0
142
1.0
143
1.0
 70
   688
 72
     0
 73
     0
 74
     5
  7

 75
    16
147
1.0
148
0.0
149
0.0
100
AcDbLayout
  1
Layout1
 70
     1
 71
     1
 10
0.0
 20
0.0
 11
12.0
 21
9.0
 12
0.0
 22
0.0
 32
0.0
 14
1.000000000000000E+20
 24
1.000000000000000E+20
 34
1.000000000000000E+20
 15
-1.000000000000000E+20
 25
-1.000000000000000E+20
 35
-1.000000000000000E+20
146
0.0
 13
0.0
 23
0.0
 33
0.0
 16
1.0
 26
0.0
 36
0.0
 17
0.0
 27
1.0
 37
0.0
 76
     0
330
1B
  0
LAYOUT
  5
26
102
{ACAD_REACTORS
330
1A
102
}
330
1A
100
AcDbPlotSettings
  1

  2
none_device
  4

  6

 40
0.0
 41
0.0
 42
0.0
 43
0.0
 44
0.0
 45
0.0
 46
0.0
 47
0.0
 48
0.0
 49
0.0
140
0.0
141
0.0
142
1.0
143
1.0
 70
   688
 72
     0
 73
     0
 74
     5
  7

 75
    16
147
1.0
148
0.0
149
0.0
100
AcDbLayout
  1
Layout2
 70
     1
 71
     2
 10
0.0
 20
0.0
 11
0.0
 21
0.0
 12
0.0
 22
0.0
 32
0.0
 14
0.0
 24
0.0
 34
0.0
 15
0.0
 25
0.0
 35
0.0
146
0.0
 13
0.0
 23
0.0
 33
0.0
 16
1.0
 26
0.0
 36
0.0
 17
0.0
 27
1.0
 37
0.0
 76
     0
330
23
  0
LAYOUT
  5
22
102
{ACAD_REACTORS
330
1A
102
}
330
1A
100
AcDbPlotSettings
  1

  2
none_device
  4

  6

 40
0.0
 41
0.0
 42
0.0
 43
0.0
 44
0.0
 45
0.0
 46
0.0
 47
0.0
 48
0.0
 49
0.0
140
0.0
141
0.0
142
1.0
143
1.0
 70
  1712
 72
     0
 73
     0
 74
     0
  7

 75
     0
147
1.0
148
0.0
149
0.0
100
AcDbLayout
  1
Model
 70
     1
 71
     0
 10
0.0
 20
0.0
 11
12.0
 21
9.0
 12
0.0
 22
0.0
 32
0.0
 14
-13.61708
 24
-6.46102
 34
0.0
 15
5.50641
 25
17.67604
 35
0.0
146
0.0
 13
0.0
 23
0.0
 33
0.0
 16
1.0
 26
0.0
 36
0.0
 17
0.0
 27
1.0
 37
0.0
 76
     0
330
1F
331
29
  0
MATERIAL
  5
3D
102
{ACAD_REACTORS
330
3B
102
}
102
{ACAD_XDICTIONARY
360
B9
102
}
330
3B
100
AcDbMaterial
  1
ByBlock
  0
MATERIAL
  5
3C
102
{ACAD_REACTORS
330
3B
102
}
102
{ACAD_XDICTIONARY
360
B7
102
}
330
3B
100
AcDbMaterial
  1
ByLayer
  0
MATERIAL
  5
3E
102
{ACAD_REACTORS
330
3B
102
}
102
{ACAD_XDICTIONARY
360
BB
102
}
330
3B
100
AcDbMaterial
  1
Global
  0
MLINESTYLE
  5
18
102
{ACAD_REACTORS
330
17
102
}
330
17
100
AcDbMlineStyle
  2
Standard
 70
     0
  3

 62
   256
 51
90.0
 52
90.0
 71
     2
 49
0.5
 62
   256
  6
BYLAYER
 49
-0.5
 62
   256
  6
BYLAYER
  0
ACDBPLACEHOLDER
  5
F
102
{ACAD_REACTORS
330
E
102
}
330
E
  0
VISUALSTYLE
  5
2F
102
{ACAD_REACTORS
330
2A
102
}
102
{ACAD_XDICTIONARY
360
9F
102
}
330
2A
100
AcDbVisualStyle
  2
2dWireframe
 70
     4
 71
     0
 72
     2
 73
     0
 90
        0
 40
-0.6
 41
-30.0
 62
     5
 63
     7
 74
     1
 91
        4
 64
     7
 65
   257
 75
     1
175
     1
 42
1.0
 92
        0
 66
   257
 43
1.0
 76
     1
 77
     6
 78
     2
 67
     7
 79
     5
170
     0
171
     0
290
     0
174
     0
 93
        1
 44
0.0
173
     0
291
     0
 45
0.0
1001
ACAD
1000
AcDbSavedByObjectVersion
1070
     0
  0
VISUALSTYLE
  5
31
102
{ACAD_REACTORS
330
2A
102
}
102
{ACAD_XDICTIONARY
360
A3
102
}
330
2A
100
AcDbVisualStyle
  2
3D Hidden
 70
     6
 71
     1
 72
     2
 73
     2
 90
        0
 40
-0.6
 41
-30.0
 62
     5
 63
     7
 74
     2
 91
        2
 64
     7
 65
   257
 75
     2
175
     1
 42
40.0
 92
        0
 66
   257
 43
1.0
 76
     1
 77
     6
 78
     2
 67
     7
 79
     3
170
     0
171
     0
290
     0
174
     0
 93
        1
 44
0.0
173
     0
291
     0
 45
0.0
1001
ACAD
1000
AcDbSavedByObjectVersion
1070
     0
  0
VISUALSTYLE
  5
30
102
{ACAD_REACTORS
330
2A
102
}
102
{ACAD_XDICTIONARY
360
A1
102
}
330
2A
100
AcDbVisualStyle
  2
3dWireframe
 70
     5
 71
     0
 72
     2
 73
     0
 90
        0
 40
-0.6
 41
-30.0
 62
     5
 63
     7
 74
     1
 91
        4
 64
     7
 65
   257
 75
     1
175
     1
 42
1.0
 92
        0
 66
   257
 43
1.0
 76
     1
 77
     6
 78
     2
 67
     7
 79
     5
170
     0
171
     0
290
     0
174
     0
 93
        1
 44
0.0
173
     0
291
     0
 45
0.0
1001
ACAD
1000
AcDbSavedByObjectVersion
1070
     0
  0
VISUALSTYLE
  5
32
102
{ACAD_REACTORS
330
2A
102
}
102
{ACAD_XDICTIONARY
360
A5
102
}
330
2A
100
AcDbVisualStyle
  2
Basic
 70
     7
 71
     1
 72
     0
 73
     1
 90
        0
 40
-0.6
 41
-30.0
 62
     5
 63
     7
 74
     0
 91
        4
 64
     7
 65
   257
 75
     1
175
     1
 42
1.0
 92
        8
 66
     7
 43
1.0
 76
     1
 77
     6
 78
     2
 67
     7
 79
     5
170
     0
171
     0
290
     0
174
     0
 93
        1
 44
0.0
173
     0
291
     1
 45
0.0
1001
ACAD
1000
AcDbSavedByObjectVersion
1070
     0
  0
VISUALSTYLE
  5
36
102
{ACAD_REACTORS
330
2A
102
}
102
{ACAD_XDICTIONARY
360
AD
102
}
330
2A
100
AcDbVisualStyle
  2
Brighten
 70
    12
 71
     2
 72
     2
 73
     0
 90
        0
 40
-0.6
 41
-30.0
 62
     5
 63
     7
 74
     1
 91
        4
 64
     7
 65
   257
 75
     1
175
     1
 42
1.0
 92
        8
 66
     7
 43
1.0
 76
     1
 77
     6
 78
     2
 67
     7
 79
     5
170
     0
171
     0
290
     0
174
     0
 93
        1
 44
50.0
173
     0
291
     1
 45
0.0
1001
ACAD
1000
AcDbSavedByObjectVersion
1070
     0
  0
VISUALSTYLE
  5
3A
102
{ACAD_REACTORS
330
2A
102
}
102
{ACAD_XDICTIONARY
360
B5
102
}
330
2A
100
AcDbVisualStyle
  2
ColorChange
 70
    16
 71
     2
 72
     2
 73
     3
 90
        0
 40
-0.6
 41
-30.0
 62
     5
 63
     8
 74
     1
 91
        4
 64
     7
 65
   257
 75
     1
175
     1
 42
1.0
 92
        8
 66
     8
 43
1.0
 76
     1
 77
     6
 78
     2
 67
     7
 79
     5
170
     0
171
     0
290
     0
174
     0
 93
        1
 44
0.0
173
     0
291
     1
 45
0.0
1001
ACAD
1000
AcDbSavedByObjectVersion
1070
     0
  0
VISUALSTYLE
  5
34
102
{ACAD_REACTORS
330
2A
102
}
102
{ACAD_XDICTIONARY
360
A9
102
}
330
2A
100
AcDbVisualStyle
  2
Conceptual
 70
     9
 71
     3
 72
     2
 73
     0
 90
        0
 40
-0.6
 41
-30.0
 62
     5
 63
     7
 74
     2
 91
        2
 64
     7
 65
   257
 75
     1
175
     1
 42
40.0
 92
        8
 66
     7
 43
1.0
 76
     1
 77
     6
 78
     2
 67
     7
 79
     3
170
     0
171
     0
290
     0
174
     0
 93
        1
 44
0.0
173
     0
291
     0
 45
0.0
1001
ACAD
1000
AcDbSavedByObjectVersion
1070
     0
  0
VISUALSTYLE
  5
35
102
{ACAD_REACTORS
330
2A
102
}
102
{ACAD_XDICTIONARY
360
AB
102
}
330
2A
100
AcDbVisualStyle
  2
Dim
 70
    11
 71
     2
 72
     2
 73
     0
 90
        0
 40
-0.6
 41
-30.0
 62
     5
 63
     7
 74
     1
 91
        4
 64
     7
 65
   257
 75
     1
175
     1
 42
1.0
 92
        8
 66
     7
 43
1.0
 76
     1
 77
     6
 78
     2
 67
     7
 79
     5
170
     0
171
     0
290
     0
174
     0
 93
        1
 44
-50.0
173
     0
291
     1
 45
0.0
1001
ACAD
1000
AcDbSavedByObjectVersion
1070
     0
  0
VISUALSTYLE
  5
39
102
{ACAD_REACTORS
330
2A
102
}
102
{ACAD_XDICTIONARY
360
B3
102
}
330
2A
100
AcDbVisualStyle
  2
Facepattern
 70
    15
 71
     2
 72
     2
 73
     0
 90
        0
 40
-0.6
 41
-30.0
 62
     5
 63
     7
 74
     1
 91
        4
 64
     7
 65
   257
 75
     1
175
     1
 42
1.0
 92
        8
 66
     7
 43
1.0
 76
     1
 77
     6
 78
     2
 67
     7
 79
     5
170
     0
171
     0
290
     0
174
     0
 93
        1
 44
0.0
173
     0
291
     1
 45
0.0
1001
ACAD
1000
AcDbSavedByObjectVersion
1070
     0
  0
VISUALSTYLE
  5
2B
102
{ACAD_REACTORS
330
2A
102
}
102
{ACAD_XDICTIONARY
360
97
102
}
330
2A
100
AcDbVisualStyle
  2
Flat
 70
     0
 71
     2
 72
     1
 73
     1
 90
        2
 40
-0.6
 41
30.0
 62
     5
 63
     7
 74
     0
 91
        4
 64
     7
 65
   257
 75
     1
175
     1
 42
1.0
 92
        8
 66
     7
 43
1.0
 76
     1
 77
     6
 78
     2
 67
     7
 79
     5
170
     0
171
     0
290
     0
174
     0
 93
       13
 44
0.0
173
     0
291
     1
 45
0.0
1001
ACAD
1000
AcDbSavedByObjectVersion
1070
     0
  0
VISUALSTYLE
  5
2C
102
{ACAD_REACTORS
330
2A
102
}
102
{ACAD_XDICTIONARY
360
99
102
}
330
2A
100
AcDbVisualStyle
  2
FlatWithEdges
 70
     1
 71
     2
 72
     1
 73
     1
 90
        2
 40
-0.6
 41
30.0
 62
     5
 63
     7
 74
     1
 91
        4
 64
     7
 65
   257
 75
     1
175
     1
 42
1.0
 92
        0
 66
   257
 43
1.0
 76
     1
 77
     6
 78
     2
 67
     7
 79
     5
170
     0
171
     0
290
     0
174
     0
 93
       13
 44
0.0
173
     0
291
     1
 45
0.0
1001
ACAD
1000
AcDbSavedByObjectVersion
1070
     0
  0
VISUALSTYLE
  5
2D
102
{ACAD_REACTORS
330
2A
102
}
102
{ACAD_XDICTIONARY
360
9B
102
}
330
2A
100
AcDbVisualStyle
  2
Gouraud
 70
     2
 71
     2
 72
     2
 73
     1
 90
        2
 40
-0.6
 41
30.0
 62
     5
 63
     7
 74
     0
 91
        4
 64
     7
 65
   257
 75
     1
175
     1
 42
1.0
 92
        0
 66
     7
 43
1.0
 76
     1
 77
     6
 78
     2
 67
     7
 79
     5
170
     0
171
     0
290
     0
174
     0
 93
       13
 44
0.0
173
     0
291
     1
 45
0.0
1001
ACAD
1000
AcDbSavedByObjectVersion
1070
     0
  0
VISUALSTYLE
  5
2E
102
{ACAD_REACTORS
330
2A
102
}
102
{ACAD_XDICTIONARY
360
9D
102
}
330
2A
100
AcDbVisualStyle
  2
GouraudWithEdges
 70
     3
 71
     2
 72
     2
 73
     1
 90
        2
 40
-0.6
 41
30.0
 62
     5
 63
     7
 74
     1
 91
        4
 64
     7
 65
   257
 75
     1
175
     1
 42
1.0
 92
        0
 66
   257
 43
1.0
 76
     1
 77
     6
 78
     2
 67
     7
 79
     5
170
     0
171
     0
290
     0
174
     0
 93
       13
 44
0.0
173
     0
291
     1
 45
0.0
1001
ACAD
1000
AcDbSavedByObjectVersion
1070
     0
  0
VISUALSTYLE
  5
38
102
{ACAD_REACTORS
330
2A
102
}
102
{ACAD_XDICTIONARY
360
B1
102
}
330
2A
100
AcDbVisualStyle
  2
Linepattern
 70
    14
 71
     2
 72
     2
 73
     0
 90
        0
 40
-0.6
 41
-30.0
 62
     5
 63
     7
 74
     1
 91
        4
 64
     7
 65
   257
 75
     7
175
     7
 42
1.0
 92
        8
 66
     7
 43
1.0
 76
     1
 77
     6
 78
     2
 67
     7
 79
     5
170
     0
171
     0
290
     0
174
     0
 93
        1
 44
0.0
173
     0
291
     1
 45
0.0
1001
ACAD
1000
AcDbSavedByObjectVersion
1070
     0
  0
VISUALSTYLE
  5
33
102
{ACAD_REACTORS
330
2A
102
}
102
{ACAD_XDICTIONARY
360
A7
102
}
330
2A
100
AcDbVisualStyle
  2
Realistic
 70
     8
 71
     2
 72
     2
 73
     0
 90
        0
 40
-0.6
 41
-30.0
 62
     5
 63
     7
 74
     1
 91
        0
 64
     7
 65
   257
 75
     1
175
     1
 42
1.0
 92
        8
 66
     8
 43
1.0
 76
     1
 77
     6
 78
     2
 67
     7
 79
     5
170
     0
171
     0
290
     0
174
     0
 93
       13
 44
0.0
173
     0
291
     0
 45
0.0
1001
ACAD
1000
AcDbSavedByObjectVersion
1070
     0
  0
VISUALSTYLE
  5
37
102
{ACAD_REACTORS
330
2A
102
}
102
{ACAD_XDICTIONARY
360
AF
102
}
330
2A
100
AcDbVisualStyle
  2
Thicken
 70
    13
 71
     2
 72
     2
 73
     0
 90
        0
 40
-0.6
 41
-30.0
 62
     5
 63
     7
 74
     1
 91
        4
 64
     7
 65
   257
 75
     1
175
     1
 42
1.0
 92
       12
 66
     7
 43
1.0
 76
     1
 77
     6
 78
     2
 67
     7
 79
     5
170
     0
171
     0
290
     0
174
     0
 93
        1
 44
0.0
173
     0
291
     1
 45
0.0
1001
ACAD
1000
AcDbSavedByObjectVersion
1070
     0
  0
DICTIONARYVAR
  5
95
102
{ACAD_REACTORS
330
92
102
}
330
92
100
DictionaryVariables
280
     0
  1
2
  0
DICTIONARYVAR
  5
96
102
{ACAD_REACTORS
330
92
102
}
330
92
100
DictionaryVariables
280
     0
  1
1
  0
DICTIONARY
  5
B9
330
3D
100
AcDbDictionary
280
     1
281
     1
  3
ACAD_XREC_ROUNDTRIP
360
BA
  0
DICTIONARY
  5
B7
330
3C
100
AcDbDictionary
280
     1
281
     1
  3
ACAD_XREC_ROUNDTRIP
360
B8
  0
DICTIONARY
  5
BB
330
3E
100
AcDbDictionary
280
     1
281
     1
  3
ACAD_XREC_ROUNDTRIP
360
BC
  0
DICTIONARY
  5
9F
330
2F
100
AcDbDictionary
280
     1
281
     1
  3
ACAD_XREC_ROUNDTRIP
360
A0
  0
DICTIONARY
  5
A3
330
31
100
AcDbDictionary
280
     1
281
     1
  3
ACAD_XREC_ROUNDTRIP
360
A4
  0
DICTIONARY
  5
A1
330
30
100
AcDbDictionary
280
     1
281
     1
  3
ACAD_XREC_ROUNDTRIP
360
A2
  0
DICTIONARY
  5
A5
330
32
100
AcDbDictionary
280
     1
281
     1
  3
ACAD_XREC_ROUNDTRIP
360
A6
  0
DICTIONARY
  5
AD
330
36
100
AcDbDictionary
280
     1
281
     1
  3
ACAD_XREC_ROUNDTRIP
360
AE
  0
DICTIONARY
  5
B5
330
3A
100
AcDbDictionary
280
     1
281
     1
  3
ACAD_XREC_ROUNDTRIP
360
B6
  0
DICTIONARY
  5
A9
330
34
100
AcDbDictionary
280
     1
281
     1
  3
ACAD_XREC_ROUNDTRIP
360
AA
  0
DICTIONARY
  5
AB
330
35
100
AcDbDictionary
280
     1
281
     1
  3
ACAD_XREC_ROUNDTRIP
360
AC
  0
DICTIONARY
  5
B3
330
39
100
AcDbDictionary
280
     1
281
     1
  3
ACAD_XREC_ROUNDTRIP
360
B4
  0
DICTIONARY
  5
97
330
2B
100
AcDbDictionary
280
     1
281
     1
  3
ACAD_XREC_ROUNDTRIP
360
98
  0
DICTIONARY
  5
99
330
2C
100
AcDbDictionary
280
     1
281
     1
  3
ACAD_XREC_ROUNDTRIP
360
9A
  0
DICTIONARY
  5
9B
330
2D
100
AcDbDictionary
280
     1
281
     1
  3
ACAD_XREC_ROUNDTRIP
360
9C
  0
DICTIONARY
  5
9D
330
2E
100
AcDbDictionary
280
     1
281
     1
  3
ACAD_XREC_ROUNDTRIP
360
9E
  0
DICTIONARY
  5
B1
330
38
100
AcDbDictionary
280
     1
281
     1
  3
ACAD_XREC_ROUNDTRIP
360
B2
  0
DICTIONARY
  5
A7
330
33
100
AcDbDictionary
280
     1
281
     1
  3
ACAD_XREC_ROUNDTRIP
360
A8
  0
DICTIONARY
  5
AF
330
37
100
AcDbDictionary
280
     1
281
     1
  3
ACAD_XREC_ROUNDTRIP
360
B0
  0
XRECORD
  5
BA
102
{ACAD_REACTORS
330
B9
102
}
330
B9
100
AcDbXrecord
280
     1
102
MATERIAL
148
0.0
149
0.0
149
0.0
 93
        0
 94
      127
282
     0
 72
     1
 77
     1
171
     1
175
     1
179
     1
273
     0
  0
XRECORD
  5
B8
102
{ACAD_REACTORS
330
B7
102
}
330
B7
100
AcDbXrecord
280
     1
102
MATERIAL
148
0.0
149
0.0
149
0.0
 93
        0
 94
      127
282
     0
 72
     1
 77
     1
171
     1
175
     1
179
     1
273
     0
  0
XRECORD
  5
BC
102
{ACAD_REACTORS
330
BB
102
}
330
BB
100
AcDbXrecord
280
     1
102
MATERIAL
148
0.0
149
0.0
149
0.0
 93
        0
 94
      127
282
     0
 72
     1
 77
     1
171
     1
175
     1
179
     1
273
     0
  0
XRECORD
  5
A0
102
{ACAD_REACTORS
330
9F
102
}
330
9F
100
AcDbXrecord
280
     1
102
RTVSPropertyOp0
 70
     1
102
RTVSPropertyOp1
 70
     1
102
RTVSPropertyOp2
 70
     1
102
RTVSPropertyOp3
 70
     1
102
RTVSPropertyOp4
 70
     1
102
RTVSPropertyOp5
 70
     1
102
RTVSPropertyOp6
 70
     1
102
RTVSPropertyOp7
 70
     1
102
RTVSPropertyOp8
 70
     1
102
RTVSPropertyOp9
 70
     1
102
RTVSPropertyOp10
 70
     1
102
RTVSPropertyOp11
 70
     1
102
RTVSPropertyOp12
 70
     1
102
RTVSPropertyOp13
 70
     1
102
RTVSPropertyOp14
 70
     1
102
RTVSPropertyOp15
 70
     1
102
RTVSPropertyOp16
 70
     1
102
RTVSPropertyOp17
 70
     1
102
RTVSPropertyOp18
 70
     1
102
RTVSPropertyOp19
 70
     1
102
RTVSPropertyOp20
 70
     1
102
RTVSPropertyOp21
 70
     1
102
RTVSPropertyOp22
 70
     1
102
RTVSPropertyOp23
 70
     1
102
RTVSPropertyOp24
 70
     1
102
RTVSPropertyOp25
 70
     1
102
RTVSPropertyOp26
 70
     1
102
RTVSPropertyOp27
 70
     1
102
RTVSPropertyOp28
 70
     1
102
RTVSPropertyOp29
 70
     1
102
RTVSPropertyOp30
 70
     1
102
RTVSPropertyOp31
 70
     1
102
RTVSPropertyOp32
 70
     1
  0
XRECORD
  5
A4
102
{ACAD_REACTORS
330
A3
102
}
330
A3
100
AcDbXrecord
280
     1
102
RTVSPropertyOp0
 70
     1
102
RTVSPropertyOp1
 70
     1
102
RTVSPropertyOp2
 70
     1
102
RTVSPropertyOp3
 70
     1
102
RTVSPropertyOp4
 70
     1
102
RTVSPropertyOp5
 70
     1
102
RTVSPropertyOp6
 70
     1
102
RTVSPropertyOp7
 70
     1
102
RTVSPropertyOp8
 70
     1
102
RTVSPropertyOp9
 70
     1
102
RTVSPropertyOp10
 70
     1
102
RTVSPropertyOp11
 70
     1
102
RTVSPropertyOp12
 70
     1
102
RTVSPropertyOp13
 70
     1
102
RTVSPropertyOp14
 70
     1
102
RTVSPropertyOp15
 70
     1
102
RTVSPropertyOp16
 70
     1
102
RTVSPropertyOp17
 70
     1
102
RTVSPropertyOp18
 70
     1
102
RTVSPropertyOp19
 70
     1
102
RTVSPropertyOp20
 70
     1
102
RTVSPropertyOp21
 70
     1
102
RTVSPropertyOp22
 70
     1
102
RTVSPropertyOp23
 70
     1
102
RTVSPropertyOp24
 70
     1
102
RTVSPropertyOp25
 70
     1
102
RTVSPropertyOp26
 70
     1
102
RTVSPropertyOp27
 70
     1
102
RTVSPropertyOp28
 70
     1
102
RTVSPropertyOp29
 70
     1
102
RTVSPropertyOp30
 70
     1
102
RTVSPropertyOp31
 70
     1
102
RTVSPropertyOp32
 70
     1
  0
XRECORD
  5
A2
102
{ACAD_REACTORS
330
A1
102
}
330
A1
100
AcDbXrecord
280
     1
102
RTVSPropertyOp0
 70
     1
102
RTVSPropertyOp1
 70
     1
102
RTVSPropertyOp2
 70
     1
102
RTVSPropertyOp3
 70
     1
102
RTVSPropertyOp4
 70
     1
102
RTVSPropertyOp5
 70
     1
102
RTVSPropertyOp6
 70
     1
102
RTVSPropertyOp7
 70
     1
102
RTVSPropertyOp8
 70
     1
102
RTVSPropertyOp9
 70
     1
102
RTVSPropertyOp10
 70
     1
102
RTVSPropertyOp11
 70
     1
102
RTVSPropertyOp12
 70
     1
102
RTVSPropertyOp13
 70
     1
102
RTVSPropertyOp14
 70
     1
102
RTVSPropertyOp15
 70
     1
102
RTVSPropertyOp16
 70
     1
102
RTVSPropertyOp17
 70
     1
102
RTVSPropertyOp18
 70
     1
102
RTVSPropertyOp19
 70
     1
102
RTVSPropertyOp20
 70
     1
102
RTVSPropertyOp21
 70
     1
102
RTVSPropertyOp22
 70
     1
102
RTVSPropertyOp23
 70
     1
102
RTVSPropertyOp24
 70
     1
102
RTVSPropertyOp25
 70
     1
102
RTVSPropertyOp26
 70
     1
102
RTVSPropertyOp27
 70
     1
102
RTVSPropertyOp28
 70
     1
102
RTVSPropertyOp29
 70
     1
102
RTVSPropertyOp30
 70
     1
102
RTVSPropertyOp31
 70
     1
102
RTVSPropertyOp32
 70
     1
  0
XRECORD
  5
A6
102
{ACAD_REACTORS
330
A5
102
}
330
A5
100
AcDbXrecord
280
     1
102
RTVSPropertyOp0
 70
     1
102
RTVSPropertyOp1
 70
     1
102
RTVSPropertyOp2
 70
     1
102
RTVSPropertyOp3
 70
     1
102
RTVSPropertyOp4
 70
     1
102
RTVSPropertyOp5
 70
     1
102
RTVSPropertyOp6
 70
     1
102
RTVSPropertyOp7
 70
     1
102
RTVSPropertyOp8
 70
     1
102
RTVSPropertyOp9
 70
     1
102
RTVSPropertyOp10
 70
     1
102
RTVSPropertyOp11
 70
     1
102
RTVSPropertyOp12
 70
     1
102
RTVSPropertyOp13
 70
     1
102
RTVSPropertyOp14
 70
     1
102
RTVSPropertyOp15
 70
     1
102
RTVSPropertyOp16
 70
     1
102
RTVSPropertyOp17
 70
     1
102
RTVSPropertyOp18
 70
     1
102
RTVSPropertyOp19
 70
     1
102
RTVSPropertyOp20
 70
     1
102
RTVSPropertyOp21
 70
     1
102
RTVSPropertyOp22
 70
     1
102
RTVSPropertyOp23
 70
     1
102
RTVSPropertyOp24
 70
     1
102
RTVSPropertyOp25
 70
     1
102
RTVSPropertyOp26
 70
     1
102
RTVSPropertyOp27
 70
     1
102
RTVSPropertyOp28
 70
     1
102
RTVSPropertyOp29
 70
     1
102
RTVSPropertyOp30
 70
     1
102
RTVSPropertyOp31
 70
     1
102
RTVSPropertyOp32
 70
     1
  0
XRECORD
  5
AE
102
{ACAD_REACTORS
330
AD
102
}
330
AD
100
AcDbXrecord
280
     1
102
RTVSPropertyOp0
 70
     1
102
RTVSPropertyOp1
 70
     1
102
RTVSPropertyOp2
 70
     1
102
RTVSPropertyOp3
 70
     1
102
RTVSPropertyOp4
 70
     1
102
RTVSPropertyOp5
 70
     1
102
RTVSPropertyOp6
 70
     1
102
RTVSPropertyOp7
 70
     1
102
RTVSPropertyOp8
 70
     1
102
RTVSPropertyOp9
 70
     1
102
RTVSPropertyOp10
 70
     1
102
RTVSPropertyOp11
 70
     1
102
RTVSPropertyOp12
 70
     1
102
RTVSPropertyOp13
 70
     1
102
RTVSPropertyOp14
 70
     1
102
RTVSPropertyOp15
 70
     1
102
RTVSPropertyOp16
 70
     1
102
RTVSPropertyOp17
 70
     1
102
RTVSPropertyOp18
 70
     1
102
RTVSPropertyOp19
 70
     1
102
RTVSPropertyOp20
 70
     1
102
RTVSPropertyOp21
 70
     1
102
RTVSPropertyOp22
 70
     1
102
RTVSPropertyOp23
 70
     1
102
RTVSPropertyOp24
 70
     1
102
RTVSPropertyOp25
 70
     1
102
RTVSPropertyOp26
 70
     1
102
RTVSPropertyOp27
 70
     1
102
RTVSPropertyOp28
 70
     1
102
RTVSPropertyOp29
 70
     1
102
RTVSPropertyOp30
 70
     1
102
RTVSPropertyOp31
 70
     1
102
RTVSPropertyOp32
 70
     1
  0
XRECORD
  5
B6
102
{ACAD_REACTORS
330
B5
102
}
330
B5
100
AcDbXrecord
280
     1
102
RTVSPropertyOp0
 70
     1
102
RTVSPropertyOp1
 70
     1
102
RTVSPropertyOp2
 70
     1
102
RTVSPropertyOp3
 70
     1
102
RTVSPropertyOp4
 70
     1
102
RTVSPropertyOp5
 70
     1
102
RTVSPropertyOp6
 70
     1
102
RTVSPropertyOp7
 70
     1
102
RTVSPropertyOp8
 70
     1
102
RTVSPropertyOp9
 70
     1
102
RTVSPropertyOp10
 70
     1
102
RTVSPropertyOp11
 70
     1
102
RTVSPropertyOp12
 70
     1
102
RTVSPropertyOp13
 70
     1
102
RTVSPropertyOp14
 70
     1
102
RTVSPropertyOp15
 70
     1
102
RTVSPropertyOp16
 70
     1
102
RTVSPropertyOp17
 70
     1
102
RTVSPropertyOp18
 70
     1
102
RTVSPropertyOp19
 70
     1
102
RTVSPropertyOp20
 70
     1
102
RTVSPropertyOp21
 70
     1
102
RTVSPropertyOp22
 70
     1
102
RTVSPropertyOp23
 70
     1
102
RTVSPropertyOp24
 70
     1
102
RTVSPropertyOp25
 70
     1
102
RTVSPropertyOp26
 70
     1
102
RTVSPropertyOp27
 70
     1
102
RTVSPropertyOp28
 70
     1
102
RTVSPropertyOp29
 70
     1
102
RTVSPropertyOp30
 70
     1
102
RTVSPropertyOp31
 70
     1
102
RTVSPropertyOp32
 70
     1
  0
XRECORD
  5
AA
102
{ACAD_REACTORS
330
A9
102
}
330
A9
100
AcDbXrecord
280
     1
102
RTVSPropertyOp0
 70
     1
102
RTVSPropertyOp1
 70
     1
102
RTVSPropertyOp2
 70
     1
102
RTVSPropertyOp3
 70
     1
102
RTVSPropertyOp4
 70
     1
102
RTVSPropertyOp5
 70
     1
102
RTVSPropertyOp6
 70
     1
102
RTVSPropertyOp7
 70
     1
102
RTVSPropertyOp8
 70
     1
102
RTVSPropertyOp9
 70
     1
102
RTVSPropertyOp10
 70
     1
102
RTVSPropertyOp11
 70
     1
102
RTVSPropertyOp12
 70
     1
102
RTVSPropertyOp13
 70
     1
102
RTVSPropertyOp14
 70
     1
102
RTVSPropertyOp15
 70
     1
102
RTVSPropertyOp16
 70
     1
102
RTVSPropertyOp17
 70
     1
102
RTVSPropertyOp18
 70
     1
102
RTVSPropertyOp19
 70
     1
102
RTVSPropertyOp20
 70
     1
102
RTVSPropertyOp21
 70
     1
102
RTVSPropertyOp22
 70
     1
102
RTVSPropertyOp23
 70
     1
102
RTVSPropertyOp24
 70
     1
102
RTVSPropertyOp25
 70
     1
102
RTVSPropertyOp26
 70
     1
102
RTVSPropertyOp27
 70
     1
102
RTVSPropertyOp28
 70
     1
102
RTVSPropertyOp29
 70
     1
102
RTVSPropertyOp30
 70
     1
102
RTVSPropertyOp31
 70
     1
102
RTVSPropertyOp32
 70
     1
  0
XRECORD
  5
AC
102
{ACAD_REACTORS
330
AB
102
}
330
AB
100
AcDbXrecord
280
     1
102
RTVSPropertyOp0
 70
     1
102
RTVSPropertyOp1
 70
     1
102
RTVSPropertyOp2
 70
     1
102
RTVSPropertyOp3
 70
     1
102
RTVSPropertyOp4
 70
     1
102
RTVSPropertyOp5
 70
     1
102
RTVSPropertyOp6
 70
     1
102
RTVSPropertyOp7
 70
     1
102
RTVSPropertyOp8
 70
     1
102
RTVSPropertyOp9
 70
     1
102
RTVSPropertyOp10
 70
     1
102
RTVSPropertyOp11
 70
     1
102
RTVSPropertyOp12
 70
     1
102
RTVSPropertyOp13
 70
     1
102
RTVSPropertyOp14
 70
     1
102
RTVSPropertyOp15
 70
     1
102
RTVSPropertyOp16
 70
     1
102
RTVSPropertyOp17
 70
     1
102
RTVSPropertyOp18
 70
     1
102
RTVSPropertyOp19
 70
     1
102
RTVSPropertyOp20
 70
     1
102
RTVSPropertyOp21
 70
     1
102
RTVSPropertyOp22
 70
     1
102
RTVSPropertyOp23
 70
     1
102
RTVSPropertyOp24
 70
     1
102
RTVSPropertyOp25
 70
     1
102
RTVSPropertyOp26
 70
     1
102
RTVSPropertyOp27
 70
     1
102
RTVSPropertyOp28
 70
     1
102
RTVSPropertyOp29
 70
     1
102
RTVSPropertyOp30
 70
     1
102
RTVSPropertyOp31
 70
     1
102
RTVSPropertyOp32
 70
     1
  0
XRECORD
  5
B4
102
{ACAD_REACTORS
330
B3
102
}
330
B3
100
AcDbXrecord
280
     1
102
RTVSPropertyOp0
 70
     1
102
RTVSPropertyOp1
 70
     1
102
RTVSPropertyOp2
 70
     1
102
RTVSPropertyOp3
 70
     1
102
RTVSPropertyOp4
 70
     1
102
RTVSPropertyOp5
 70
     1
102
RTVSPropertyOp6
 70
     1
102
RTVSPropertyOp7
 70
     1
102
RTVSPropertyOp8
 70
     1
102
RTVSPropertyOp9
 70
     1
102
RTVSPropertyOp10
 70
     1
102
RTVSPropertyOp11
 70
     1
102
RTVSPropertyOp12
 70
     1
102
RTVSPropertyOp13
 70
     1
102
RTVSPropertyOp14
 70
     1
102
RTVSPropertyOp15
 70
     1
102
RTVSPropertyOp16
 70
     1
102
RTVSPropertyOp17
 70
     1
102
RTVSPropertyOp18
 70
     1
102
RTVSPropertyOp19
 70
     1
102
RTVSPropertyOp20
 70
     1
102
RTVSPropertyOp21
 70
     1
102
RTVSPropertyOp22
 70
     1
102
RTVSPropertyOp23
 70
     1
102
RTVSPropertyOp24
 70
     1
102
RTVSPropertyOp25
 70
     1
102
RTVSPropertyOp26
 70
     1
102
RTVSPropertyOp27
 70
     1
102
RTVSPropertyOp28
 70
     1
102
RTVSPropertyOp29
 70
     1
102
RTVSPropertyOp30
 70
     1
102
RTVSPropertyOp31
 70
     1
102
RTVSPropertyOp32
 70
     1
  0
XRECORD
  5
98
102
{ACAD_REACTORS
330
97
102
}
330
97
100
AcDbXrecord
280
     1
102
RTVSPropertyOp0
 70
     1
102
RTVSPropertyOp1
 70
     1
102
RTVSPropertyOp2
 70
     1
102
RTVSPropertyOp3
 70
     1
102
RTVSPropertyOp4
 70
     1
102
RTVSPropertyOp5
 70
     1
102
RTVSPropertyOp6
 70
     1
102
RTVSPropertyOp7
 70
     1
102
RTVSPropertyOp8
 70
     1
102
RTVSPropertyOp9
 70
     1
102
RTVSPropertyOp10
 70
     1
102
RTVSPropertyOp11
 70
     1
102
RTVSPropertyOp12
 70
     1
102
RTVSPropertyOp13
 70
     1
102
RTVSPropertyOp14
 70
     1
102
RTVSPropertyOp15
 70
     1
102
RTVSPropertyOp16
 70
     1
102
RTVSPropertyOp17
 70
     1
102
RTVSPropertyOp18
 70
     1
102
RTVSPropertyOp19
 70
     1
102
RTVSPropertyOp20
 70
     1
102
RTVSPropertyOp21
 70
     1
102
RTVSPropertyOp22
 70
     1
102
RTVSPropertyOp23
 70
     1
102
RTVSPropertyOp24
 70
     1
102
RTVSPropertyOp25
 70
     1
102
RTVSPropertyOp26
 70
     1
102
RTVSPropertyOp27
 70
     1
102
RTVSPropertyOp28
 70
     1
102
RTVSPropertyOp29
 70
     1
102
RTVSPropertyOp30
 70
     1
102
RTVSPropertyOp31
 70
     1
102
RTVSPropertyOp32
 70
     1
  0
XRECORD
  5
9A
102
{ACAD_REACTORS
330
99
102
}
330
99
100
AcDbXrecord
280
     1
102
RTVSPropertyOp0
 70
     1
102
RTVSPropertyOp1
 70
     1
102
RTVSPropertyOp2
 70
     1
102
RTVSPropertyOp3
 70
     1
102
RTVSPropertyOp4
 70
     1
102
RTVSPropertyOp5
 70
     1
102
RTVSPropertyOp6
 70
     1
102
RTVSPropertyOp7
 70
     1
102
RTVSPropertyOp8
 70
     1
102
RTVSPropertyOp9
 70
     1
102
RTVSPropertyOp10
 70
     1
102
RTVSPropertyOp11
 70
     1
102
RTVSPropertyOp12
 70
     1
102
RTVSPropertyOp13
 70
     1
102
RTVSPropertyOp14
 70
     1
102
RTVSPropertyOp15
 70
     1
102
RTVSPropertyOp16
 70
     1
102
RTVSPropertyOp17
 70
     1
102
RTVSPropertyOp18
 70
     1
102
RTVSPropertyOp19
 70
     1
102
RTVSPropertyOp20
 70
     1
102
RTVSPropertyOp21
 70
     1
102
RTVSPropertyOp22
 70
     1
102
RTVSPropertyOp23
 70
     1
102
RTVSPropertyOp24
 70
     1
102
RTVSPropertyOp25
 70
     1
102
RTVSPropertyOp26
 70
     1
102
RTVSPropertyOp27
 70
     1
102
RTVSPropertyOp28
 70
     1
102
RTVSPropertyOp29
 70
     1
102
RTVSPropertyOp30
 70
     1
102
RTVSPropertyOp31
 70
     1
102
RTVSPropertyOp32
 70
     1
  0
XRECORD
  5
9C
102
{ACAD_REACTORS
330
9B
102
}
330
9B
100
AcDbXrecord
280
     1
102
RTVSPropertyOp0
 70
     1
102
RTVSPropertyOp1
 70
     1
102
RTVSPropertyOp2
 70
     1
102
RTVSPropertyOp3
 70
     1
102
RTVSPropertyOp4
 70
     1
102
RTVSPropertyOp5
 70
     1
102
RTVSPropertyOp6
 70
     1
102
RTVSPropertyOp7
 70
     1
102
RTVSPropertyOp8
 70
     1
102
RTVSPropertyOp9
 70
     1
102
RTVSPropertyOp10
 70
     1
102
RTVSPropertyOp11
 70
     1
102
RTVSPropertyOp12
 70
     1
102
RTVSPropertyOp13
 70
     1
102
RTVSPropertyOp14
 70
     1
102
RTVSPropertyOp15
 70
     1
102
RTVSPropertyOp16
 70
     1
102
RTVSPropertyOp17
 70
     1
102
RTVSPropertyOp18
 70
     1
102
RTVSPropertyOp19
 70
     1
102
RTVSPropertyOp20
 70
     1
102
RTVSPropertyOp21
 70
     1
102
RTVSPropertyOp22
 70
     1
102
RTVSPropertyOp23
 70
     1
102
RTVSPropertyOp24
 70
     1
102
RTVSPropertyOp25
 70
     1
102
RTVSPropertyOp26
 70
     1
102
RTVSPropertyOp27
 70
     1
102
RTVSPropertyOp28
 70
     1
102
RTVSPropertyOp29
 70
     1
102
RTVSPropertyOp30
 70
     1
102
RTVSPropertyOp31
 70
     1
102
RTVSPropertyOp32
 70
     1
  0
XRECORD
  5
9E
102
{ACAD_REACTORS
330
9D
102
}
330
9D
100
AcDbXrecord
280
     1
102
RTVSPropertyOp0
 70
     1
102
RTVSPropertyOp1
 70
     1
102
RTVSPropertyOp2
 70
     1
102
RTVSPropertyOp3
 70
     1
102
RTVSPropertyOp4
 70
     1
102
RTVSPropertyOp5
 70
     1
102
RTVSPropertyOp6
 70
     1
102
RTVSPropertyOp7
 70
     1
102
RTVSPropertyOp8
 70
     1
102
RTVSPropertyOp9
 70
     1
102
RTVSPropertyOp10
 70
     1
102
RTVSPropertyOp11
 70
     1
102
RTVSPropertyOp12
 70
     1
102
RTVSPropertyOp13
 70
     1
102
RTVSPropertyOp14
 70
     1
102
RTVSPropertyOp15
 70
     1
102
RTVSPropertyOp16
 70
     1
102
RTVSPropertyOp17
 70
     1
102
RTVSPropertyOp18
 70
     1
102
RTVSPropertyOp19
 70
     1
102
RTVSPropertyOp20
 70
     1
102
RTVSPropertyOp21
 70
     1
102
RTVSPropertyOp22
 70
     1
102
RTVSPropertyOp23
 70
     1
102
RTVSPropertyOp24
 70
     1
102
RTVSPropertyOp25
 70
     1
102
RTVSPropertyOp26
 70
     1
102
RTVSPropertyOp27
 70
     1
102
RTVSPropertyOp28
 70
     1
102
RTVSPropertyOp29
 70
     1
102
RTVSPropertyOp30
 70
     1
102
RTVSPropertyOp31
 70
     1
102
RTVSPropertyOp32
 70
     1
  0
XRECORD
  5
B2
102
{ACAD_REACTORS
330
B1
102
}
330
B1
100
AcDbXrecord
280
     1
102
RTVSPropertyOp0
 70
     1
102
RTVSPropertyOp1
 70
     1
102
RTVSPropertyOp2
 70
     1
102
RTVSPropertyOp3
 70
     1
102
RTVSPropertyOp4
 70
     1
102
RTVSPropertyOp5
 70
     1
102
RTVSPropertyOp6
 70
     1
102
RTVSPropertyOp7
 70
     1
102
RTVSPropertyOp8
 70
     1
102
RTVSPropertyOp9
 70
     1
102
RTVSPropertyOp10
 70
     1
102
RTVSPropertyOp11
 70
     1
102
RTVSPropertyOp12
 70
     1
102
RTVSPropertyOp13
 70
     1
102
RTVSPropertyOp14
 70
     1
102
RTVSPropertyOp15
 70
     1
102
RTVSPropertyOp16
 70
     1
102
RTVSPropertyOp17
 70
     1
102
RTVSPropertyOp18
 70
     1
102
RTVSPropertyOp19
 70
     1
102
RTVSPropertyOp20
 70
     1
102
RTVSPropertyOp21
 70
     1
102
RTVSPropertyOp22
 70
     1
102
RTVSPropertyOp23
 70
     1
102
RTVSPropertyOp24
 70
     1
102
RTVSPropertyOp25
 70
     1
102
RTVSPropertyOp26
 70
     1
102
RTVSPropertyOp27
 70
     1
102
RTVSPropertyOp28
 70
     1
102
RTVSPropertyOp29
 70
     1
102
RTVSPropertyOp30
 70
     1
102
RTVSPropertyOp31
 70
     1
102
RTVSPropertyOp32
 70
     1
  0
XRECORD
  5
A8
102
{ACAD_REACTORS
330
A7
102
}
330
A7
100
AcDbXrecord
280
     1
102
RTVSPropertyOp0
 70
     1
102
RTVSPropertyOp1
 70
     1
102
RTVSPropertyOp2
 70
     1
102
RTVSPropertyOp3
 70
     1
102
RTVSPropertyOp4
 70
     1
102
RTVSPropertyOp5
 70
     1
102
RTVSPropertyOp6
 70
     1
102
RTVSPropertyOp7
 70
     1
102
RTVSPropertyOp8
 70
     1
102
RTVSPropertyOp9
 70
     1
102
RTVSPropertyOp10
 70
     1
102
RTVSPropertyOp11
 70
     1
102
RTVSPropertyOp12
 70
     1
102
RTVSPropertyOp13
 70
     1
102
RTVSPropertyOp14
 70
     1
102
RTVSPropertyOp15
 70
     1
102
RTVSPropertyOp16
 70
     1
102
RTVSPropertyOp17
 70
     1
102
RTVSPropertyOp18
 70
     1
102
RTVSPropertyOp19
 70
     1
102
RTVSPropertyOp20
 70
     1
102
RTVSPropertyOp21
 70
     1
102
RTVSPropertyOp22
 70
     1
102
RTVSPropertyOp23
 70
     1
102
RTVSPropertyOp24
 70
     1
102
RTVSPropertyOp25
 70
     1
102
RTVSPropertyOp26
 70
     1
102
RTVSPropertyOp27
 70
     1
102
RTVSPropertyOp28
 70
     1
102
RTVSPropertyOp29
 70
     1
102
RTVSPropertyOp30
 70
     1
102
RTVSPropertyOp31
 70
     1
102
RTVSPropertyOp32
 70
     1
  0
XRECORD
  5
B0
102
{ACAD_REACTORS
330
AF
102
}
330
AF
100
AcDbXrecord
280
     1
102
RTVSPropertyOp0
 70
     1
102
RTVSPropertyOp1
 70
     1
102
RTVSPropertyOp2
 70
     1
102
RTVSPropertyOp3
 70
     1
102
RTVSPropertyOp4
 70
     1
102
RTVSPropertyOp5
 70
     1
102
RTVSPropertyOp6
 70
     1
102
RTVSPropertyOp7
 70
     1
102
RTVSPropertyOp8
 70
     1
102
RTVSPropertyOp9
 70
     1
102
RTVSPropertyOp10
 70
     1
102
RTVSPropertyOp11
 70
     1
102
RTVSPropertyOp12
 70
     1
102
RTVSPropertyOp13
 70
     1
102
RTVSPropertyOp14
 70
     1
102
RTVSPropertyOp15
 70
     1
102
RTVSPropertyOp16
 70
     1
102
RTVSPropertyOp17
 70
     1
102
RTVSPropertyOp18
 70
     1
102
RTVSPropertyOp19
 70
     1
102
RTVSPropertyOp20
 70
     1
102
RTVSPropertyOp21
 70
     1
102
RTVSPropertyOp22
 70
     1
102
RTVSPropertyOp23
 70
     1
102
RTVSPropertyOp24
 70
     1
102
RTVSPropertyOp25
 70
     1
102
RTVSPropertyOp26
 70
     1
102
RTVSPropertyOp27
 70
     1
102
RTVSPropertyOp28
 70
     1
102
RTVSPropertyOp29
 70
     1
102
RTVSPropertyOp30
 70
     1
102
RTVSPropertyOp31
 70
     1
102
RTVSPropertyOp32
 70
     1
  0
ENDSEC
  0
EOF
